<svg width="132" height="132" viewBox="0 0 132 132" fill="none" xmlns="http://www.w3.org/2000/svg">
<path d="M28.875 0C31.1532 0 33 1.84683 33 4.125V8.25H99V4.125C99 1.84683 100.847 0 103.125 0C105.403 0 107.25 1.84683 107.25 4.125V8.25H115.5C124.613 8.25 132 15.6373 132 24.75V115.5C132 124.613 124.613 132 115.5 132H16.5C7.38731 132 0 124.613 0 115.5V24.75C0 15.6373 7.3873 8.25 16.5 8.25H24.75V4.125C24.75 1.84683 26.5968 0 28.875 0ZM111 24.75H21C18.5147 24.75 16.5 26.5968 16.5 28.875V37.125C16.5 39.4032 18.5147 41.25 21 41.25H111C113.485 41.25 115.5 39.4032 115.5 37.125V28.875C115.5 26.5968 113.485 24.75 111 24.75ZM56.5418 67.2082C54.9309 65.5973 52.3191 65.5973 50.7082 67.2082C49.0973 68.8191 49.0973 71.4309 50.7082 73.0418L60.1664 82.5L50.7082 91.9582C49.0973 93.5691 49.0973 96.1809 50.7082 97.7918C52.3191 99.4027 54.9309 99.4027 56.5418 97.7918L66 88.3336L75.4582 97.7918C77.0691 99.4027 79.6809 99.4027 81.2918 97.7918C82.9027 96.1809 82.9027 93.5691 81.2918 91.9582L71.8336 82.5L81.2918 73.0418C82.9027 71.4309 82.9027 68.8191 81.2918 67.2082C79.6809 65.5973 77.0691 65.5973 75.4582 67.2082L66 76.6664L56.5418 67.2082Z" fill="#7E7D77"/>
</svg>
