<svg width="534" height="473" viewBox="0 0 534 473" fill="none" xmlns="http://www.w3.org/2000/svg">
<path d="M167.742 116.913C167.742 116.913 229.074 158.137 322.315 81.0539C405.122 12.5963 472.734 120.607 473.207 172.331C473.821 239.335 390.4 292.946 430.884 336.955C471.367 380.964 350.6 453.637 285.512 390.744C204.545 312.506 182.61 376.074 136.46 376.074C103.337 376.074 35.3329 303.174 81.2555 248.938C119.899 203.3 98.8241 188.153 88.6159 172.331C73.8949 149.512 108.858 87.5737 167.742 116.913Z" fill="#DEE9FF"/>
<path d="M266.975 210.649V363.631L132.879 312.328L133.519 159.899L266.975 210.649Z" fill="#418DF9"/>
<path d="M266.977 210.741V363.723L400.42 314.192V160.387L266.977 210.741Z" fill="#A2BDFF"/>
<path d="M266.975 210.649L401.071 160.899L268.028 108.662L132.879 159.656L266.975 210.649Z" fill="#699CFF"/>
<path d="M183.428 140.583L317.012 192.085L318.226 229.616L355.601 215.956L354.471 178.188L216.934 127.94L183.428 140.583Z" fill="#418DF9"/>
<path d="M309.406 265.628C311.523 265.628 313.239 262.854 313.239 259.431C313.239 256.008 311.523 253.233 309.406 253.233C307.289 253.233 305.572 256.008 305.572 259.431C305.572 262.854 307.289 265.628 309.406 265.628Z" fill="white"/>
<path d="M371.165 243.34C373.282 243.34 374.998 240.565 374.998 237.143C374.998 233.72 373.282 230.945 371.165 230.945C369.047 230.945 367.331 233.72 367.331 237.143C367.331 240.565 369.047 243.34 371.165 243.34Z" fill="white"/>
<path d="M331.619 298.348L329.13 297.492C334.645 284.914 341.562 277.985 349.687 276.897C357.46 275.857 364.008 280.6 366.384 283.253L364.291 284.723C362.648 282.888 356.895 278.325 350.087 279.236C343.076 280.174 336.69 286.783 331.619 298.348Z" fill="white"/>
</svg>
