<svg width="36" height="36" viewBox="0 0 36 36" fill="none" xmlns="http://www.w3.org/2000/svg">
<path fill-rule="evenodd" clip-rule="evenodd" d="M11.25 25.875C11.25 25.2537 11.7537 24.75 12.375 24.75H32.625C33.2463 24.75 33.75 25.2537 33.75 25.875C33.75 26.4963 33.2463 27 32.625 27H12.375C11.7537 27 11.25 26.4963 11.25 25.875Z" fill="white"/>
<path fill-rule="evenodd" clip-rule="evenodd" d="M11.25 16.875C11.25 16.2537 11.7537 15.75 12.375 15.75H32.625C33.2463 15.75 33.75 16.2537 33.75 16.875C33.75 17.4963 33.2463 18 32.625 18H12.375C11.7537 18 11.25 17.4963 11.25 16.875Z" fill="white"/>
<path fill-rule="evenodd" clip-rule="evenodd" d="M11.25 7.875C11.25 7.25368 11.7537 6.75 12.375 6.75H32.625C33.2463 6.75 33.75 7.25368 33.75 7.875C33.75 8.49632 33.2463 9 32.625 9H12.375C11.7537 9 11.25 8.49632 11.25 7.875Z" fill="white"/>
<path d="M5.04354 4.93549C5.22026 4.35484 6.02974 4.35484 6.20646 4.93549L6.56997 6.1299C6.64877 6.38882 6.88452 6.56539 7.15142 6.56539H8.39023C8.97236 6.56539 9.22227 7.31555 8.75968 7.67436L7.70578 8.49183C7.5031 8.64904 7.41847 8.91789 7.49377 9.16531L7.88379 10.4468C8.05873 11.0216 7.40374 11.4855 6.93289 11.1203L5.99445 10.3924C5.77633 10.2232 5.47367 10.2232 5.25555 10.3924L4.31711 11.1203C3.84626 11.4855 3.19127 11.0216 3.36621 10.4468L3.75623 9.16531C3.83153 8.91789 3.7469 8.64904 3.54422 8.49183L2.49032 7.67436C2.02773 7.31555 2.27764 6.56539 2.85977 6.56539H4.09858C4.36548 6.56539 4.60123 6.38882 4.68003 6.1299L5.04354 4.93549Z" fill="white"/>
<path d="M5.04354 13.9355C5.22026 13.3548 6.02974 13.3548 6.20646 13.9355L6.56997 15.1299C6.64877 15.3888 6.88452 15.5654 7.15142 15.5654H8.39023C8.97236 15.5654 9.22227 16.3155 8.75968 16.6744L7.70578 17.4918C7.5031 17.649 7.41847 17.9179 7.49377 18.1653L7.88379 19.4468C8.05873 20.0216 7.40374 20.4855 6.93289 20.1203L5.99445 19.3924C5.77633 19.2232 5.47367 19.2232 5.25555 19.3924L4.31711 20.1203C3.84626 20.4855 3.19127 20.0216 3.36621 19.4468L3.75623 18.1653C3.83153 17.9179 3.7469 17.649 3.54422 17.4918L2.49032 16.6744C2.02773 16.3155 2.27764 15.5654 2.85977 15.5654H4.09858C4.36548 15.5654 4.60123 15.3888 4.68003 15.1299L5.04354 13.9355Z" fill="white"/>
<path d="M5.04354 22.9355C5.22026 22.3548 6.02974 22.3548 6.20646 22.9355L6.56997 24.1299C6.64877 24.3888 6.88452 24.5654 7.15142 24.5654H8.39023C8.97236 24.5654 9.22227 25.3155 8.75968 25.6744L7.70578 26.4918C7.5031 26.649 7.41847 26.9179 7.49377 27.1653L7.88379 28.4468C8.05873 29.0216 7.40374 29.4855 6.93289 29.1203L5.99445 28.3924C5.77633 28.2232 5.47367 28.2232 5.25555 28.3924L4.31711 29.1203C3.84626 29.4855 3.19127 29.0216 3.36621 28.4468L3.75623 27.1653C3.83153 26.9179 3.7469 26.649 3.54422 26.4918L2.49032 25.6744C2.02773 25.3155 2.27764 24.5654 2.85977 24.5654H4.09858C4.36548 24.5654 4.60123 24.3888 4.68003 24.1299L5.04354 22.9355Z" fill="white"/>
</svg>
