<svg width="48" height="48" viewBox="0 0 48 48" fill="none" xmlns="http://www.w3.org/2000/svg">
<path d="M29.1536 39C29.621 39.0001 30.0002 39.3792 30.0002 39.8467C30.0002 39.9479 29.9826 40.0487 29.9446 40.1426C29.0299 42.3979 26.7132 43.9999 24.0002 44C21.2872 44 18.9706 42.398 18.0559 40.1426C18.0179 40.0487 18.0003 39.948 18.0002 39.8467C18.0002 39.3791 18.3794 39 18.8469 39H29.1536ZM24.0002 4C26.5074 4.00014 28.5403 6.03281 28.5403 8.54004V8.74707C32.8249 10.2142 35.9964 13.7013 36.4788 17.9502L37.3733 25.8301C37.5344 27.2493 38.1334 28.6031 39.1047 29.7441C41.2987 32.3217 39.2107 36 35.554 36H12.4456C8.78883 36 6.70171 32.3216 8.89575 29.7441C9.86698 28.6031 10.4651 27.2493 10.6262 25.8301L11.5208 17.9502C12.0031 13.7012 15.1755 10.2141 19.4602 8.74707V8.54004C19.4602 6.03273 21.4929 4 24.0002 4Z" fill="#6B7DF2"/>
</svg>
