<svg width="48" height="48" viewBox="0 0 48 48" fill="none" xmlns="http://www.w3.org/2000/svg">
<path d="M29.1533 39C29.6209 39 30 39.3791 30 39.8467C30 39.948 29.9824 40.0487 29.9443 40.1426C29.0296 42.398 26.7131 44 24 44C21.287 44 18.9704 42.3979 18.0557 40.1426C18.0177 40.0487 18 39.9479 18 39.8467C18 39.3791 18.3791 39 18.8467 39H29.1533ZM24.2002 8.00195C24.0693 8.6476 24 9.31573 24 10C24 15.5228 28.4772 20 34 20C34.9164 20 35.8043 19.8764 36.6475 19.6455L37.3311 25.6768C37.5024 27.1896 38.1151 28.6135 39.0889 29.7598C41.1557 32.1924 39.4785 36 36.3398 36H11.6602C8.52164 35.9998 6.84436 32.1924 8.91113 29.7598C9.88496 28.6135 10.4985 27.1896 10.6699 25.6768L11.3594 19.5879C12.1078 12.9816 17.542 8.00004 24 8C24.0667 8 24.1337 8.00089 24.2002 8.00195ZM34 4C37.3137 4 40 6.68629 40 10C40 13.3137 37.3137 16 34 16C30.6863 16 28 13.3137 28 10C28 6.68632 30.6863 4.00004 34 4Z" fill="#A0C0F8"/>
</svg>
