<svg width="63" height="63" viewBox="0 0 63 63" fill="none" xmlns="http://www.w3.org/2000/svg">
<path fill-rule="evenodd" clip-rule="evenodd" d="M32.8921 6.48288C33.661 7.25173 33.661 8.49827 32.8921 9.26712L10.6592 31.5L32.8921 53.7329C33.661 54.5017 33.661 55.7483 32.8921 56.5171C32.1233 57.286 30.8767 57.286 30.1079 56.5171L6.48288 32.8921C5.71404 32.1233 5.71404 30.8767 6.48288 30.1079L30.1079 6.48288C30.8767 5.71404 32.1233 5.71404 32.8921 6.48288Z" fill="white"/>
<path fill-rule="evenodd" clip-rule="evenodd" d="M48.6421 6.48288C49.411 7.25173 49.411 8.49827 48.6421 9.26712L26.4092 31.5L48.6421 53.7329C49.411 54.5017 49.411 55.7483 48.6421 56.5171C47.8733 57.286 46.6267 57.286 45.8579 56.5171L22.2329 32.8921C21.464 32.1233 21.464 30.8767 22.2329 30.1079L45.8579 6.48288C46.6267 5.71404 47.8733 5.71404 48.6421 6.48288Z" fill="white"/>
</svg>
