<svg width="487" height="354" viewBox="0 0 487 354" fill="none" xmlns="http://www.w3.org/2000/svg">
<path d="M252.2 21.0243H84.0665L0 186.318L84.0665 351.611H252.2L336.267 186.318L252.2 21.0243Z" fill="#D9EBFF"/>
<path d="M407.811 0H333.839L296.854 72.7218L333.839 145.444H407.811L444.796 72.7218L407.811 0Z" fill="#D9EBFF"/>
<path d="M405.263 218.75H356.212L331.688 266.973L356.212 315.194H405.263L429.788 266.973L405.263 218.75Z" fill="#D9EBFF"/>
<path d="M208.983 317.201H194.318C191.584 317.197 188.963 315.963 187.03 313.768C185.097 311.574 184.009 308.599 184.006 305.495V261.992C184.004 259.462 183.117 257.037 181.542 255.248C179.966 253.459 177.83 252.453 175.601 252.45H115.125C112.391 252.447 109.77 251.212 107.837 249.018C105.904 246.824 104.817 243.848 104.813 240.745V119.491C104.817 116.388 105.904 113.413 107.837 111.218C109.77 109.024 112.391 107.789 115.125 107.786H168.577C170.805 107.783 172.942 106.777 174.517 104.988C176.093 103.199 176.979 100.774 176.982 98.2448V94.0449C176.985 90.9415 178.072 87.9661 180.005 85.7717C181.938 83.5772 184.559 82.3428 187.293 82.3393H305.097C307.326 82.3364 309.462 81.3303 311.037 79.5416C312.613 77.7529 313.5 75.3278 313.502 72.7982C313.505 69.6948 314.593 66.7194 316.526 64.525C318.459 62.3305 321.08 61.0962 323.813 61.0927H378.175C380.909 61.0962 383.53 62.3306 385.463 64.525C387.396 66.7195 388.484 69.6948 388.487 72.7982V242.897C388.487 243.184 388.386 243.459 388.208 243.662C388.029 243.865 387.786 243.979 387.534 243.979C387.281 243.979 387.038 243.865 386.859 243.662C386.681 243.459 386.58 243.184 386.58 242.897V72.7982C386.578 70.2686 385.691 67.8435 384.116 66.0548C382.54 64.2661 380.404 63.2599 378.175 63.2571H323.813C321.585 63.2599 319.449 64.2661 317.873 66.0548C316.298 67.8435 315.411 70.2686 315.409 72.7982C315.406 75.9016 314.318 78.8769 312.385 81.0714C310.452 83.2658 307.831 84.5002 305.097 84.5037H187.293C185.065 84.5066 182.929 85.5127 181.353 87.3014C179.777 89.0901 178.891 91.5153 178.888 94.0448V98.2447C178.885 101.348 177.798 104.323 175.865 106.518C173.932 108.712 171.311 109.947 168.577 109.95H115.125C112.897 109.953 110.76 110.959 109.185 112.748C107.609 114.537 106.723 116.962 106.72 119.491V240.745C106.723 243.274 107.609 245.7 109.185 247.488C110.76 249.277 112.897 250.283 115.125 250.286H175.601C178.335 250.289 180.956 251.524 182.889 253.718C184.822 255.913 185.91 258.888 185.913 261.992V305.495C185.915 308.025 186.802 310.45 188.377 312.239C189.953 314.027 192.089 315.033 194.318 315.036H208.983C209.236 315.036 209.478 315.15 209.657 315.353C209.836 315.556 209.936 315.831 209.936 316.118C209.936 316.406 209.836 316.681 209.657 316.884C209.478 317.087 209.236 317.201 208.983 317.201Z" fill="#A9C0FF"/>
<path d="M255.329 124.23C274.456 124.23 289.962 106.628 289.962 84.914C289.962 63.2005 274.456 45.5983 255.329 45.5983C236.201 45.5983 220.695 63.2005 220.695 84.914C220.695 106.628 236.201 124.23 255.329 124.23Z" fill="white"/>
<path d="M235.805 277.975L223.094 347.322H272.513L259.803 277.975H235.805ZM255.329 306.985C255.329 309.407 254.481 311.731 252.972 313.444C251.463 315.157 249.416 316.119 247.283 316.119C245.149 316.119 243.102 315.157 241.593 313.444C240.084 311.731 239.237 309.407 239.237 306.985V297.851H255.329V306.985Z" fill="#4D76B8"/>
<path d="M255.327 306.983V297.85H239.235V306.983C239.235 307.2 239.248 307.409 239.26 307.618C239.273 307.827 239.299 308.037 239.324 308.239H230.255L235.803 277.973H259.801L265.349 308.239H255.244C255.27 308.037 255.289 307.827 255.301 307.618C255.32 307.407 255.328 307.195 255.327 306.983Z" fill="#4469A0"/>
<path d="M351.386 133.331H144.221C138.605 133.331 134.053 138.499 134.053 144.875V286.308C134.053 292.684 138.605 297.852 144.221 297.852H351.386C357.002 297.852 361.554 292.684 361.554 286.308V144.875C361.554 138.499 357.002 133.331 351.386 133.331Z" fill="#4D76B8"/>
<path d="M347.088 144.172H148.519C146.062 144.172 144.07 146.433 144.07 149.222V281.961C144.07 284.75 146.062 287.011 148.519 287.011H347.088C349.545 287.011 351.537 284.75 351.537 281.961V149.222C351.537 146.433 349.545 144.172 347.088 144.172Z" fill="white"/>
<path d="M347.896 144.172H147.711C146.746 144.172 145.819 144.607 145.137 145.382C144.454 146.157 144.07 147.209 144.07 148.305V155.225H351.537V148.305C351.537 147.209 351.153 146.157 350.471 145.382C349.788 144.607 348.862 144.172 347.896 144.172Z" fill="#A9C0FF"/>
<g opacity="0.28">
<path d="M166.23 82.0564H91.3889C89.9848 82.0564 88.8467 83.3484 88.8467 84.9423V203.148C88.8467 204.741 89.9848 206.033 91.3889 206.033H166.23C167.634 206.033 168.773 204.741 168.773 203.148V84.9423C168.773 83.3484 167.634 82.0564 166.23 82.0564Z" fill="#6299E8"/>
</g>
<path d="M157.441 71.3427H82.5993C81.1953 71.3427 80.0571 72.6347 80.0571 74.2285V192.434C80.0571 194.028 81.1953 195.32 82.5993 195.32H157.441C158.845 195.32 159.983 194.028 159.983 192.434V74.2285C159.983 72.6347 158.845 71.3427 157.441 71.3427Z" fill="white"/>
<path d="M129.324 178.74H96.6831V180.905H129.324V178.74Z" fill="#4D76B8"/>
<path d="M148.391 169.65H96.6831V171.814H148.391V169.65Z" fill="#4D76B8"/>
<path d="M129.324 158.222H96.6831V160.386H129.324V158.222Z" fill="#4D76B8"/>
<path d="M148.391 149.131H96.6831V151.296H148.391V149.131Z" fill="#4D76B8"/>
<path d="M148.391 140.041H96.6831V142.205H148.391V140.041Z" fill="#4D76B8"/>
<path d="M157.44 196.402H82.599C81.6723 196.401 80.7838 195.982 80.1285 195.239C79.4732 194.495 79.1046 193.486 79.1035 192.434V74.2284C79.1045 73.1764 79.4731 72.1678 80.1284 71.4238C80.7837 70.6799 81.6722 70.2615 82.599 70.2604H157.44C158.367 70.2615 159.256 70.6799 159.911 71.4238C160.566 72.1678 160.935 73.1764 160.936 74.2284V192.434C160.935 193.486 160.566 194.495 159.911 195.239C159.256 195.982 158.367 196.401 157.44 196.402ZM82.599 72.4248C82.1777 72.4253 81.7739 72.6155 81.476 72.9536C81.1781 73.2918 81.0106 73.7502 81.0101 74.2284V192.434C81.0105 192.912 81.1781 193.371 81.4759 193.709C81.7738 194.047 82.1777 194.237 82.599 194.238H157.44C157.862 194.237 158.266 194.047 158.564 193.709C158.861 193.371 159.029 192.912 159.029 192.434V74.2284C159.029 73.7502 158.861 73.2918 158.563 72.9536C158.266 72.6155 157.862 72.4253 157.44 72.4248H82.599Z" fill="#4D76B8"/>
<path d="M90.7848 174.736H86.9082C86.4869 174.736 86.0831 174.545 85.7852 174.207C85.4873 173.869 85.3198 173.411 85.3193 172.932V168.531C85.3198 168.053 85.4873 167.595 85.7852 167.257C86.0831 166.918 86.4869 166.728 86.9082 166.728H90.7848C91.206 166.728 91.6099 166.918 91.9078 167.257C92.2056 167.595 92.3732 168.053 92.3736 168.531V172.932C92.3732 173.411 92.2056 173.869 91.9078 174.207C91.6099 174.545 91.206 174.736 90.7848 174.736ZM87.226 172.572H90.467V168.892H87.226V172.572Z" fill="#4D76B8"/>
<path d="M90.7848 145.127H86.9082C86.4869 145.127 86.0831 144.936 85.7852 144.598C85.4873 144.26 85.3198 143.802 85.3193 143.323V138.922C85.3198 138.444 85.4873 137.986 85.7852 137.647C86.0831 137.309 86.4869 137.119 86.9082 137.119H90.7848C91.206 137.119 91.6099 137.309 91.9078 137.647C92.2056 137.986 92.3732 138.444 92.3736 138.922V143.323C92.3732 143.802 92.2056 144.26 91.9078 144.598C91.6099 144.936 91.206 145.127 90.7848 145.127ZM87.226 142.963H90.467V139.283H87.226V142.963Z" fill="#4D76B8"/>
<path d="M86.8244 84.143C86.6987 84.1429 86.5758 84.1006 86.4713 84.0213C86.3669 83.9421 86.2854 83.8294 86.2373 83.6976C86.1892 83.5658 86.1767 83.4207 86.2012 83.2808C86.2257 83.1409 86.2862 83.0123 86.375 82.9114L90.4198 78.3198C90.539 78.1845 90.7006 78.1085 90.8692 78.1085C91.0377 78.1085 91.1993 78.1845 91.3185 78.3198C91.4377 78.4551 91.5046 78.6386 91.5046 78.8299C91.5046 79.0212 91.4377 79.2047 91.3185 79.34L87.2737 83.9316C87.2148 83.9987 87.1448 84.0519 87.0676 84.0882C86.9905 84.1245 86.9078 84.1431 86.8244 84.143Z" fill="#4D76B8"/>
<path d="M90.8692 84.143C90.7857 84.1431 90.703 84.1245 90.6259 84.0882C90.5488 84.0519 90.4788 83.9987 90.4199 83.9316L86.3751 79.34C86.2559 79.2047 86.189 79.0212 86.189 78.8299C86.189 78.6386 86.2559 78.4551 86.3751 78.3198C86.4943 78.1845 86.6559 78.1085 86.8244 78.1085C86.993 78.1085 87.1546 78.1845 87.2738 78.3198L91.3186 82.9114C91.4074 83.0123 91.4679 83.1409 91.4924 83.2808C91.5169 83.4207 91.5044 83.5658 91.4563 83.6976C91.4082 83.8294 91.3267 83.9421 91.2222 84.0213C91.1177 84.1006 90.9949 84.1429 90.8692 84.143L90.8692 84.143Z" fill="#4D76B8"/>
<path d="M143.968 90.9469H96.0731C95.0201 90.9469 94.1665 91.9159 94.1665 93.1113V124.625C94.1665 125.82 95.0201 126.789 96.0731 126.789H143.968C145.021 126.789 145.874 125.82 145.874 124.625V93.1113C145.874 91.9159 145.021 90.9469 143.968 90.9469Z" fill="#A9C0FF"/>
<path d="M98.6802 95.8658L97.8125 97.7935L141.055 122.876L141.923 120.948L98.6802 95.8658Z" fill="#4D76B8"/>
<path d="M141.055 95.8658L97.8125 120.948L98.6802 122.876L141.923 97.7934L141.055 95.8658Z" fill="#4D76B8"/>
<path d="M271.426 341.383H224.179L226.359 329.507H269.246L271.426 341.383Z" fill="#456BA3"/>
<path d="M283.953 347.322H211.654V339.051C211.654 338.094 211.989 337.177 212.585 336.5C213.18 335.824 213.989 335.444 214.832 335.444H280.776C281.618 335.444 282.427 335.824 283.023 336.5C283.618 337.177 283.953 338.094 283.953 339.051V347.322Z" fill="#4D76B8"/>
<path d="M30.9813 150.477C29.3024 150.514 27.6552 149.956 26.2693 148.879C25.1662 148.04 23.868 147.592 22.5398 147.592C21.2117 147.592 19.9135 148.04 18.8104 148.879C17.4107 149.922 15.7731 150.477 14.099 150.477C12.4249 150.477 10.7873 149.922 9.38769 148.879C8.29968 148.007 6.99304 147.555 5.66132 147.592C5.40849 147.592 5.16601 147.478 4.98723 147.275C4.80845 147.072 4.70801 146.796 4.70801 146.509C4.70801 146.222 4.80845 145.947 4.98723 145.744C5.16601 145.541 5.40849 145.427 5.66132 145.427C7.33986 145.39 8.98672 145.949 10.372 147.025C11.4746 147.865 12.7721 148.313 14.0997 148.313C15.4273 148.313 16.7248 147.865 17.8273 147.025C19.2275 145.982 20.8656 145.427 22.5402 145.427C24.2148 145.427 25.8529 145.983 27.253 147.025C28.3418 147.898 29.649 148.349 30.9813 148.313C31.2341 148.313 31.4766 148.427 31.6554 148.63C31.8342 148.833 31.9346 149.108 31.9346 149.395C31.9346 149.682 31.8342 149.957 31.6554 150.16C31.4766 150.363 31.2341 150.477 30.9813 150.477Z" fill="#A9C0FF"/>
<path d="M30.9813 157.75C29.3024 157.787 27.6552 157.228 26.2693 156.152C25.1662 155.312 23.868 154.864 22.5398 154.864C21.2117 154.864 19.9135 155.312 18.8104 156.152C17.4107 157.195 15.7731 157.75 14.099 157.75C12.4249 157.75 10.7873 157.194 9.38769 156.152C8.29968 155.279 6.99304 154.828 5.66132 154.864C5.40849 154.864 5.16601 154.75 4.98723 154.547C4.80845 154.344 4.70801 154.069 4.70801 153.782C4.70801 153.495 4.80845 153.22 4.98723 153.017C5.16601 152.814 5.40849 152.7 5.66132 152.7C7.33986 152.663 8.98672 153.221 10.372 154.298C11.4746 155.137 12.7721 155.586 14.0997 155.585C15.4273 155.585 16.7248 155.137 17.8273 154.298C19.2275 153.255 20.8656 152.7 22.5402 152.7C24.2148 152.7 25.8529 153.255 27.253 154.298C28.3418 155.17 29.649 155.622 30.9813 155.585C31.2341 155.585 31.4766 155.699 31.6554 155.902C31.8342 156.105 31.9346 156.381 31.9346 156.668C31.9346 156.955 31.8342 157.23 31.6554 157.433C31.4766 157.636 31.2341 157.75 30.9813 157.75Z" fill="#A9C0FF"/>
<path d="M30.9813 165.022C29.3024 165.059 27.6552 164.501 26.2693 163.424C25.1662 162.585 23.868 162.136 22.5398 162.136C21.2117 162.136 19.9135 162.585 18.8104 163.424C17.4107 164.467 15.7731 165.022 14.099 165.022C12.4249 165.022 10.7873 164.467 9.38769 163.424C8.29968 162.552 6.99304 162.1 5.66132 162.136C5.40849 162.136 5.16601 162.022 4.98723 161.82C4.80845 161.617 4.70801 161.341 4.70801 161.054C4.70801 160.767 4.80845 160.492 4.98723 160.289C5.16601 160.086 5.40849 159.972 5.66132 159.972C7.33986 159.935 8.98672 160.494 10.372 161.57C11.4746 162.41 12.7721 162.858 14.0997 162.858C15.4273 162.858 16.7248 162.41 17.8273 161.57C19.2275 160.527 20.8656 159.972 22.5402 159.972C24.2148 159.972 25.8529 160.528 27.253 161.57C28.3418 162.443 29.649 162.894 30.9813 162.858C31.2341 162.858 31.4766 162.972 31.6554 163.175C31.8342 163.378 31.9346 163.653 31.9346 163.94C31.9346 164.227 31.8342 164.502 31.6554 164.705C31.4766 164.908 31.2341 165.022 30.9813 165.022Z" fill="#A9C0FF"/>
<path d="M424.002 234.169C422.323 234.206 420.676 233.648 419.29 232.571C418.187 231.732 416.888 231.283 415.56 231.283C414.232 231.283 412.934 231.732 411.831 232.571C410.431 233.614 408.793 234.169 407.119 234.169C405.445 234.169 403.808 233.614 402.408 232.571C401.32 231.699 400.014 231.247 398.682 231.283C398.429 231.283 398.187 231.169 398.008 230.966C397.829 230.763 397.729 230.488 397.729 230.201C397.729 229.914 397.829 229.639 398.008 229.436C398.187 229.233 398.429 229.119 398.682 229.119C400.361 229.082 402.007 229.641 403.392 230.717C404.495 231.556 405.792 232.005 407.12 232.005C408.448 232.005 409.745 231.556 410.848 230.717C412.248 229.674 413.886 229.119 415.56 229.119C417.235 229.119 418.873 229.674 420.273 230.717C421.362 231.59 422.67 232.041 424.002 232.005C424.255 232.005 424.498 232.119 424.676 232.322C424.855 232.525 424.956 232.8 424.956 233.087C424.956 233.374 424.855 233.649 424.676 233.852C424.498 234.055 424.255 234.169 424.002 234.169H424.002Z" fill="#A9C0FF"/>
<path d="M424.002 241.442C422.323 241.479 420.676 240.92 419.29 239.844C418.187 239.004 416.888 238.556 415.56 238.556C414.232 238.556 412.934 239.004 411.831 239.844C410.431 240.886 408.793 241.442 407.119 241.442C405.445 241.442 403.808 240.886 402.408 239.844C401.32 238.971 400.014 238.519 398.682 238.556C398.429 238.556 398.187 238.442 398.008 238.239C397.829 238.036 397.729 237.761 397.729 237.474C397.729 237.187 397.829 236.911 398.008 236.708C398.187 236.505 398.429 236.391 398.682 236.391C400.361 236.354 402.007 236.913 403.392 237.989C404.495 238.829 405.792 239.277 407.12 239.277C408.448 239.277 409.745 238.829 410.848 237.989C412.248 236.947 413.886 236.391 415.56 236.391C417.235 236.391 418.873 236.947 420.273 237.989C421.362 238.862 422.67 239.314 424.002 239.277C424.255 239.277 424.498 239.391 424.676 239.594C424.855 239.797 424.956 240.072 424.956 240.359C424.956 240.646 424.855 240.922 424.676 241.125C424.498 241.328 424.255 241.442 424.002 241.442H424.002Z" fill="#A9C0FF"/>
<path d="M424.002 248.713C422.323 248.75 420.676 248.192 419.29 247.115C418.187 246.276 416.888 245.827 415.56 245.827C414.232 245.827 412.934 246.276 411.831 247.115C410.431 248.158 408.793 248.713 407.119 248.713C405.445 248.713 403.808 248.158 402.408 247.115C401.32 246.243 400.014 245.791 398.682 245.827C398.429 245.827 398.187 245.713 398.008 245.511C397.829 245.308 397.729 245.032 397.729 244.745C397.729 244.458 397.829 244.183 398.008 243.98C398.187 243.777 398.429 243.663 398.682 243.663C400.361 243.626 402.007 244.185 403.392 245.261C404.495 246.101 405.792 246.549 407.12 246.549C408.448 246.549 409.745 246.101 410.848 245.261C412.248 244.218 413.886 243.663 415.56 243.663C417.235 243.663 418.873 244.218 420.273 245.261C421.362 246.134 422.67 246.585 424.002 246.549C424.255 246.549 424.498 246.663 424.676 246.866C424.855 247.069 424.956 247.344 424.956 247.631C424.956 247.918 424.855 248.193 424.676 248.396C424.498 248.599 424.255 248.713 424.002 248.713H424.002Z" fill="#A9C0FF"/>
<path d="M336.386 20.6615C334.707 20.6984 333.06 20.1398 331.673 19.0636C330.571 18.224 329.273 17.7757 327.945 17.7756C326.617 17.7756 325.319 18.2237 324.216 19.0632C322.816 20.106 321.178 20.6615 319.504 20.6615C317.83 20.6615 316.192 20.106 314.792 19.0632C313.704 18.1908 312.398 17.7393 311.066 17.7756C310.813 17.7756 310.571 17.6616 310.392 17.4587C310.213 17.2557 310.113 16.9804 310.113 16.6934C310.113 16.4064 310.213 16.1311 310.392 15.9282C310.571 15.7252 310.813 15.6112 311.066 15.6112C312.744 15.5742 314.391 16.133 315.776 17.2095C316.879 18.049 318.177 18.4971 319.504 18.4971C320.832 18.497 322.129 18.0487 323.232 17.2092C324.632 16.1666 326.27 15.6112 327.944 15.6112C329.619 15.6112 331.257 16.1666 332.657 17.2092C333.746 18.0819 335.053 18.5335 336.386 18.4971C336.639 18.4971 336.881 18.6111 337.06 18.8141C337.239 19.017 337.339 19.2923 337.339 19.5793C337.339 19.8663 337.239 20.1416 337.06 20.3445C336.881 20.5475 336.639 20.6615 336.386 20.6615H336.386Z" fill="#A9C0FF"/>
<path d="M336.386 27.934C334.707 27.9709 333.06 27.4123 331.673 26.336C330.571 25.4965 329.273 25.0481 327.945 25.0481C326.617 25.048 325.319 25.4962 324.216 26.3357C322.816 27.3784 321.178 27.934 319.504 27.934C317.83 27.934 316.192 27.3784 314.792 26.3357C313.704 25.4633 312.398 25.0118 311.066 25.0481C310.813 25.0481 310.571 24.9341 310.392 24.7311C310.213 24.5282 310.113 24.2529 310.113 23.9659C310.113 23.6789 310.213 23.4036 310.392 23.2007C310.571 22.9977 310.813 22.8837 311.066 22.8837C312.744 22.8467 314.391 23.4055 315.776 24.482C316.879 25.3214 318.177 25.7696 319.504 25.7696C320.832 25.7695 322.129 25.3212 323.232 24.4816C324.632 23.4391 326.27 22.8837 327.944 22.8837C329.619 22.8837 331.257 23.4391 332.657 24.4816C333.746 25.3544 335.053 25.806 336.386 25.7696C336.639 25.7696 336.881 25.8836 337.06 26.0865C337.239 26.2895 337.339 26.5647 337.339 26.8518C337.339 27.1388 337.239 27.414 337.06 27.617C336.881 27.8199 336.639 27.934 336.386 27.934H336.386Z" fill="#A9C0FF"/>
<path d="M336.386 35.2064C334.707 35.2433 333.06 34.6848 331.673 33.6085C330.571 32.7689 329.273 32.3206 327.945 32.3205C326.617 32.3205 325.319 32.7687 324.216 33.6081C322.816 34.6509 321.178 35.2064 319.504 35.2064C317.83 35.2064 316.192 34.6509 314.792 33.6081C313.704 32.7357 312.398 32.2842 311.066 32.3205C310.813 32.3205 310.571 32.2065 310.392 32.0036C310.213 31.8006 310.113 31.5254 310.113 31.2383C310.113 30.9513 310.213 30.6761 310.392 30.4731C310.571 30.2702 310.813 30.1561 311.066 30.1561C312.744 30.1192 314.391 30.6779 315.776 31.7544C316.879 32.5939 318.177 33.0421 319.504 33.042C320.832 33.042 322.129 32.5936 323.232 31.7541C324.632 30.7116 326.27 30.1561 327.944 30.1561C329.619 30.1561 331.257 30.7116 332.657 31.7541C333.746 32.6268 335.053 33.0784 336.386 33.042C336.639 33.042 336.881 33.156 337.06 33.359C337.239 33.5619 337.339 33.8372 337.339 34.1242C337.339 34.4112 337.239 34.6865 337.06 34.8894C336.881 35.0924 336.639 35.2064 336.386 35.2064H336.386Z" fill="#A9C0FF"/>
<path d="M317.64 251.368H310.591C309.889 251.368 309.32 252.014 309.32 252.811V345.879C309.32 346.676 309.889 347.322 310.591 347.322H317.64C318.342 347.322 318.911 346.676 318.911 345.879V252.811C318.911 252.014 318.342 251.368 317.64 251.368Z" fill="#4D76B8"/>
<path d="M447.727 251.368H440.678C439.976 251.368 439.407 252.014 439.407 252.811V345.879C439.407 346.676 439.976 347.322 440.678 347.322H447.727C448.429 347.322 448.998 346.676 448.998 345.879V252.811C448.998 252.014 448.429 251.368 447.727 251.368Z" fill="#4D76B8"/>
<path d="M459.489 262.634V295.564C459.49 296.061 459.403 296.553 459.236 297.011C459.069 297.47 458.823 297.887 458.514 298.238C458.205 298.589 457.838 298.868 457.434 299.057C457.029 299.247 456.596 299.345 456.159 299.345H302.16C301.722 299.345 301.289 299.247 300.885 299.057C300.481 298.868 300.114 298.589 299.804 298.238C299.495 297.887 299.25 297.47 299.082 297.011C298.915 296.553 298.829 296.061 298.829 295.564V262.634C298.829 262.138 298.915 261.646 299.082 261.187C299.25 260.729 299.495 260.312 299.804 259.961C300.114 259.61 300.481 259.331 300.885 259.141C301.289 258.951 301.722 258.854 302.16 258.854H456.159C456.489 258.853 456.817 258.907 457.133 259.014C457.161 259.033 457.192 259.045 457.225 259.052C457.885 259.305 458.458 259.787 458.865 260.43C459.271 261.072 459.489 261.843 459.489 262.634Z" fill="#A9C0FF"/>
<path d="M317.371 258.854L305.14 299.345H302.16C301.722 299.345 301.289 299.247 300.885 299.057C300.481 298.868 300.114 298.589 299.804 298.238C299.495 297.887 299.25 297.47 299.082 297.011C298.915 296.553 298.829 296.061 298.829 295.564V262.635C298.829 262.138 298.915 261.646 299.082 261.187C299.25 260.729 299.495 260.312 299.804 259.961C300.114 259.61 300.481 259.331 300.885 259.141C301.289 258.951 301.722 258.854 302.16 258.854L317.371 258.854Z" fill="#A9C0FF"/>
<path d="M337.387 258.854L325.156 299.345H305.074L317.305 258.854H337.387Z" fill="#92B1EF"/>
<path d="M357.369 258.854L345.138 299.345H325.056L337.287 258.854H357.369Z" fill="#A9C0FF"/>
<path d="M377.352 258.854L365.121 299.345H345.039L357.269 258.854H377.352Z" fill="#92B1EF"/>
<path d="M397.335 258.854L385.104 299.345H365.021L377.253 258.854H397.335Z" fill="#A9C0FF"/>
<path d="M417.317 258.854L405.086 299.345H385.004L397.235 258.854H417.317Z" fill="#92B1EF"/>
<path d="M437.3 258.854L425.069 299.345H404.987L417.218 258.854H437.3Z" fill="#A9C0FF"/>
<path d="M457.224 259.052L445.051 299.345H424.969L437.2 258.854H456.159C456.489 258.853 456.817 258.907 457.133 259.014C457.161 259.033 457.192 259.045 457.224 259.052Z" fill="#92B1EF"/>
<path d="M459.489 262.635V295.564C459.49 296.061 459.403 296.553 459.236 297.011C459.069 297.47 458.824 297.887 458.514 298.238C458.205 298.589 457.838 298.868 457.434 299.058C457.03 299.247 456.596 299.345 456.159 299.345H444.952L457.133 259.014C457.162 259.033 457.192 259.045 457.225 259.052C457.885 259.305 458.458 259.787 458.865 260.43C459.271 261.072 459.49 261.843 459.489 262.635Z" fill="#A9C0FF"/>
<path d="M273.935 102.051H237.994C237.722 102.051 237.454 101.972 237.216 101.822C236.979 101.671 236.779 101.454 236.636 101.191C236.492 100.928 236.411 100.628 236.399 100.32C236.386 100.011 236.444 99.7037 236.566 99.4273L254.536 58.6273C254.669 58.3261 254.873 58.0729 255.125 57.8959C255.377 57.7189 255.668 57.6251 255.964 57.6251C256.261 57.6251 256.552 57.7189 256.804 57.8959C257.056 58.0729 257.26 58.3261 257.393 58.6273L275.363 99.4273C275.485 99.7037 275.543 100.011 275.53 100.32C275.518 100.628 275.437 100.928 275.293 101.191C275.15 101.454 274.95 101.671 274.713 101.822C274.475 101.972 274.207 102.051 273.935 102.051Z" fill="#A9C0FF"/>
<path d="M244.034 82.4702H267.895L264.301 74.3119H247.628L244.034 82.4702Z" fill="#4D76B8"/>
<path d="M236.565 99.4272C236.521 99.5362 236.486 99.6499 236.462 99.7667H275.466C275.442 99.6499 275.407 99.5362 275.363 99.4272L271.919 91.6082H240.009L236.565 99.4272Z" fill="#92B1EF"/>
<path d="M278.208 96.8296H233.72C233.369 96.8296 233.084 97.1526 233.084 97.5511V104.267C233.084 104.665 233.369 104.988 233.72 104.988H278.208C278.559 104.988 278.844 104.665 278.844 104.267V97.5511C278.844 97.1526 278.559 96.8296 278.208 96.8296Z" fill="#A9C0FF"/>
<path d="M255.329 125.312C248.291 125.312 241.41 122.943 235.558 118.504C229.706 114.065 225.145 107.756 222.451 100.374C219.758 92.992 219.053 84.8693 220.426 77.0329C221.799 69.1964 225.188 61.9982 230.165 56.3484C235.142 50.6987 241.483 46.8511 248.386 45.2924C255.289 43.7336 262.445 44.5336 268.947 47.5912C275.45 50.6489 281.008 55.8268 284.918 62.4702C288.829 69.1136 290.916 76.9241 290.916 84.9141C290.905 95.6246 287.152 105.893 280.481 113.466C273.809 121.04 264.764 125.3 255.329 125.312ZM255.329 46.6805C248.668 46.6805 242.156 48.9229 236.617 53.1241C231.079 57.3252 226.762 63.2965 224.213 70.2828C221.663 77.269 220.996 84.9565 222.296 92.3731C223.596 99.7897 226.803 106.602 231.514 111.949C236.224 117.296 242.225 120.938 248.758 122.413C255.292 123.888 262.063 123.131 268.218 120.237C274.372 117.344 279.632 112.443 283.333 106.156C287.034 99.8681 289.009 92.476 289.009 84.9141C288.999 74.7775 285.447 65.0593 279.133 57.8916C272.819 50.7239 264.258 46.692 255.329 46.6805Z" fill="#4D76B8"/>
<path d="M82.9185 334.867C89.7566 334.036 93.9828 319.394 92.3581 302.164C90.7333 284.935 83.8728 271.641 77.0347 272.471C70.1967 273.302 65.9704 287.944 67.5952 305.174C69.22 322.404 76.0804 335.698 82.9185 334.867Z" fill="#92B1EF"/>
<path d="M92.3579 302.165C92.1908 300.393 91.9655 298.666 91.6934 296.989C89.4938 300.651 87.6305 304.56 86.1329 308.653C82.4725 318.565 81.222 328.252 82.3119 334.902C82.5144 334.902 82.7167 334.891 82.9181 334.867C89.7562 334.036 93.9825 319.395 92.3579 302.165Z" fill="#7894C1"/>
<path d="M111.096 320.567C116.997 304.586 116.64 289.184 110.298 286.166C103.955 283.147 94.0296 293.655 88.1279 309.636C82.2262 325.617 82.5834 341.019 88.9257 344.037C95.2681 347.056 105.194 336.548 111.096 320.567Z" fill="#6299E8"/>
<path d="M117.303 309.086H64.6102C64.2805 309.086 63.955 309.17 63.6576 309.332C63.3602 309.493 63.0984 309.728 62.8915 310.02C62.6845 310.311 62.5377 310.651 62.4617 311.015C62.3858 311.379 62.3826 311.758 62.4525 312.124L68.8541 345.623C68.961 346.183 69.2334 346.684 69.6259 347.043C70.0185 347.402 70.5075 347.598 71.0118 347.598H110.902C111.406 347.598 111.895 347.402 112.287 347.043C112.68 346.684 112.952 346.183 113.059 345.623L119.461 312.124C119.531 311.758 119.528 311.379 119.452 311.015C119.376 310.651 119.229 310.311 119.022 310.02C118.815 309.728 118.553 309.493 118.256 309.332C117.958 309.17 117.633 309.086 117.303 309.086Z" fill="#A9C0FF"/>
<path d="M115.081 335.045L118.355 317.908H63.5581L66.8324 335.045H115.081Z" fill="#92B1EF"/>
<path d="M72.7863 279.436C72.407 279.573 72.0064 279.615 71.6114 279.561C71.2136 279.515 70.825 279.396 70.4608 279.209C70.0922 279.019 69.7589 278.751 69.4789 278.42C69.1958 278.095 68.9893 277.695 68.8784 277.256C69.2111 277.516 69.4839 277.779 69.7954 277.986C70.0933 278.201 70.4044 278.39 70.7264 278.554C71.3669 278.896 72.0425 279.139 72.7863 279.436Z" fill="#4D76B8"/>
<path d="M85.441 274.396C85.488 274.845 85.4498 275.3 85.3289 275.73C85.2146 276.165 85.039 276.576 84.8088 276.947C84.5757 277.323 84.2815 277.644 83.9421 277.895C83.6083 278.15 83.2234 278.305 82.8228 278.346C83.1101 278.024 83.3891 277.769 83.6262 277.461C83.8675 277.169 84.0899 276.857 84.2915 276.529C84.7058 275.84 85.0894 275.129 85.441 274.396Z" fill="#4D76B8"/>
<path d="M78.8706 270.787C78.9175 271.236 78.8793 271.691 78.7586 272.121C78.6442 272.556 78.4686 272.967 78.2385 273.338C78.0054 273.714 77.7112 274.035 77.3718 274.285C77.038 274.54 76.6531 274.696 76.2524 274.737C76.5398 274.415 76.8188 274.16 77.0559 273.851C77.2972 273.559 77.5196 273.248 77.7212 272.919C78.1355 272.231 78.5191 271.519 78.8706 270.787Z" fill="#4D76B8"/>
<path d="M85.441 296.207C85.4879 296.656 85.4497 297.111 85.3289 297.541C85.2146 297.976 85.039 298.387 84.8088 298.758C84.5757 299.134 84.2815 299.455 83.9421 299.705C83.6084 299.96 83.2234 300.116 82.8228 300.157C83.1101 299.835 83.3891 299.58 83.6262 299.271C83.8675 298.979 84.0899 298.668 84.2915 298.339C84.7058 297.651 85.0894 296.939 85.441 296.207Z" fill="#4D76B8"/>
<path d="M83.5943 284.666C83.641 285.114 83.6028 285.569 83.4823 285.999C83.3678 286.434 83.1921 286.845 82.9618 287.216C82.7289 287.592 82.4348 287.913 82.0954 288.164C81.7617 288.419 81.3767 288.574 80.9761 288.615C81.2634 288.293 81.5424 288.038 81.7795 287.73C82.0207 287.438 82.2431 287.126 82.4448 286.798C82.8606 286.147 83.1977 285.439 83.5943 284.666Z" fill="#4D76B8"/>
<path d="M91.2478 286.624C91.2947 287.072 91.2566 287.527 91.1361 287.957C91.0215 288.392 90.8458 288.803 90.6157 289.174C90.3827 289.55 90.0886 289.871 89.7492 290.122C89.4154 290.377 89.0305 290.532 88.6299 290.573C88.9169 290.251 89.1962 289.996 89.4333 289.688C89.6745 289.396 89.8968 289.084 90.0983 288.756C90.5126 288.067 90.8962 287.356 91.2478 286.624Z" fill="#4D76B8"/>
<path d="M117.282 293.812C117.032 294.163 116.719 294.449 116.363 294.652C116.009 294.862 115.627 295.006 115.232 295.078C114.833 295.151 114.425 295.137 114.03 295.036C113.636 294.942 113.269 294.738 112.963 294.441C113.367 294.45 113.723 294.499 114.083 294.476C114.436 294.468 114.787 294.431 115.135 294.366C115.836 294.25 116.518 294.029 117.282 293.812Z" fill="#4D76B8"/>
<path d="M113.501 285.318C113.364 285.742 113.148 286.128 112.869 286.45C112.594 286.779 112.274 287.055 111.92 287.268C111.563 287.484 111.173 287.619 110.77 287.668C110.371 287.724 109.966 287.665 109.592 287.496C109.976 287.357 110.327 287.273 110.661 287.119C110.993 286.982 111.315 286.819 111.626 286.629C112.27 286.228 112.895 285.79 113.501 285.318Z" fill="#4D76B8"/>
<path d="M91.7799 306.733C91.3923 306.632 91.0283 306.437 90.7124 306.162C90.3906 305.893 90.1094 305.566 89.8798 305.195C89.6472 304.819 89.4802 304.396 89.3876 303.949C89.2893 303.506 89.2908 303.042 89.392 302.6C89.5617 303.016 89.6784 303.4 89.8544 303.758C90.0147 304.115 90.1976 304.457 90.4018 304.784C90.7999 305.448 91.2728 306.048 91.7799 306.733Z" fill="#4D76B8"/>
<path d="M96.4324 296.854C96.0447 296.752 95.6806 296.558 95.3646 296.283C95.0429 296.014 94.7618 295.687 94.532 295.316C94.2996 294.939 94.1325 294.516 94.0398 294.069C93.9416 293.626 93.9431 293.163 94.0442 292.721C94.2139 293.137 94.3309 293.521 94.5066 293.879C94.667 294.235 94.8499 294.578 95.054 294.905C95.4845 295.58 95.9445 296.231 96.4324 296.854Z" fill="#4D76B8"/>
<path d="M100.806 305.62C100.418 305.518 100.054 305.323 99.7378 305.049C99.416 304.779 99.1348 304.452 98.9052 304.081C98.6727 303.705 98.5057 303.282 98.413 302.835C98.3147 302.392 98.3162 301.928 98.4174 301.486C98.5871 301.902 98.7041 302.286 98.8797 302.644C99.0402 303.001 99.2231 303.344 99.4271 303.67C99.8576 304.346 100.318 304.996 100.806 305.62Z" fill="#4D76B8"/>
<path d="M103.598 289.798C103.21 289.696 102.846 289.501 102.53 289.227C102.209 288.957 101.927 288.631 101.698 288.259C101.465 287.883 101.298 287.46 101.205 287.013C101.107 286.57 101.109 286.106 101.21 285.664C101.379 286.08 101.496 286.465 101.672 286.822C101.833 287.179 102.016 287.522 102.22 287.848C102.618 288.513 103.091 289.112 103.598 289.798Z" fill="#4D76B8"/>
<path d="M109.592 297.207C109.342 297.558 109.028 297.844 108.673 298.047C108.318 298.257 107.936 298.402 107.542 298.474C107.142 298.546 106.734 298.532 106.339 298.431C105.945 298.338 105.579 298.133 105.273 297.837C105.677 297.845 106.032 297.894 106.393 297.871C106.745 297.863 107.097 297.826 107.445 297.761C108.168 297.617 108.885 297.432 109.592 297.207Z" fill="#4D76B8"/>
<path d="M115.523 305.62C115.273 305.971 114.96 306.257 114.604 306.46C114.25 306.67 113.868 306.815 113.473 306.887C113.074 306.959 112.665 306.945 112.271 306.844C111.877 306.751 111.51 306.546 111.204 306.25C111.608 306.258 111.963 306.307 112.324 306.284C112.676 306.276 113.028 306.239 113.376 306.174C114.076 306.058 114.758 305.838 115.523 305.62Z" fill="#4D76B8"/>
<path d="M75.988 287.731C75.6086 287.867 75.2079 287.909 74.8128 287.855C74.4151 287.809 74.0266 287.69 73.6624 287.503C73.2937 287.313 72.9603 287.045 72.6802 286.714C72.3972 286.389 72.1908 285.989 72.0801 285.55C72.4124 285.81 72.6852 286.074 72.9968 286.28C73.2947 286.495 73.6058 286.684 73.9277 286.848C74.6011 287.181 75.2887 287.476 75.988 287.731Z" fill="#4D76B8"/>
<path d="M76.2526 298.182C75.8733 298.318 75.4727 298.361 75.0777 298.307C74.68 298.26 74.2914 298.141 73.9271 297.954C73.5585 297.765 73.2252 297.497 72.9452 297.165C72.6621 296.841 72.4556 296.44 72.3447 296.001C72.6774 296.262 72.9502 296.525 73.2617 296.732C73.5596 296.946 73.8707 297.136 74.1927 297.299C74.8659 297.632 75.5534 297.927 76.2526 298.182Z" fill="#4D76B8"/>
<path d="M81.9304 306.847C81.5511 306.983 81.1505 307.026 80.7555 306.972C80.3577 306.926 79.9691 306.807 79.6048 306.619C79.2362 306.43 78.903 306.162 78.6229 305.83C78.3398 305.506 78.1333 305.106 78.0225 304.667C78.3551 304.927 78.6279 305.19 78.9395 305.397C79.2373 305.611 79.5484 305.801 79.8704 305.964C80.5437 306.298 81.2312 306.592 81.9304 306.847Z" fill="#4D76B8"/>
<path d="M69.5959 291.664C69.2166 291.8 68.816 291.842 68.421 291.788C68.0232 291.742 67.6346 291.623 67.2703 291.436C66.9018 291.246 66.5685 290.978 66.2885 290.647C66.0054 290.322 65.7989 289.922 65.688 289.483C66.0207 289.743 66.2934 290.007 66.605 290.213C66.9028 290.428 67.214 290.617 67.536 290.781C68.2092 291.114 68.8967 291.409 69.5959 291.664Z" fill="#4D76B8"/>
<path d="M69.5959 303.368C69.2166 303.505 68.816 303.547 68.421 303.493C68.0232 303.447 67.6346 303.328 67.2703 303.141C66.9018 302.951 66.5685 302.683 66.2885 302.352C66.0054 302.027 65.7989 301.627 65.688 301.188C66.0207 301.448 66.2934 301.712 66.605 301.918C66.9028 302.133 67.214 302.322 67.536 302.486C68.2092 302.819 68.8967 303.113 69.5959 303.368Z" fill="#4D76B8"/>
<path d="M486.996 347.322H25.896V353.815H486.996V347.322Z" fill="#456BA3"/>
<g opacity="0.28">
<path d="M442.593 102.509H336.091C332.572 102.509 329.719 105.747 329.719 109.742V183.652C329.719 187.647 332.572 190.886 336.091 190.886H442.593C446.112 190.886 448.965 187.647 448.965 183.652V109.742C448.965 105.747 446.112 102.509 442.593 102.509Z" fill="#6299E8"/>
</g>
<path d="M454.341 91.3599H347.839C344.32 91.3599 341.467 94.5985 341.467 98.5935V172.504C341.467 176.499 344.32 179.737 347.839 179.737H454.341C457.86 179.737 460.713 176.499 460.713 172.504V98.5935C460.713 94.5985 457.86 91.3599 454.341 91.3599Z" fill="white"/>
<path d="M454.34 180.819H347.838C345.896 180.817 344.034 179.94 342.661 178.381C341.287 176.822 340.515 174.708 340.513 172.504V98.5935C340.515 96.3888 341.287 94.275 342.661 92.7161C344.034 91.1571 345.896 90.2801 347.838 90.2776H454.34C456.282 90.2801 458.144 91.1571 459.518 92.7161C460.891 94.275 461.663 96.3888 461.666 98.5935V172.504C461.663 174.708 460.891 176.822 459.518 178.381C458.144 179.94 456.282 180.817 454.34 180.819ZM347.838 92.442C346.401 92.4438 345.024 93.0925 344.008 94.2458C342.992 95.399 342.421 96.9626 342.419 98.5935V172.504C342.421 174.135 342.992 175.698 344.008 176.851C345.024 178.004 346.402 178.653 347.838 178.655H454.34C455.777 178.653 457.154 178.004 458.17 176.851C459.186 175.698 459.757 174.135 459.759 172.504V98.5935C459.757 96.9626 459.186 95.399 458.17 94.2458C457.154 93.0925 455.777 92.4438 454.34 92.442H347.838Z" fill="#4D76B8"/>
<path d="M449.165 124.315H410.555V126.479H449.165V124.315Z" fill="#4D76B8"/>
<path d="M449.165 135.094H410.555V137.258H449.165V135.094Z" fill="#4D76B8"/>
<path d="M449.165 145.873H410.555V148.037H449.165V145.873Z" fill="#4D76B8"/>
<path d="M449.164 156.988H353.355V159.152H449.164V156.988Z" fill="#4D76B8"/>
<path d="M449.164 166.857H353.355V169.021H449.164V166.857Z" fill="#4D76B8"/>
<g opacity="0.19">
<path d="M396.007 121.623H356.791C355.738 121.623 354.885 122.592 354.885 123.788V151.131C354.885 152.327 355.738 153.296 356.791 153.296H396.007C397.06 153.296 397.914 152.327 397.914 151.131V123.788C397.914 122.592 397.06 121.623 396.007 121.623Z" fill="#AAAAAA"/>
</g>
<path d="M460.712 108.688H341.466V110.852H460.712V108.688Z" fill="#4D76B8"/>
<path d="M359.967 149.855H399.183C400.236 149.855 401.089 148.886 401.089 147.691V120.347C401.089 119.152 400.236 118.183 399.183 118.183H359.967C358.914 118.183 358.06 119.152 358.06 120.347V147.691C358.06 148.886 358.914 149.855 359.967 149.855Z" fill="#92B1EF"/>
<path d="M361.997 121.481L361.073 123.374L396.994 145.97L397.918 144.077L361.997 121.481Z" fill="#4D76B8"/>
<path d="M361.997 121.481L361.073 123.374L396.994 145.97L397.918 144.077L361.997 121.481Z" fill="#4D76B8"/>
<path d="M396.997 121.487L361.071 144.072L361.994 145.965L397.921 123.38L396.997 121.487Z" fill="#4D76B8"/>
<g opacity="0.28">
<path d="M176.028 233.278H101.385C100.332 233.278 99.4785 234.247 99.4785 235.442V270.194C99.4785 271.39 100.332 272.359 101.385 272.359H176.028C177.081 272.359 177.935 271.39 177.935 270.194V235.442C177.935 234.247 177.081 233.278 176.028 233.278Z" fill="#6299E8"/>
</g>
<path d="M169.357 225.521H94.7138C93.6608 225.521 92.8071 226.491 92.8071 227.686V262.438C92.8071 263.634 93.6608 264.603 94.7138 264.603H169.357C170.41 264.603 171.263 263.634 171.263 262.438V227.686C171.263 226.491 170.41 225.521 169.357 225.521Z" fill="white"/>
<path d="M169.357 265.685H94.7135C93.9552 265.684 93.2283 265.341 92.6921 264.733C92.1559 264.124 91.8543 263.299 91.8535 262.438V227.686C91.8543 226.825 92.1559 226 92.6921 225.391C93.2283 224.783 93.9552 224.44 94.7135 224.439H169.357C170.115 224.44 170.842 224.783 171.378 225.391C171.914 226 172.216 226.825 172.217 227.686V262.438C172.216 263.299 171.914 264.124 171.378 264.733C170.842 265.341 170.115 265.684 169.357 265.685ZM94.7135 226.604C94.4607 226.604 94.2184 226.718 94.0397 226.921C93.8609 227.124 93.7604 227.399 93.7601 227.686V262.438C93.7604 262.725 93.8609 263 94.0397 263.203C94.2184 263.406 94.4607 263.52 94.7135 263.52H169.357C169.61 263.52 169.852 263.406 170.031 263.203C170.209 263 170.31 262.725 170.31 262.438V227.686C170.31 227.399 170.209 227.124 170.031 226.921C169.852 226.718 169.61 226.604 169.357 226.604H94.7135Z" fill="#4D76B8"/>
<path d="M105.767 243.979C104.885 243.979 104.022 243.682 103.289 243.126C102.555 242.569 101.984 241.779 101.646 240.854C101.309 239.929 101.22 238.911 101.392 237.929C101.564 236.946 101.989 236.044 102.613 235.336C103.237 234.628 104.031 234.146 104.896 233.951C105.761 233.755 106.658 233.856 107.473 234.239C108.288 234.622 108.984 235.271 109.475 236.104C109.965 236.936 110.226 237.915 110.226 238.916C110.225 240.259 109.754 241.545 108.918 242.494C108.082 243.443 106.949 243.977 105.767 243.979ZM105.767 236.018C105.262 236.018 104.768 236.188 104.348 236.506C103.928 236.825 103.601 237.277 103.408 237.807C103.214 238.336 103.164 238.919 103.262 239.481C103.361 240.043 103.604 240.56 103.961 240.965C104.318 241.371 104.773 241.647 105.268 241.759C105.763 241.87 106.277 241.813 106.743 241.594C107.21 241.375 107.608 241.003 107.889 240.527C108.169 240.05 108.319 239.49 108.319 238.916C108.318 238.148 108.049 237.412 107.571 236.868C107.092 236.325 106.443 236.019 105.767 236.018Z" fill="#4D76B8"/>
<path d="M105.767 257.355C104.885 257.355 104.022 257.058 103.289 256.502C102.555 255.946 101.984 255.155 101.646 254.23C101.309 253.305 101.22 252.287 101.392 251.305C101.564 250.323 101.989 249.421 102.613 248.713C103.236 248.005 104.031 247.522 104.896 247.327C105.761 247.132 106.658 247.232 107.473 247.615C108.288 247.998 108.984 248.647 109.474 249.479C109.964 250.312 110.226 251.291 110.226 252.292C110.225 253.634 109.754 254.921 108.918 255.87C108.082 256.819 106.949 257.353 105.767 257.355ZM105.767 249.394C105.262 249.394 104.768 249.564 104.348 249.882C103.928 250.201 103.601 250.653 103.408 251.183C103.214 251.713 103.164 252.295 103.262 252.858C103.361 253.42 103.604 253.936 103.961 254.342C104.318 254.747 104.773 255.023 105.268 255.135C105.764 255.247 106.277 255.189 106.743 254.97C107.21 254.75 107.609 254.379 107.889 253.902C108.17 253.426 108.319 252.865 108.319 252.292C108.318 251.524 108.049 250.787 107.571 250.244C107.092 249.701 106.443 249.395 105.767 249.394V249.394Z" fill="#4D76B8"/>
<path d="M163.016 237.834H114.397V239.999H163.016V237.834Z" fill="#4D76B8"/>
<path d="M163.016 251.21H114.397V253.374H163.016V251.21Z" fill="#4D76B8"/>
<path d="M286.237 189.975H204.851C203.447 189.975 202.309 191.267 202.309 192.861V247.571C202.309 249.165 203.447 250.457 204.851 250.457H286.237C287.641 250.457 288.779 249.165 288.779 247.571V192.861C288.779 191.267 287.641 189.975 286.237 189.975Z" fill="#D9EBFF"/>
<path d="M222.229 208.049C222.756 207.865 223.294 207.725 223.838 207.629C224.382 207.524 224.932 207.467 225.484 207.461C226.037 207.459 226.589 207.523 227.13 207.65C227.633 207.764 228.115 207.977 228.553 208.28C228.972 208.573 229.316 208.986 229.552 209.476C229.814 210.06 229.942 210.71 229.922 211.365V222.531H233.212C233.39 222.922 233.539 223.329 233.657 223.748C233.806 224.263 233.88 224.801 233.878 225.343C233.914 225.75 233.877 226.16 233.769 226.55C233.661 226.94 233.484 227.3 233.25 227.61C232.818 228.064 232.247 228.305 231.659 228.283H229.922V233.236C229.65 233.292 229.243 233.368 228.701 233.467C228.188 233.561 227.668 233.61 227.147 233.613C226.666 233.617 226.185 233.589 225.706 233.529C225.332 233.49 224.972 233.354 224.652 233.13C224.361 232.911 224.135 232.596 224.004 232.228C223.839 231.718 223.763 231.176 223.782 230.633V228.283H214.501C213.915 227.927 213.414 227.415 213.04 226.792C212.619 226.079 212.406 225.235 212.431 224.378C212.437 223.784 212.499 223.193 212.616 222.615C212.723 222.013 212.937 221.442 213.244 220.935L222.229 208.049ZM224.116 214.639H224.004L219.086 222.531H224.116V214.639Z" fill="#4D76B8"/>
<path d="M255.547 220.516C255.574 222.466 255.324 224.408 254.807 226.268C254.379 227.815 253.681 229.25 252.756 230.487C251.895 231.608 250.82 232.491 249.613 233.068C247.05 234.242 244.187 234.242 241.625 233.068C240.418 232.491 239.342 231.608 238.482 230.487C237.558 229.252 236.866 227.816 236.447 226.268C235.943 224.405 235.7 222.464 235.726 220.516C235.699 218.575 235.942 216.641 236.447 214.786C236.868 213.245 237.56 211.817 238.482 210.588C239.342 209.467 240.418 208.584 241.625 208.007C244.187 206.831 247.051 206.831 249.613 208.007C250.82 208.584 251.895 209.467 252.756 210.588C253.679 211.819 254.376 213.246 254.807 214.786C255.325 216.638 255.575 218.573 255.547 220.516ZM249.224 220.516C249.313 218.555 248.99 216.598 248.281 214.807C248.056 214.211 247.682 213.703 247.206 213.345C246.729 212.986 246.171 212.794 245.599 212.792C245.032 212.792 244.478 212.984 244.007 213.343C243.536 213.702 243.17 214.211 242.956 214.807C242.274 216.607 241.964 218.559 242.051 220.516C241.966 222.479 242.275 224.439 242.956 226.246C243.167 226.846 243.532 227.361 244.003 227.724C244.474 228.086 245.03 228.281 245.599 228.283C246.173 228.279 246.733 228.084 247.209 227.722C247.686 227.36 248.059 226.847 248.281 226.246C248.989 224.447 249.312 222.484 249.224 220.516Z" fill="#4D76B8"/>
<path d="M267.601 208.049C268.128 207.865 268.666 207.725 269.21 207.629C269.753 207.524 270.303 207.468 270.855 207.461C271.408 207.459 271.959 207.523 272.501 207.65C273.004 207.764 273.486 207.977 273.924 208.28C274.343 208.573 274.687 208.986 274.922 209.476C275.186 210.06 275.313 210.71 275.292 211.365V222.531H278.584C278.762 222.921 278.91 223.329 279.027 223.748C279.177 224.263 279.252 224.801 279.25 225.343C279.286 225.75 279.249 226.16 279.14 226.55C279.032 226.94 278.855 227.301 278.62 227.61C278.189 228.064 277.618 228.306 277.03 228.283H275.292V233.236C275.02 233.292 274.615 233.368 274.072 233.467C273.559 233.561 273.039 233.61 272.519 233.613C272.037 233.617 271.556 233.589 271.077 233.529C270.703 233.49 270.342 233.354 270.023 233.13C269.732 232.91 269.507 232.596 269.376 232.228C269.211 231.718 269.135 231.176 269.154 230.633V228.283H259.873C259.287 227.927 258.786 227.415 258.412 226.792C257.99 226.08 257.777 225.235 257.801 224.378C257.808 223.785 257.87 223.194 257.986 222.615C258.094 222.013 258.308 221.441 258.616 220.935L267.601 208.049ZM269.487 214.639H269.376L264.458 222.531H269.487V214.639Z" fill="#4D76B8"/>
<path d="M341.665 62.1747L337.567 57.5221L333.468 62.1747L337.567 66.8273L341.665 62.1747Z" fill="#A9C0FF"/>
<path d="M350.283 62.1748L346.185 57.5222L342.086 62.1748L346.185 66.8274L350.283 62.1748Z" fill="#A9C0FF"/>
<path d="M358.901 62.1748L354.802 57.5222L350.704 62.1748L354.802 66.8274L358.901 62.1748Z" fill="#A9C0FF"/>
<path d="M387.533 208.206L391.632 203.553L387.533 198.901L383.435 203.553L387.533 208.206Z" fill="#A9C0FF"/>
<path d="M387.533 217.989L391.632 213.337L387.533 208.684L383.435 213.337L387.533 217.989Z" fill="#A9C0FF"/>
<path d="M387.533 227.772L391.632 223.12L387.533 218.467L383.435 223.12L387.533 227.772Z" fill="#A9C0FF"/>
</svg>
