<svg width="401" height="372" viewBox="0 0 401 372" fill="none" xmlns="http://www.w3.org/2000/svg">
<g filter="url(#filter0_d_9071_526)">
<rect x="20" y="14" width="361" height="332" rx="8" fill="white"/>
</g>
<rect x="334.629" y="195.5" width="33" height="33" rx="16.5" fill="#1B51E5"/>
<path d="M212 195.5H366C369.314 195.5 372 198.186 372 201.5V222.5C372 225.814 369.314 228.5 366 228.5H212V195.5Z" fill="white"/>
<path d="M212 195.5H366C369.314 195.5 372 198.186 372 201.5V222.5C372 225.814 369.314 228.5 366 228.5H212V195.5Z" fill="#5E81F4" fill-opacity="0.1"/>
<path d="M33.6294 234C33.6294 230.686 36.3157 228 39.6294 228H159.629V261H39.6294C36.3157 261 33.6294 258.314 33.6294 255V234Z" fill="white"/>
<path d="M33.6294 234C33.6294 230.686 36.3157 228 39.6294 228H159.629V261H39.6294C36.3157 261 33.6294 258.314 33.6294 255V234Z" fill="#5E81F4" fill-opacity="0.1"/>
<path d="M47.9779 249V247.684H49.9659V241.832H48.3279V240.824C48.7759 240.74 49.1586 240.642 49.4759 240.53C49.8026 240.409 50.1059 240.264 50.3859 240.096H51.5899V247.684H53.3399V249H47.9779ZM56.4716 249C56.509 248.207 56.579 247.483 56.6816 246.83C56.7843 246.167 56.929 245.537 57.1156 244.94C57.3116 244.343 57.559 243.764 57.8576 243.204C58.1563 242.635 58.5203 242.051 58.9496 241.454H54.7356V240.096H60.7136V241.076C60.191 241.72 59.7663 242.336 59.4396 242.924C59.1223 243.503 58.8703 244.1 58.6836 244.716C58.497 245.323 58.3616 245.971 58.2776 246.662C58.203 247.353 58.147 248.132 58.1096 249H56.4716Z" fill="#5E81F4"/>
<path d="M47.9754 282V281.062C48.5914 280.465 49.1467 279.914 49.6414 279.41C50.1454 278.906 50.57 278.439 50.9154 278.01C51.27 277.581 51.5407 277.179 51.7274 276.806C51.914 276.433 52.0074 276.078 52.0074 275.742C52.0074 275.266 51.8814 274.893 51.6294 274.622C51.3774 274.342 51.0134 274.202 50.5374 274.202C50.192 274.202 49.8747 274.3 49.5854 274.496C49.3054 274.692 49.044 274.925 48.8014 275.196L47.9054 274.3C48.316 273.861 48.736 273.525 49.1654 273.292C49.604 273.049 50.1314 272.928 50.7474 272.928C51.1767 272.928 51.564 272.993 51.9094 273.124C52.2547 273.255 52.5487 273.441 52.7914 273.684C53.034 273.917 53.2207 274.202 53.3514 274.538C53.4914 274.874 53.5614 275.247 53.5614 275.658C53.5614 276.05 53.4727 276.451 53.2954 276.862C53.1274 277.263 52.894 277.674 52.5954 278.094C52.306 278.505 51.9654 278.929 51.5734 279.368C51.1814 279.807 50.766 280.259 50.3274 280.726C50.5607 280.707 50.8127 280.689 51.0834 280.67C51.354 280.642 51.5967 280.628 51.8114 280.628H53.9954V282H47.9754ZM58.8071 282V279.704H54.8731V278.612L58.4011 273.096H60.3191V278.458H61.4391V279.704H60.3191V282H58.8071ZM56.4691 278.458H58.8071V276.442C58.8071 276.181 58.8118 275.873 58.8211 275.518C58.8398 275.163 58.8584 274.855 58.8771 274.594H58.8211C58.7091 274.827 58.5924 275.056 58.4711 275.28C58.3498 275.504 58.2238 275.737 58.0931 275.98L56.4691 278.458Z" fill="#1C1D21"/>
<path d="M50.8034 315.168C50.0754 315.168 49.4687 315.047 48.9834 314.804C48.498 314.561 48.0967 314.263 47.7794 313.908L48.5494 312.872C48.82 313.143 49.128 313.376 49.4734 313.572C49.8187 313.759 50.2154 313.852 50.6634 313.852C51.1487 313.852 51.5407 313.735 51.8394 313.502C52.1474 313.259 52.3014 312.928 52.3014 312.508C52.3014 312.275 52.2594 312.065 52.1754 311.878C52.0914 311.691 51.9467 311.533 51.7414 311.402C51.5454 311.271 51.2794 311.173 50.9434 311.108C50.6074 311.033 50.1874 310.996 49.6834 310.996V309.82C50.122 309.82 50.486 309.787 50.7754 309.722C51.074 309.647 51.312 309.549 51.4894 309.428C51.676 309.297 51.8067 309.143 51.8814 308.966C51.9654 308.789 52.0074 308.597 52.0074 308.392C52.0074 308.019 51.8907 307.729 51.6574 307.524C51.424 307.309 51.102 307.202 50.6914 307.202C50.3367 307.202 50.0147 307.281 49.7254 307.44C49.4454 307.589 49.17 307.79 48.8994 308.042L48.0734 307.048C48.456 306.712 48.862 306.441 49.2914 306.236C49.73 306.031 50.2154 305.928 50.7474 305.928C51.1767 305.928 51.5687 305.979 51.9234 306.082C52.278 306.185 52.5814 306.339 52.8334 306.544C53.0854 306.74 53.2814 306.987 53.4214 307.286C53.5614 307.575 53.6314 307.907 53.6314 308.28C53.6314 308.784 53.4914 309.204 53.2114 309.54C52.9407 309.876 52.5627 310.137 52.0774 310.324V310.38C52.6094 310.52 53.048 310.777 53.3934 311.15C53.748 311.523 53.9254 312.004 53.9254 312.592C53.9254 313.003 53.8414 313.367 53.6734 313.684C53.5147 314.001 53.2907 314.272 53.0014 314.496C52.7214 314.711 52.39 314.879 52.0074 315C51.634 315.112 51.2327 315.168 50.8034 315.168ZM55.6571 315V313.684H57.6451V307.832H56.0071V306.824C56.4551 306.74 56.8378 306.642 57.1551 306.53C57.4818 306.409 57.7851 306.264 58.0651 306.096H59.2691V313.684H61.0191V315H55.6571Z" fill="#1C1D21"/>
<path d="M48.4794 217V215.684H50.4674V209.832H48.8294V208.824C49.2774 208.74 49.66 208.642 49.9774 208.53C50.304 208.409 50.6074 208.264 50.8874 208.096H52.0914V215.684H53.8414V217H48.4794ZM58.2051 217.168C57.2718 217.168 56.5344 216.771 55.9931 215.978C55.4518 215.175 55.1811 214.018 55.1811 212.506C55.1811 210.994 55.4518 209.855 55.9931 209.09C56.5344 208.315 57.2718 207.928 58.2051 207.928C59.1384 207.928 59.8758 208.315 60.4171 209.09C60.9584 209.865 61.2291 211.003 61.2291 212.506C61.2291 214.018 60.9584 215.175 60.4171 215.978C59.8758 216.771 59.1384 217.168 58.2051 217.168ZM58.2051 215.908C58.4198 215.908 58.6158 215.852 58.7931 215.74C58.9798 215.619 59.1384 215.423 59.2691 215.152C59.3998 214.881 59.5024 214.531 59.5771 214.102C59.6518 213.673 59.6891 213.141 59.6891 212.506C59.6891 211.881 59.6518 211.358 59.5771 210.938C59.5024 210.509 59.3998 210.163 59.2691 209.902C59.1384 209.641 58.9798 209.459 58.7931 209.356C58.6158 209.244 58.4198 209.188 58.2051 209.188C57.9904 209.188 57.7898 209.244 57.6031 209.356C57.4258 209.459 57.2718 209.641 57.1411 209.902C57.0104 210.163 56.9078 210.509 56.8331 210.938C56.7584 211.358 56.7211 211.881 56.7211 212.506C56.7211 213.141 56.7584 213.673 56.8331 214.102C56.9078 214.531 57.0104 214.881 57.1411 215.152C57.2718 215.423 57.4258 215.619 57.6031 215.74C57.7898 215.852 57.9904 215.908 58.2051 215.908Z" fill="#1C1D21"/>
<path d="M54.3922 184.168C53.6642 184.168 53.0576 184.047 52.5722 183.804C52.0869 183.561 51.6856 183.263 51.3682 182.908L52.1382 181.872C52.4089 182.143 52.7169 182.376 53.0622 182.572C53.4076 182.759 53.8042 182.852 54.2522 182.852C54.7376 182.852 55.1296 182.735 55.4282 182.502C55.7362 182.259 55.8902 181.928 55.8902 181.508C55.8902 181.275 55.8482 181.065 55.7642 180.878C55.6802 180.691 55.5356 180.533 55.3302 180.402C55.1342 180.271 54.8682 180.173 54.5322 180.108C54.1962 180.033 53.7762 179.996 53.2722 179.996V178.82C53.7109 178.82 54.0749 178.787 54.3642 178.722C54.6629 178.647 54.9009 178.549 55.0782 178.428C55.2649 178.297 55.3956 178.143 55.4702 177.966C55.5542 177.789 55.5962 177.597 55.5962 177.392C55.5962 177.019 55.4796 176.729 55.2462 176.524C55.0129 176.309 54.6909 176.202 54.2802 176.202C53.9256 176.202 53.6036 176.281 53.3142 176.44C53.0342 176.589 52.7589 176.79 52.4882 177.042L51.6622 176.048C52.0449 175.712 52.4509 175.441 52.8802 175.236C53.3189 175.031 53.8042 174.928 54.3362 174.928C54.7656 174.928 55.1576 174.979 55.5122 175.082C55.8669 175.185 56.1702 175.339 56.4222 175.544C56.6742 175.74 56.8702 175.987 57.0102 176.286C57.1502 176.575 57.2202 176.907 57.2202 177.28C57.2202 177.784 57.0802 178.204 56.8002 178.54C56.5296 178.876 56.1516 179.137 55.6662 179.324V179.38C56.1982 179.52 56.6369 179.777 56.9822 180.15C57.3369 180.523 57.5142 181.004 57.5142 181.592C57.5142 182.003 57.4302 182.367 57.2622 182.684C57.1036 183.001 56.8796 183.272 56.5902 183.496C56.3102 183.711 55.9789 183.879 55.5962 184C55.2229 184.112 54.8216 184.168 54.3922 184.168Z" fill="#1C1D21"/>
<path d="M48.2221 152V151.314C48.8941 150.642 49.4914 150.035 50.0141 149.494C50.5368 148.953 50.9754 148.453 51.3301 147.996C51.6848 147.529 51.9554 147.105 52.1421 146.722C52.3288 146.33 52.4221 145.952 52.4221 145.588C52.4221 145.075 52.2821 144.655 52.0021 144.328C51.7221 144.001 51.2974 143.838 50.7281 143.838C50.3548 143.838 50.0094 143.945 49.6921 144.16C49.3748 144.365 49.0854 144.617 48.8241 144.916L48.1661 144.258C48.5394 143.847 48.9361 143.521 49.3561 143.278C49.7761 143.026 50.2801 142.9 50.8681 142.9C51.6988 142.9 52.3521 143.143 52.8281 143.628C53.3041 144.104 53.5421 144.739 53.5421 145.532C53.5421 145.952 53.4488 146.377 53.2621 146.806C53.0848 147.226 52.8328 147.665 52.5061 148.122C52.1888 148.57 51.8061 149.041 51.3581 149.536C50.9194 150.021 50.4341 150.539 49.9021 151.09C50.1448 151.071 50.3968 151.053 50.6581 151.034C50.9194 151.015 51.1668 151.006 51.4001 151.006H53.9901V152H48.2221ZM57.0991 152C57.1364 151.16 57.2111 150.39 57.3231 149.69C57.4351 148.99 57.5891 148.327 57.7851 147.702C57.9904 147.067 58.2471 146.456 58.5551 145.868C58.8724 145.28 59.2504 144.678 59.6891 144.062H55.2371V143.068H60.9911V143.782C60.4591 144.454 60.0251 145.098 59.6891 145.714C59.3624 146.33 59.1011 146.96 58.9051 147.604C58.7091 148.239 58.5644 148.915 58.4711 149.634C58.3871 150.343 58.3264 151.132 58.2891 152H57.0991Z" fill="#8181A5"/>
<path d="M42.3931 108V98.816H43.7931L45.5571 103.716C45.6691 104.033 45.7764 104.355 45.8791 104.682C45.9911 104.999 46.1031 105.317 46.2151 105.634H46.2711C46.3831 105.317 46.4858 104.999 46.5791 104.682C46.6818 104.355 46.7891 104.033 46.9011 103.716L48.6371 98.816H50.0511V108H48.9591V102.946C48.9591 102.535 48.9778 102.083 49.0151 101.588C49.0524 101.093 49.0851 100.641 49.1131 100.23H49.0571L48.3291 102.316L46.5931 107.076H45.8231L44.0871 102.316L43.3591 100.23H43.3031C43.3311 100.641 43.3591 101.093 43.3871 101.588C43.4244 102.083 43.4431 102.535 43.4431 102.946V108H42.3931ZM55.379 108.168C54.959 108.168 54.5576 108.089 54.175 107.93C53.8016 107.771 53.4703 107.543 53.181 107.244C52.8916 106.936 52.6583 106.563 52.481 106.124C52.313 105.676 52.229 105.172 52.229 104.612C52.229 104.043 52.313 103.539 52.481 103.1C52.6583 102.652 52.8916 102.274 53.181 101.966C53.4703 101.658 53.8016 101.425 54.175 101.266C54.5576 101.107 54.959 101.028 55.379 101.028C55.799 101.028 56.1956 101.107 56.569 101.266C56.9516 101.425 57.2876 101.658 57.577 101.966C57.8663 102.274 58.095 102.652 58.263 103.1C58.4403 103.539 58.529 104.043 58.529 104.612C58.529 105.172 58.4403 105.676 58.263 106.124C58.095 106.563 57.8663 106.936 57.577 107.244C57.2876 107.543 56.9516 107.771 56.569 107.93C56.1956 108.089 55.799 108.168 55.379 108.168ZM55.379 107.216C55.6683 107.216 55.9343 107.155 56.177 107.034C56.4196 106.903 56.625 106.726 56.793 106.502C56.9703 106.269 57.1056 105.993 57.199 105.676C57.2923 105.359 57.339 105.004 57.339 104.612C57.339 104.22 57.2923 103.865 57.199 103.548C57.1056 103.221 56.9703 102.941 56.793 102.708C56.625 102.475 56.4196 102.297 56.177 102.176C55.9343 102.045 55.6683 101.98 55.379 101.98C55.0896 101.98 54.8236 102.045 54.581 102.176C54.3383 102.297 54.1283 102.475 53.951 102.708C53.783 102.941 53.6523 103.221 53.559 103.548C53.4656 103.865 53.419 104.22 53.419 104.612C53.419 105.004 53.4656 105.359 53.559 105.676C53.6523 105.993 53.783 106.269 53.951 106.502C54.1283 106.726 54.3383 106.903 54.581 107.034C54.8236 107.155 55.0896 107.216 55.379 107.216ZM60.6009 108V101.196H61.5529L61.6509 102.176H61.6929C62.0195 101.849 62.3602 101.579 62.7149 101.364C63.0789 101.14 63.4989 101.028 63.9749 101.028C64.6935 101.028 65.2162 101.252 65.5429 101.7C65.8789 102.148 66.0469 102.811 66.0469 103.688V108H64.8989V103.842C64.8989 103.198 64.7962 102.736 64.5909 102.456C64.3855 102.167 64.0589 102.022 63.6109 102.022C63.2562 102.022 62.9435 102.111 62.6729 102.288C62.4022 102.465 62.0942 102.727 61.7489 103.072V108H60.6009Z" fill="#8181A5"/>
<g clip-path="url(#clip0_9071_526)">
<path d="M100.661 249V247.684H102.649V241.832H101.011V240.824C101.459 240.74 101.842 240.642 102.159 240.53C102.486 240.409 102.789 240.264 103.069 240.096H104.273V247.684H106.023V249H100.661ZM110.401 249.168C109.963 249.168 109.557 249.107 109.183 248.986C108.819 248.865 108.502 248.697 108.231 248.482C107.97 248.267 107.76 248.011 107.601 247.712C107.452 247.413 107.377 247.082 107.377 246.718C107.377 246.438 107.419 246.186 107.503 245.962C107.597 245.729 107.718 245.519 107.867 245.332C108.017 245.145 108.185 244.977 108.371 244.828C108.567 244.679 108.773 244.548 108.987 244.436V244.38C108.642 244.137 108.348 243.848 108.105 243.512C107.872 243.176 107.755 242.77 107.755 242.294C107.755 241.93 107.821 241.603 107.951 241.314C108.091 241.025 108.278 240.777 108.511 240.572C108.754 240.367 109.039 240.208 109.365 240.096C109.701 239.984 110.061 239.928 110.443 239.928C110.845 239.928 111.204 239.989 111.521 240.11C111.848 240.222 112.123 240.385 112.347 240.6C112.581 240.805 112.758 241.057 112.879 241.356C113.001 241.645 113.061 241.972 113.061 242.336C113.061 242.56 113.024 242.775 112.949 242.98C112.884 243.176 112.795 243.363 112.683 243.54C112.571 243.708 112.441 243.867 112.291 244.016C112.151 244.156 112.011 244.277 111.871 244.38V244.436C112.077 244.548 112.273 244.679 112.459 244.828C112.646 244.968 112.809 245.131 112.949 245.318C113.089 245.505 113.201 245.715 113.285 245.948C113.369 246.181 113.411 246.447 113.411 246.746C113.411 247.091 113.337 247.413 113.187 247.712C113.047 248.001 112.847 248.258 112.585 248.482C112.324 248.697 112.007 248.865 111.633 248.986C111.26 249.107 110.849 249.168 110.401 249.168ZM110.989 243.974C111.232 243.731 111.414 243.484 111.535 243.232C111.666 242.98 111.731 242.714 111.731 242.434C111.731 242.042 111.615 241.72 111.381 241.468C111.157 241.207 110.835 241.076 110.415 241.076C110.07 241.076 109.781 241.183 109.547 241.398C109.314 241.603 109.197 241.902 109.197 242.294C109.197 242.518 109.244 242.714 109.337 242.882C109.431 243.05 109.557 243.199 109.715 243.33C109.883 243.451 110.075 243.568 110.289 243.68C110.504 243.783 110.737 243.881 110.989 243.974ZM110.429 248.02C110.859 248.02 111.209 247.903 111.479 247.67C111.759 247.437 111.899 247.11 111.899 246.69C111.899 246.447 111.843 246.242 111.731 246.074C111.619 245.897 111.465 245.743 111.269 245.612C111.083 245.472 110.859 245.346 110.597 245.234C110.336 245.122 110.056 245.005 109.757 244.884C109.477 245.089 109.244 245.332 109.057 245.612C108.88 245.892 108.791 246.205 108.791 246.55C108.791 246.998 108.95 247.357 109.267 247.628C109.585 247.889 109.972 248.02 110.429 248.02Z" fill="#5E81F4"/>
<path d="M100.157 282V281.062C100.773 280.465 101.329 279.914 101.823 279.41C102.327 278.906 102.752 278.439 103.097 278.01C103.452 277.581 103.723 277.179 103.909 276.806C104.096 276.433 104.189 276.078 104.189 275.742C104.189 275.266 104.063 274.893 103.811 274.622C103.559 274.342 103.195 274.202 102.719 274.202C102.374 274.202 102.057 274.3 101.767 274.496C101.487 274.692 101.226 274.925 100.983 275.196L100.087 274.3C100.498 273.861 100.918 273.525 101.347 273.292C101.786 273.049 102.313 272.928 102.929 272.928C103.359 272.928 103.746 272.993 104.091 273.124C104.437 273.255 104.731 273.441 104.973 273.684C105.216 273.917 105.403 274.202 105.533 274.538C105.673 274.874 105.743 275.247 105.743 275.658C105.743 276.05 105.655 276.451 105.477 276.862C105.309 277.263 105.076 277.674 104.777 278.094C104.488 278.505 104.147 278.929 103.755 279.368C103.363 279.807 102.948 280.259 102.509 280.726C102.743 280.707 102.995 280.689 103.265 280.67C103.536 280.642 103.779 280.628 103.993 280.628H106.177V282H100.157ZM110.177 282.168C109.459 282.168 108.852 282.047 108.357 281.804C107.872 281.552 107.466 281.263 107.139 280.936L107.881 279.9C108.152 280.152 108.455 280.376 108.791 280.572C109.127 280.759 109.519 280.852 109.967 280.852C110.471 280.852 110.882 280.703 111.199 280.404C111.526 280.105 111.689 279.685 111.689 279.144C111.689 278.612 111.54 278.201 111.241 277.912C110.943 277.623 110.546 277.478 110.051 277.478C109.762 277.478 109.519 277.52 109.323 277.604C109.127 277.679 108.894 277.805 108.623 277.982L107.853 277.492L108.119 273.096H112.879V274.454H109.519L109.337 276.61C109.524 276.517 109.706 276.447 109.883 276.4C110.07 276.344 110.28 276.316 110.513 276.316C110.896 276.316 111.255 276.372 111.591 276.484C111.937 276.596 112.235 276.769 112.487 277.002C112.739 277.226 112.94 277.515 113.089 277.87C113.239 278.215 113.313 278.626 113.313 279.102C113.313 279.587 113.225 280.021 113.047 280.404C112.879 280.787 112.651 281.109 112.361 281.37C112.072 281.631 111.736 281.832 111.353 281.972C110.98 282.103 110.588 282.168 110.177 282.168Z" fill="#1C1D21"/>
<path d="M104.931 315V314.048H106.975V307.468H105.351V306.726C105.762 306.651 106.117 306.563 106.415 306.46C106.723 306.348 106.999 306.217 107.241 306.068H108.123V314.048H109.971V315H104.931Z" fill="#8181A5"/>
<path d="M101.163 217V215.684H103.151V209.832H101.513V208.824C101.961 208.74 102.344 208.642 102.661 208.53C102.988 208.409 103.291 208.264 103.571 208.096H104.775V215.684H106.525V217H101.163ZM108.341 217V215.684H110.329V209.832H108.691V208.824C109.139 208.74 109.521 208.642 109.839 208.53C110.165 208.409 110.469 208.264 110.749 208.096H111.953V215.684H113.703V217H108.341Z" fill="#1C1D21"/>
<path d="M107.4 184V181.704H103.466V180.612L106.994 175.096H108.912V180.458H110.032V181.704H108.912V184H107.4ZM105.062 180.458H107.4V178.442C107.4 178.181 107.405 177.873 107.414 177.518C107.433 177.163 107.452 176.855 107.47 176.594H107.414C107.302 176.827 107.186 177.056 107.064 177.28C106.943 177.504 106.817 177.737 106.686 177.98L105.062 180.458Z" fill="#1C1D21"/>
<path d="M100.404 152V151.314C101.076 150.642 101.674 150.035 102.196 149.494C102.719 148.953 103.158 148.453 103.512 147.996C103.867 147.529 104.138 147.105 104.324 146.722C104.511 146.33 104.604 145.952 104.604 145.588C104.604 145.075 104.464 144.655 104.184 144.328C103.904 144.001 103.48 143.838 102.91 143.838C102.537 143.838 102.192 143.945 101.874 144.16C101.557 144.365 101.268 144.617 101.006 144.916L100.348 144.258C100.722 143.847 101.118 143.521 101.538 143.278C101.958 143.026 102.462 142.9 103.05 142.9C103.881 142.9 104.534 143.143 105.01 143.628C105.486 144.104 105.724 144.739 105.724 145.532C105.724 145.952 105.631 146.377 105.444 146.806C105.267 147.226 105.015 147.665 104.688 148.122C104.371 148.57 103.988 149.041 103.54 149.536C103.102 150.021 102.616 150.539 102.084 151.09C102.327 151.071 102.579 151.053 102.84 151.034C103.102 151.015 103.349 151.006 103.582 151.006H106.172V152H100.404ZM110.303 152.168C109.883 152.168 109.491 152.107 109.127 151.986C108.773 151.865 108.465 151.697 108.203 151.482C107.951 151.258 107.751 150.997 107.601 150.698C107.452 150.399 107.377 150.073 107.377 149.718C107.377 149.429 107.424 149.163 107.517 148.92C107.62 148.668 107.746 148.444 107.895 148.248C108.054 148.043 108.231 147.865 108.427 147.716C108.633 147.557 108.843 147.422 109.057 147.31V147.254C108.731 147.021 108.441 146.741 108.189 146.414C107.937 146.078 107.811 145.672 107.811 145.196C107.811 144.851 107.877 144.538 108.007 144.258C108.138 143.978 108.315 143.74 108.539 143.544C108.763 143.339 109.029 143.18 109.337 143.068C109.645 142.956 109.981 142.9 110.345 142.9C110.737 142.9 111.087 142.961 111.395 143.082C111.703 143.194 111.965 143.357 112.179 143.572C112.403 143.777 112.571 144.029 112.683 144.328C112.805 144.617 112.865 144.935 112.865 145.28C112.865 145.513 112.823 145.737 112.739 145.952C112.665 146.167 112.567 146.367 112.445 146.554C112.333 146.741 112.203 146.909 112.053 147.058C111.913 147.207 111.773 147.333 111.633 147.436V147.492C111.829 147.604 112.021 147.735 112.207 147.884C112.394 148.024 112.557 148.187 112.697 148.374C112.847 148.551 112.963 148.757 113.047 148.99C113.141 149.223 113.187 149.489 113.187 149.788C113.187 150.124 113.117 150.437 112.977 150.726C112.837 151.015 112.641 151.267 112.389 151.482C112.137 151.697 111.834 151.865 111.479 151.986C111.125 152.107 110.733 152.168 110.303 152.168ZM110.933 147.128C111.232 146.857 111.461 146.573 111.619 146.274C111.787 145.975 111.871 145.663 111.871 145.336C111.871 144.888 111.736 144.515 111.465 144.216C111.195 143.908 110.812 143.754 110.317 143.754C109.897 143.754 109.552 143.885 109.281 144.146C109.011 144.407 108.875 144.757 108.875 145.196C108.875 145.467 108.931 145.7 109.043 145.896C109.155 146.083 109.305 146.251 109.491 146.4C109.687 146.549 109.907 146.685 110.149 146.806C110.401 146.918 110.663 147.025 110.933 147.128ZM110.331 151.314C110.854 151.314 111.274 151.169 111.591 150.88C111.918 150.591 112.081 150.213 112.081 149.746C112.081 149.457 112.016 149.209 111.885 149.004C111.755 148.799 111.577 148.621 111.353 148.472C111.129 148.313 110.868 148.173 110.569 148.052C110.28 147.921 109.977 147.791 109.659 147.66C109.305 147.903 109.006 148.187 108.763 148.514C108.53 148.831 108.413 149.195 108.413 149.606C108.413 149.858 108.46 150.087 108.553 150.292C108.656 150.497 108.791 150.679 108.959 150.838C109.137 150.987 109.342 151.104 109.575 151.188C109.809 151.272 110.061 151.314 110.331 151.314Z" fill="#8181A5"/>
<path d="M98.4753 108V99.796H95.7033V98.816H102.423V99.796H99.6513V108H98.4753ZM105.591 108.168C104.863 108.168 104.331 107.944 103.995 107.496C103.668 107.048 103.505 106.385 103.505 105.508V101.196H104.667V105.354C104.667 105.998 104.765 106.465 104.961 106.754C105.166 107.034 105.493 107.174 105.941 107.174C106.295 107.174 106.608 107.085 106.879 106.908C107.149 106.721 107.448 106.427 107.775 106.026V101.196H108.923V108H107.971L107.873 106.936H107.831C107.513 107.309 107.177 107.608 106.823 107.832C106.477 108.056 106.067 108.168 105.591 108.168ZM114.256 108.168C113.798 108.168 113.369 108.089 112.968 107.93C112.576 107.762 112.23 107.529 111.932 107.23C111.642 106.922 111.414 106.549 111.246 106.11C111.078 105.671 110.994 105.172 110.994 104.612C110.994 104.052 111.078 103.553 111.246 103.114C111.423 102.666 111.652 102.288 111.932 101.98C112.221 101.672 112.548 101.439 112.912 101.28C113.276 101.112 113.654 101.028 114.046 101.028C114.475 101.028 114.858 101.103 115.194 101.252C115.539 101.401 115.824 101.616 116.048 101.896C116.281 102.176 116.458 102.512 116.58 102.904C116.701 103.296 116.762 103.735 116.762 104.22C116.762 104.341 116.757 104.463 116.748 104.584C116.748 104.696 116.738 104.794 116.72 104.878H112.128C112.174 105.606 112.398 106.185 112.8 106.614C113.21 107.034 113.742 107.244 114.396 107.244C114.722 107.244 115.021 107.197 115.292 107.104C115.572 107.001 115.838 106.871 116.09 106.712L116.496 107.468C116.197 107.655 115.866 107.818 115.502 107.958C115.138 108.098 114.722 108.168 114.256 108.168ZM112.114 104.052H115.754C115.754 103.361 115.604 102.839 115.306 102.484C115.016 102.12 114.606 101.938 114.074 101.938C113.831 101.938 113.598 101.985 113.374 102.078C113.159 102.171 112.963 102.311 112.786 102.498C112.608 102.675 112.459 102.895 112.338 103.156C112.226 103.417 112.151 103.716 112.114 104.052Z" fill="#8181A5"/>
</g>
<g clip-path="url(#clip1_9071_526)">
<rect x="142.629" y="228" width="33" height="33" rx="6" fill="#5E81F4"/>
<path d="M152.844 249V247.684H154.832V241.832H153.194V240.824C153.642 240.74 154.024 240.642 154.342 240.53C154.668 240.409 154.972 240.264 155.252 240.096H156.456V247.684H158.206V249H152.844ZM162.401 244.436C162.663 244.436 162.933 244.357 163.213 244.198C163.503 244.03 163.764 243.764 163.997 243.4C163.913 242.616 163.717 242.047 163.409 241.692C163.111 241.337 162.747 241.16 162.317 241.16C161.953 241.16 161.641 241.305 161.379 241.594C161.118 241.883 160.987 242.299 160.987 242.84C160.987 243.372 161.109 243.773 161.351 244.044C161.603 244.305 161.953 244.436 162.401 244.436ZM162.023 249.168C161.491 249.168 161.029 249.07 160.637 248.874C160.245 248.678 159.914 248.44 159.643 248.16L160.511 247.18C160.679 247.376 160.889 247.539 161.141 247.67C161.403 247.791 161.669 247.852 161.939 247.852C162.219 247.852 162.481 247.796 162.723 247.684C162.975 247.572 163.195 247.39 163.381 247.138C163.568 246.877 163.717 246.536 163.829 246.116C163.951 245.696 164.021 245.178 164.039 244.562C163.778 244.889 163.47 245.145 163.115 245.332C162.761 245.509 162.42 245.598 162.093 245.598C161.711 245.598 161.361 245.542 161.043 245.43C160.726 245.318 160.451 245.15 160.217 244.926C159.993 244.693 159.816 244.403 159.685 244.058C159.564 243.713 159.503 243.307 159.503 242.84C159.503 242.392 159.578 241.991 159.727 241.636C159.877 241.272 160.077 240.964 160.329 240.712C160.581 240.46 160.875 240.269 161.211 240.138C161.557 239.998 161.921 239.928 162.303 239.928C162.733 239.928 163.143 240.017 163.535 240.194C163.927 240.362 164.268 240.623 164.557 240.978C164.856 241.333 165.089 241.785 165.257 242.336C165.435 242.877 165.523 243.521 165.523 244.268C165.523 245.136 165.425 245.878 165.229 246.494C165.043 247.11 164.786 247.619 164.459 248.02C164.142 248.412 163.769 248.701 163.339 248.888C162.919 249.075 162.481 249.168 162.023 249.168Z" fill="white"/>
<path d="M152.34 282V281.062C152.956 280.465 153.511 279.914 154.006 279.41C154.51 278.906 154.934 278.439 155.28 278.01C155.634 277.581 155.905 277.179 156.092 276.806C156.278 276.433 156.372 276.078 156.372 275.742C156.372 275.266 156.246 274.893 155.994 274.622C155.742 274.342 155.378 274.202 154.902 274.202C154.556 274.202 154.239 274.3 153.95 274.496C153.67 274.692 153.408 274.925 153.166 275.196L152.27 274.3C152.68 273.861 153.1 273.525 153.53 273.292C153.968 273.049 154.496 272.928 155.112 272.928C155.541 272.928 155.928 272.993 156.274 273.124C156.619 273.255 156.913 273.441 157.156 273.684C157.398 273.917 157.585 274.202 157.716 274.538C157.856 274.874 157.926 275.247 157.926 275.658C157.926 276.05 157.837 276.451 157.66 276.862C157.492 277.263 157.258 277.674 156.96 278.094C156.67 278.505 156.33 278.929 155.938 279.368C155.546 279.807 155.13 280.259 154.692 280.726C154.925 280.707 155.177 280.689 155.448 280.67C155.718 280.642 155.961 280.628 156.176 280.628H158.36V282H152.34ZM162.835 282.168C162.397 282.168 161.981 282.084 161.589 281.916C161.197 281.739 160.852 281.473 160.553 281.118C160.264 280.763 160.031 280.311 159.853 279.76C159.685 279.209 159.601 278.561 159.601 277.814C159.601 276.946 159.699 276.204 159.895 275.588C160.091 274.972 160.348 274.468 160.665 274.076C160.992 273.684 161.365 273.395 161.785 273.208C162.205 273.021 162.644 272.928 163.101 272.928C163.643 272.928 164.105 273.026 164.487 273.222C164.879 273.418 165.211 273.656 165.481 273.936L164.613 274.916C164.455 274.72 164.245 274.561 163.983 274.44C163.731 274.309 163.47 274.244 163.199 274.244C162.919 274.244 162.653 274.3 162.401 274.412C162.159 274.524 161.944 274.711 161.757 274.972C161.571 275.224 161.417 275.56 161.295 275.98C161.183 276.4 161.118 276.918 161.099 277.534C161.361 277.207 161.664 276.951 162.009 276.764C162.364 276.577 162.705 276.484 163.031 276.484C163.414 276.484 163.764 276.54 164.081 276.652C164.408 276.764 164.683 276.937 164.907 277.17C165.141 277.394 165.318 277.679 165.439 278.024C165.57 278.369 165.635 278.775 165.635 279.242C165.635 279.69 165.561 280.096 165.411 280.46C165.262 280.815 165.061 281.118 164.809 281.37C164.557 281.622 164.259 281.818 163.913 281.958C163.577 282.098 163.218 282.168 162.835 282.168ZM162.807 280.936C163.181 280.936 163.493 280.791 163.745 280.502C164.007 280.213 164.137 279.793 164.137 279.242C164.137 278.71 164.016 278.313 163.773 278.052C163.531 277.791 163.185 277.66 162.737 277.66C162.485 277.66 162.219 277.739 161.939 277.898C161.659 278.047 161.393 278.309 161.141 278.682C161.225 279.475 161.412 280.049 161.701 280.404C162 280.759 162.369 280.936 162.807 280.936Z" fill="#1C1D21"/>
<path d="M156.568 315V314.314C157.24 313.642 157.837 313.035 158.36 312.494C158.882 311.953 159.321 311.453 159.676 310.996C160.03 310.529 160.301 310.105 160.488 309.722C160.674 309.33 160.768 308.952 160.768 308.588C160.768 308.075 160.628 307.655 160.348 307.328C160.068 307.001 159.643 306.838 159.074 306.838C158.7 306.838 158.355 306.945 158.038 307.16C157.72 307.365 157.431 307.617 157.17 307.916L156.512 307.258C156.885 306.847 157.282 306.521 157.702 306.278C158.122 306.026 158.626 305.9 159.214 305.9C160.044 305.9 160.698 306.143 161.174 306.628C161.65 307.104 161.888 307.739 161.888 308.532C161.888 308.952 161.794 309.377 161.608 309.806C161.43 310.226 161.178 310.665 160.852 311.122C160.534 311.57 160.152 312.041 159.704 312.536C159.265 313.021 158.78 313.539 158.248 314.09C158.49 314.071 158.742 314.053 159.004 314.034C159.265 314.015 159.512 314.006 159.746 314.006H162.336V315H156.568Z" fill="#98A9BC"/>
<path d="M152.844 217V215.684H154.832V209.832H153.194V208.824C153.642 208.74 154.024 208.642 154.342 208.53C154.668 208.409 154.972 208.264 155.252 208.096H156.456V215.684H158.206V217H152.844ZM159.517 217V216.062C160.133 215.465 160.689 214.914 161.183 214.41C161.687 213.906 162.112 213.439 162.457 213.01C162.812 212.581 163.083 212.179 163.269 211.806C163.456 211.433 163.549 211.078 163.549 210.742C163.549 210.266 163.423 209.893 163.171 209.622C162.919 209.342 162.555 209.202 162.079 209.202C161.734 209.202 161.417 209.3 161.127 209.496C160.847 209.692 160.586 209.925 160.343 210.196L159.447 209.3C159.858 208.861 160.278 208.525 160.707 208.292C161.146 208.049 161.673 207.928 162.289 207.928C162.719 207.928 163.106 207.993 163.451 208.124C163.797 208.255 164.091 208.441 164.333 208.684C164.576 208.917 164.763 209.202 164.893 209.538C165.033 209.874 165.103 210.247 165.103 210.658C165.103 211.05 165.015 211.451 164.837 211.862C164.669 212.263 164.436 212.674 164.137 213.094C163.848 213.505 163.507 213.929 163.115 214.368C162.723 214.807 162.308 215.259 161.869 215.726C162.103 215.707 162.355 215.689 162.625 215.67C162.896 215.642 163.139 215.628 163.353 215.628H165.537V217H159.517Z" fill="#1C1D21"/>
<path d="M158.77 184.168C158.052 184.168 157.445 184.047 156.95 183.804C156.465 183.552 156.059 183.263 155.732 182.936L156.474 181.9C156.745 182.152 157.048 182.376 157.384 182.572C157.72 182.759 158.112 182.852 158.56 182.852C159.064 182.852 159.475 182.703 159.792 182.404C160.119 182.105 160.282 181.685 160.282 181.144C160.282 180.612 160.133 180.201 159.834 179.912C159.536 179.623 159.139 179.478 158.644 179.478C158.355 179.478 158.112 179.52 157.916 179.604C157.72 179.679 157.487 179.805 157.216 179.982L156.446 179.492L156.712 175.096H161.472V176.454H158.112L157.93 178.61C158.117 178.517 158.299 178.447 158.476 178.4C158.663 178.344 158.873 178.316 159.106 178.316C159.489 178.316 159.848 178.372 160.184 178.484C160.53 178.596 160.828 178.769 161.08 179.002C161.332 179.226 161.533 179.515 161.682 179.87C161.832 180.215 161.906 180.626 161.906 181.102C161.906 181.587 161.818 182.021 161.64 182.404C161.472 182.787 161.244 183.109 160.954 183.37C160.665 183.631 160.329 183.832 159.946 183.972C159.573 184.103 159.181 184.168 158.77 184.168Z" fill="#1C1D21"/>
<path d="M153.088 152V151.314C153.76 150.642 154.358 150.035 154.88 149.494C155.403 148.953 155.842 148.453 156.196 147.996C156.551 147.529 156.822 147.105 157.008 146.722C157.195 146.33 157.288 145.952 157.288 145.588C157.288 145.075 157.148 144.655 156.868 144.328C156.588 144.001 156.164 143.838 155.594 143.838C155.221 143.838 154.876 143.945 154.558 144.16C154.241 144.365 153.952 144.617 153.69 144.916L153.032 144.258C153.406 143.847 153.802 143.521 154.222 143.278C154.642 143.026 155.146 142.9 155.734 142.9C156.565 142.9 157.218 143.143 157.694 143.628C158.17 144.104 158.408 144.739 158.408 145.532C158.408 145.952 158.315 146.377 158.128 146.806C157.951 147.226 157.699 147.665 157.372 148.122C157.055 148.57 156.672 149.041 156.224 149.536C155.786 150.021 155.3 150.539 154.768 151.09C155.011 151.071 155.263 151.053 155.524 151.034C155.786 151.015 156.033 151.006 156.266 151.006H158.856V152H153.088ZM162.777 147.66C163.076 147.66 163.389 147.567 163.715 147.38C164.051 147.193 164.364 146.89 164.653 146.47C164.579 145.593 164.373 144.93 164.037 144.482C163.701 144.034 163.249 143.81 162.679 143.81C162.465 143.81 162.259 143.857 162.063 143.95C161.877 144.043 161.713 144.179 161.573 144.356C161.433 144.524 161.321 144.729 161.237 144.972C161.163 145.215 161.125 145.481 161.125 145.77C161.125 146.358 161.261 146.82 161.531 147.156C161.802 147.492 162.217 147.66 162.777 147.66ZM162.357 152.168C161.881 152.168 161.461 152.079 161.097 151.902C160.743 151.725 160.444 151.501 160.201 151.23L160.845 150.502C161.032 150.717 161.251 150.889 161.503 151.02C161.765 151.151 162.035 151.216 162.315 151.216C162.633 151.216 162.931 151.151 163.211 151.02C163.491 150.889 163.739 150.675 163.953 150.376C164.168 150.068 164.341 149.671 164.471 149.186C164.602 148.701 164.672 148.099 164.681 147.38C164.401 147.735 164.075 148.015 163.701 148.22C163.328 148.425 162.955 148.528 162.581 148.528C161.807 148.528 161.191 148.299 160.733 147.842C160.276 147.385 160.047 146.694 160.047 145.77C160.047 145.341 160.117 144.953 160.257 144.608C160.397 144.253 160.584 143.95 160.817 143.698C161.06 143.446 161.34 143.25 161.657 143.11C161.984 142.97 162.325 142.9 162.679 142.9C163.118 142.9 163.524 142.989 163.897 143.166C164.28 143.343 164.607 143.614 164.877 143.978C165.157 144.333 165.372 144.781 165.521 145.322C165.68 145.854 165.759 146.479 165.759 147.198C165.759 148.094 165.666 148.859 165.479 149.494C165.293 150.119 165.041 150.633 164.723 151.034C164.406 151.426 164.042 151.715 163.631 151.902C163.23 152.079 162.805 152.168 162.357 152.168Z" fill="#98A9BC"/>
<path d="M148.617 108L146.671 98.816H147.875L148.841 103.814C148.925 104.318 149.014 104.813 149.107 105.298C149.2 105.783 149.289 106.278 149.373 106.782H149.429C149.532 106.278 149.639 105.783 149.751 105.298C149.863 104.803 149.97 104.309 150.073 103.814L151.347 98.816H152.411L153.685 103.814C153.797 104.299 153.909 104.789 154.021 105.284C154.133 105.779 154.245 106.278 154.357 106.782H154.413C154.497 106.278 154.581 105.783 154.665 105.298C154.749 104.803 154.838 104.309 154.931 103.814L155.897 98.816H157.017L155.113 108H153.713L152.327 102.47C152.243 102.115 152.164 101.77 152.089 101.434C152.024 101.089 151.954 100.739 151.879 100.384H151.823C151.748 100.739 151.669 101.089 151.585 101.434C151.51 101.77 151.436 102.115 151.361 102.47L150.003 108H148.617ZM161.541 108.168C161.083 108.168 160.654 108.089 160.253 107.93C159.861 107.762 159.515 107.529 159.217 107.23C158.927 106.922 158.699 106.549 158.531 106.11C158.363 105.671 158.279 105.172 158.279 104.612C158.279 104.052 158.363 103.553 158.531 103.114C158.708 102.666 158.937 102.288 159.217 101.98C159.506 101.672 159.833 101.439 160.197 101.28C160.561 101.112 160.939 101.028 161.331 101.028C161.76 101.028 162.143 101.103 162.479 101.252C162.824 101.401 163.109 101.616 163.333 101.896C163.566 102.176 163.743 102.512 163.865 102.904C163.986 103.296 164.047 103.735 164.047 104.22C164.047 104.341 164.042 104.463 164.033 104.584C164.033 104.696 164.023 104.794 164.005 104.878H159.413C159.459 105.606 159.683 106.185 160.085 106.614C160.495 107.034 161.027 107.244 161.681 107.244C162.007 107.244 162.306 107.197 162.577 107.104C162.857 107.001 163.123 106.871 163.375 106.712L163.781 107.468C163.482 107.655 163.151 107.818 162.787 107.958C162.423 108.098 162.007 108.168 161.541 108.168ZM159.399 104.052H163.039C163.039 103.361 162.889 102.839 162.591 102.484C162.301 102.12 161.891 101.938 161.359 101.938C161.116 101.938 160.883 101.985 160.659 102.078C160.444 102.171 160.248 102.311 160.071 102.498C159.893 102.675 159.744 102.895 159.623 103.156C159.511 103.417 159.436 103.716 159.399 104.052ZM168.332 108.168C167.473 108.168 166.787 107.86 166.274 107.244C165.77 106.628 165.518 105.751 165.518 104.612C165.518 104.061 165.597 103.567 165.756 103.128C165.924 102.68 166.143 102.302 166.414 101.994C166.685 101.686 166.997 101.448 167.352 101.28C167.707 101.112 168.08 101.028 168.472 101.028C168.864 101.028 169.205 101.098 169.494 101.238C169.783 101.378 170.077 101.569 170.376 101.812L170.32 100.65V98.032H171.482V108H170.53L170.432 107.202H170.39C170.119 107.463 169.807 107.692 169.452 107.888C169.107 108.075 168.733 108.168 168.332 108.168ZM168.584 107.202C168.901 107.202 169.2 107.127 169.48 106.978C169.76 106.819 170.04 106.581 170.32 106.264V102.708C170.031 102.447 169.751 102.265 169.48 102.162C169.219 102.05 168.948 101.994 168.668 101.994C168.397 101.994 168.141 102.059 167.898 102.19C167.665 102.311 167.459 102.489 167.282 102.722C167.105 102.946 166.965 103.217 166.862 103.534C166.759 103.851 166.708 104.206 166.708 104.598C166.708 105.419 166.871 106.059 167.198 106.516C167.525 106.973 167.987 107.202 168.584 107.202Z" fill="#8181A5"/>
</g>
<g clip-path="url(#clip2_9071_526)">
<rect x="194.5" y="195.5" width="33" height="33" rx="6" fill="#5E81F4"/>
<path d="M205.024 249V248.062C205.64 247.465 206.195 246.914 206.69 246.41C207.194 245.906 207.618 245.439 207.964 245.01C208.318 244.581 208.589 244.179 208.776 243.806C208.962 243.433 209.056 243.078 209.056 242.742C209.056 242.266 208.93 241.893 208.678 241.622C208.426 241.342 208.062 241.202 207.586 241.202C207.24 241.202 206.923 241.3 206.634 241.496C206.354 241.692 206.092 241.925 205.85 242.196L204.954 241.3C205.364 240.861 205.784 240.525 206.214 240.292C206.652 240.049 207.18 239.928 207.796 239.928C208.225 239.928 208.612 239.993 208.958 240.124C209.303 240.255 209.597 240.441 209.84 240.684C210.082 240.917 210.269 241.202 210.4 241.538C210.54 241.874 210.61 242.247 210.61 242.658C210.61 243.05 210.521 243.451 210.344 243.862C210.176 244.263 209.942 244.674 209.644 245.094C209.354 245.505 209.014 245.929 208.622 246.368C208.23 246.807 207.814 247.259 207.376 247.726C207.609 247.707 207.861 247.689 208.132 247.67C208.402 247.642 208.645 247.628 208.86 247.628H211.044V249H205.024ZM215.253 249.168C214.32 249.168 213.583 248.771 213.041 247.978C212.5 247.175 212.229 246.018 212.229 244.506C212.229 242.994 212.5 241.855 213.041 241.09C213.583 240.315 214.32 239.928 215.253 239.928C216.187 239.928 216.924 240.315 217.465 241.09C218.007 241.865 218.277 243.003 218.277 244.506C218.277 246.018 218.007 247.175 217.465 247.978C216.924 248.771 216.187 249.168 215.253 249.168ZM215.253 247.908C215.468 247.908 215.664 247.852 215.841 247.74C216.028 247.619 216.187 247.423 216.317 247.152C216.448 246.881 216.551 246.531 216.625 246.102C216.7 245.673 216.737 245.141 216.737 244.506C216.737 243.881 216.7 243.358 216.625 242.938C216.551 242.509 216.448 242.163 216.317 241.902C216.187 241.641 216.028 241.459 215.841 241.356C215.664 241.244 215.468 241.188 215.253 241.188C215.039 241.188 214.838 241.244 214.651 241.356C214.474 241.459 214.32 241.641 214.189 241.902C214.059 242.163 213.956 242.509 213.881 242.938C213.807 243.358 213.769 243.881 213.769 244.506C213.769 245.141 213.807 245.673 213.881 246.102C213.956 246.531 214.059 246.881 214.189 247.152C214.32 247.423 214.474 247.619 214.651 247.74C214.838 247.852 215.039 247.908 215.253 247.908Z" fill="#1C1D21"/>
<path d="M205.024 282V281.062C205.64 280.465 206.195 279.914 206.69 279.41C207.194 278.906 207.618 278.439 207.964 278.01C208.318 277.581 208.589 277.179 208.776 276.806C208.962 276.433 209.056 276.078 209.056 275.742C209.056 275.266 208.93 274.893 208.678 274.622C208.426 274.342 208.062 274.202 207.586 274.202C207.24 274.202 206.923 274.3 206.634 274.496C206.354 274.692 206.092 274.925 205.85 275.196L204.954 274.3C205.364 273.861 205.784 273.525 206.214 273.292C206.652 273.049 207.18 272.928 207.796 272.928C208.225 272.928 208.612 272.993 208.958 273.124C209.303 273.255 209.597 273.441 209.84 273.684C210.082 273.917 210.269 274.202 210.4 274.538C210.54 274.874 210.61 275.247 210.61 275.658C210.61 276.05 210.521 276.451 210.344 276.862C210.176 277.263 209.942 277.674 209.644 278.094C209.354 278.505 209.014 278.929 208.622 279.368C208.23 279.807 207.814 280.259 207.376 280.726C207.609 280.707 207.861 280.689 208.132 280.67C208.402 280.642 208.645 280.628 208.86 280.628H211.044V282H205.024ZM214.021 282C214.059 281.207 214.129 280.483 214.231 279.83C214.334 279.167 214.479 278.537 214.665 277.94C214.861 277.343 215.109 276.764 215.407 276.204C215.706 275.635 216.07 275.051 216.499 274.454H212.285V273.096H218.263V274.076C217.741 274.72 217.316 275.336 216.989 275.924C216.672 276.503 216.42 277.1 216.233 277.716C216.047 278.323 215.911 278.971 215.827 279.662C215.753 280.353 215.697 281.132 215.659 282H214.021Z" fill="#1C1D21"/>
<path d="M210.992 315.168C210.637 315.168 210.311 315.131 210.012 315.056C209.723 314.991 209.457 314.902 209.214 314.79C208.971 314.669 208.752 314.533 208.556 314.384C208.369 314.235 208.201 314.076 208.052 313.908L208.64 313.152C208.911 313.432 209.223 313.679 209.578 313.894C209.942 314.109 210.39 314.216 210.922 314.216C211.463 314.216 211.907 314.071 212.252 313.782C212.597 313.483 212.77 313.082 212.77 312.578C212.77 312.317 212.719 312.079 212.616 311.864C212.523 311.64 212.364 311.449 212.14 311.29C211.916 311.131 211.622 311.01 211.258 310.926C210.894 310.842 210.446 310.8 209.914 310.8V309.918C210.39 309.918 210.787 309.876 211.104 309.792C211.431 309.708 211.692 309.591 211.888 309.442C212.093 309.293 212.238 309.115 212.322 308.91C212.406 308.705 212.448 308.485 212.448 308.252C212.448 307.813 212.308 307.468 212.028 307.216C211.757 306.964 211.384 306.838 210.908 306.838C210.535 306.838 210.189 306.922 209.872 307.09C209.564 307.258 209.275 307.477 209.004 307.748L208.388 307.02C208.733 306.693 209.111 306.427 209.522 306.222C209.942 306.007 210.418 305.9 210.95 305.9C211.342 305.9 211.701 305.951 212.028 306.054C212.355 306.157 212.635 306.306 212.868 306.502C213.111 306.689 213.297 306.922 213.428 307.202C213.559 307.482 213.624 307.804 213.624 308.168C213.624 308.709 213.475 309.153 213.176 309.498C212.877 309.843 212.485 310.109 212 310.296V310.352C212.271 310.417 212.523 310.515 212.756 310.646C212.989 310.767 213.195 310.926 213.372 311.122C213.549 311.309 213.685 311.528 213.778 311.78C213.881 312.032 213.932 312.312 213.932 312.62C213.932 313.012 213.853 313.367 213.694 313.684C213.545 314.001 213.335 314.272 213.064 314.496C212.803 314.711 212.495 314.879 212.14 315C211.785 315.112 211.403 315.168 210.992 315.168Z" fill="#98A9BC"/>
<path d="M205.026 217V215.684H207.014V209.832H205.376V208.824C205.824 208.74 206.206 208.642 206.524 208.53C206.85 208.409 207.154 208.264 207.434 208.096H208.638V215.684H210.388V217H205.026ZM214.527 217.168C213.799 217.168 213.193 217.047 212.707 216.804C212.222 216.561 211.821 216.263 211.503 215.908L212.273 214.872C212.544 215.143 212.852 215.376 213.197 215.572C213.543 215.759 213.939 215.852 214.387 215.852C214.873 215.852 215.265 215.735 215.563 215.502C215.871 215.259 216.025 214.928 216.025 214.508C216.025 214.275 215.983 214.065 215.899 213.878C215.815 213.691 215.671 213.533 215.465 213.402C215.269 213.271 215.003 213.173 214.667 213.108C214.331 213.033 213.911 212.996 213.407 212.996V211.82C213.846 211.82 214.21 211.787 214.499 211.722C214.798 211.647 215.036 211.549 215.213 211.428C215.4 211.297 215.531 211.143 215.605 210.966C215.689 210.789 215.731 210.597 215.731 210.392C215.731 210.019 215.615 209.729 215.381 209.524C215.148 209.309 214.826 209.202 214.415 209.202C214.061 209.202 213.739 209.281 213.449 209.44C213.169 209.589 212.894 209.79 212.623 210.042L211.797 209.048C212.18 208.712 212.586 208.441 213.015 208.236C213.454 208.031 213.939 207.928 214.471 207.928C214.901 207.928 215.293 207.979 215.647 208.082C216.002 208.185 216.305 208.339 216.557 208.544C216.809 208.74 217.005 208.987 217.145 209.286C217.285 209.575 217.355 209.907 217.355 210.28C217.355 210.784 217.215 211.204 216.935 211.54C216.665 211.876 216.287 212.137 215.801 212.324V212.38C216.333 212.52 216.772 212.777 217.117 213.15C217.472 213.523 217.649 214.004 217.649 214.592C217.649 215.003 217.565 215.367 217.397 215.684C217.239 216.001 217.015 216.272 216.725 216.496C216.445 216.711 216.114 216.879 215.731 217C215.358 217.112 214.957 217.168 214.527 217.168Z" fill="#F5F5FA"/>
<path d="M211.429 184.168C210.99 184.168 210.575 184.084 210.183 183.916C209.791 183.739 209.445 183.473 209.147 183.118C208.857 182.763 208.624 182.311 208.447 181.76C208.279 181.209 208.195 180.561 208.195 179.814C208.195 178.946 208.293 178.204 208.489 177.588C208.685 176.972 208.941 176.468 209.259 176.076C209.585 175.684 209.959 175.395 210.379 175.208C210.799 175.021 211.237 174.928 211.695 174.928C212.236 174.928 212.698 175.026 213.081 175.222C213.473 175.418 213.804 175.656 214.075 175.936L213.207 176.916C213.048 176.72 212.838 176.561 212.577 176.44C212.325 176.309 212.063 176.244 211.793 176.244C211.513 176.244 211.247 176.3 210.995 176.412C210.752 176.524 210.537 176.711 210.351 176.972C210.164 177.224 210.01 177.56 209.889 177.98C209.777 178.4 209.711 178.918 209.693 179.534C209.954 179.207 210.257 178.951 210.603 178.764C210.957 178.577 211.298 178.484 211.625 178.484C212.007 178.484 212.357 178.54 212.675 178.652C213.001 178.764 213.277 178.937 213.501 179.17C213.734 179.394 213.911 179.679 214.033 180.024C214.163 180.369 214.229 180.775 214.229 181.242C214.229 181.69 214.154 182.096 214.005 182.46C213.855 182.815 213.655 183.118 213.403 183.37C213.151 183.622 212.852 183.818 212.507 183.958C212.171 184.098 211.811 184.168 211.429 184.168ZM211.401 182.936C211.774 182.936 212.087 182.791 212.339 182.502C212.6 182.213 212.731 181.793 212.731 181.242C212.731 180.71 212.609 180.313 212.367 180.052C212.124 179.791 211.779 179.66 211.331 179.66C211.079 179.66 210.813 179.739 210.533 179.898C210.253 180.047 209.987 180.309 209.735 180.682C209.819 181.475 210.005 182.049 210.295 182.404C210.593 182.759 210.962 182.936 211.401 182.936Z" fill="#1C1D21"/>
<path d="M207.512 152.168C207.158 152.168 206.831 152.131 206.532 152.056C206.243 151.991 205.977 151.902 205.734 151.79C205.492 151.669 205.272 151.533 205.076 151.384C204.89 151.235 204.722 151.076 204.572 150.908L205.16 150.152C205.431 150.432 205.744 150.679 206.098 150.894C206.462 151.109 206.91 151.216 207.442 151.216C207.984 151.216 208.427 151.071 208.772 150.782C209.118 150.483 209.29 150.082 209.29 149.578C209.29 149.317 209.239 149.079 209.136 148.864C209.043 148.64 208.884 148.449 208.66 148.29C208.436 148.131 208.142 148.01 207.778 147.926C207.414 147.842 206.966 147.8 206.434 147.8V146.918C206.91 146.918 207.307 146.876 207.624 146.792C207.951 146.708 208.212 146.591 208.408 146.442C208.614 146.293 208.758 146.115 208.842 145.91C208.926 145.705 208.968 145.485 208.968 145.252C208.968 144.813 208.828 144.468 208.548 144.216C208.278 143.964 207.904 143.838 207.428 143.838C207.055 143.838 206.71 143.922 206.392 144.09C206.084 144.258 205.795 144.477 205.524 144.748L204.908 144.02C205.254 143.693 205.632 143.427 206.042 143.222C206.462 143.007 206.938 142.9 207.47 142.9C207.862 142.9 208.222 142.951 208.548 143.054C208.875 143.157 209.155 143.306 209.388 143.502C209.631 143.689 209.818 143.922 209.948 144.202C210.079 144.482 210.144 144.804 210.144 145.168C210.144 145.709 209.995 146.153 209.696 146.498C209.398 146.843 209.006 147.109 208.52 147.296V147.352C208.791 147.417 209.043 147.515 209.276 147.646C209.51 147.767 209.715 147.926 209.892 148.122C210.07 148.309 210.205 148.528 210.298 148.78C210.401 149.032 210.452 149.312 210.452 149.62C210.452 150.012 210.373 150.367 210.214 150.684C210.065 151.001 209.855 151.272 209.584 151.496C209.323 151.711 209.015 151.879 208.66 152C208.306 152.112 207.923 152.168 207.512 152.168ZM214.653 152.168C213.748 152.168 213.043 151.767 212.539 150.964C212.035 150.161 211.783 149.009 211.783 147.506C211.783 146.003 212.035 144.86 212.539 144.076C213.043 143.292 213.748 142.9 214.653 142.9C215.549 142.9 216.249 143.292 216.753 144.076C217.257 144.86 217.509 146.003 217.509 147.506C217.509 149.009 217.257 150.161 216.753 150.964C216.249 151.767 215.549 152.168 214.653 152.168ZM214.653 151.244C214.915 151.244 215.148 151.174 215.353 151.034C215.568 150.885 215.75 150.661 215.899 150.362C216.058 150.054 216.179 149.667 216.263 149.2C216.347 148.724 216.389 148.159 216.389 147.506C216.389 146.853 216.347 146.293 216.263 145.826C216.179 145.359 216.058 144.981 215.899 144.692C215.75 144.393 215.568 144.174 215.353 144.034C215.148 143.894 214.915 143.824 214.653 143.824C214.392 143.824 214.154 143.894 213.939 144.034C213.725 144.174 213.538 144.393 213.379 144.692C213.23 144.981 213.113 145.359 213.029 145.826C212.945 146.293 212.903 146.853 212.903 147.506C212.903 148.813 213.062 149.765 213.379 150.362C213.706 150.95 214.131 151.244 214.653 151.244Z" fill="#98A9BC"/>
<path d="M203.185 108V99.796H200.413V98.816H207.133V99.796H204.361V108H203.185ZM208.955 108V98.032H210.103V100.748L210.061 102.148C210.388 101.84 210.728 101.579 211.083 101.364C211.438 101.14 211.853 101.028 212.329 101.028C213.048 101.028 213.57 101.252 213.897 101.7C214.233 102.148 214.401 102.811 214.401 103.688V108H213.253V103.842C213.253 103.198 213.15 102.736 212.945 102.456C212.74 102.167 212.413 102.022 211.965 102.022C211.61 102.022 211.298 102.111 211.027 102.288C210.756 102.465 210.448 102.727 210.103 103.072V108H208.955ZM218.838 108.168C218.11 108.168 217.578 107.944 217.242 107.496C216.916 107.048 216.752 106.385 216.752 105.508V101.196H217.914V105.354C217.914 105.998 218.012 106.465 218.208 106.754C218.414 107.034 218.74 107.174 219.188 107.174C219.543 107.174 219.856 107.085 220.126 106.908C220.397 106.721 220.696 106.427 221.022 106.026V101.196H222.17V108H221.218L221.12 106.936H221.078C220.761 107.309 220.425 107.608 220.07 107.832C219.725 108.056 219.314 108.168 218.838 108.168Z" fill="#8181A5"/>
</g>
<path d="M250.683 249V248.062C251.299 247.465 251.855 246.914 252.349 246.41C252.853 245.906 253.278 245.439 253.623 245.01C253.978 244.581 254.249 244.179 254.435 243.806C254.622 243.433 254.715 243.078 254.715 242.742C254.715 242.266 254.589 241.893 254.337 241.622C254.085 241.342 253.721 241.202 253.245 241.202C252.9 241.202 252.583 241.3 252.293 241.496C252.013 241.692 251.752 241.925 251.509 242.196L250.613 241.3C251.024 240.861 251.444 240.525 251.873 240.292C252.312 240.049 252.839 239.928 253.455 239.928C253.885 239.928 254.272 239.993 254.617 240.124C254.963 240.255 255.257 240.441 255.499 240.684C255.742 240.917 255.929 241.202 256.059 241.538C256.199 241.874 256.269 242.247 256.269 242.658C256.269 243.05 256.181 243.451 256.003 243.862C255.835 244.263 255.602 244.674 255.303 245.094C255.014 245.505 254.673 245.929 254.281 246.368C253.889 246.807 253.474 247.259 253.035 247.726C253.269 247.707 253.521 247.689 253.791 247.67C254.062 247.642 254.305 247.628 254.519 247.628H256.703V249H250.683ZM258.365 249V247.684H260.353V241.832H258.715V240.824C259.163 240.74 259.546 240.642 259.863 240.53C260.19 240.409 260.493 240.264 260.773 240.096H261.977V247.684H263.727V249H258.365Z" fill="#1C1D21"/>
<path d="M250.182 282V281.062C250.798 280.465 251.353 279.914 251.848 279.41C252.352 278.906 252.777 278.439 253.122 278.01C253.477 277.581 253.747 277.179 253.934 276.806C254.121 276.433 254.214 276.078 254.214 275.742C254.214 275.266 254.088 274.893 253.836 274.622C253.584 274.342 253.22 274.202 252.744 274.202C252.399 274.202 252.081 274.3 251.792 274.496C251.512 274.692 251.251 274.925 251.008 275.196L250.112 274.3C250.523 273.861 250.943 273.525 251.372 273.292C251.811 273.049 252.338 272.928 252.954 272.928C253.383 272.928 253.771 272.993 254.116 273.124C254.461 273.255 254.755 273.441 254.998 273.684C255.241 273.917 255.427 274.202 255.558 274.538C255.698 274.874 255.768 275.247 255.768 275.658C255.768 276.05 255.679 276.451 255.502 276.862C255.334 277.263 255.101 277.674 254.802 278.094C254.513 278.505 254.172 278.929 253.78 279.368C253.388 279.807 252.973 280.259 252.534 280.726C252.767 280.707 253.019 280.689 253.29 280.67C253.561 280.642 253.803 280.628 254.018 280.628H256.202V282H250.182ZM260.426 282.168C259.987 282.168 259.581 282.107 259.208 281.986C258.844 281.865 258.526 281.697 258.256 281.482C257.994 281.267 257.784 281.011 257.626 280.712C257.476 280.413 257.402 280.082 257.402 279.718C257.402 279.438 257.444 279.186 257.528 278.962C257.621 278.729 257.742 278.519 257.892 278.332C258.041 278.145 258.209 277.977 258.396 277.828C258.592 277.679 258.797 277.548 259.012 277.436V277.38C258.666 277.137 258.372 276.848 258.13 276.512C257.896 276.176 257.78 275.77 257.78 275.294C257.78 274.93 257.845 274.603 257.976 274.314C258.116 274.025 258.302 273.777 258.536 273.572C258.778 273.367 259.063 273.208 259.39 273.096C259.726 272.984 260.085 272.928 260.468 272.928C260.869 272.928 261.228 272.989 261.546 273.11C261.872 273.222 262.148 273.385 262.372 273.6C262.605 273.805 262.782 274.057 262.904 274.356C263.025 274.645 263.086 274.972 263.086 275.336C263.086 275.56 263.048 275.775 262.974 275.98C262.908 276.176 262.82 276.363 262.708 276.54C262.596 276.708 262.465 276.867 262.316 277.016C262.176 277.156 262.036 277.277 261.896 277.38V277.436C262.101 277.548 262.297 277.679 262.484 277.828C262.67 277.968 262.834 278.131 262.974 278.318C263.114 278.505 263.226 278.715 263.31 278.948C263.394 279.181 263.436 279.447 263.436 279.746C263.436 280.091 263.361 280.413 263.212 280.712C263.072 281.001 262.871 281.258 262.61 281.482C262.348 281.697 262.031 281.865 261.658 281.986C261.284 282.107 260.874 282.168 260.426 282.168ZM261.014 276.974C261.256 276.731 261.438 276.484 261.56 276.232C261.69 275.98 261.756 275.714 261.756 275.434C261.756 275.042 261.639 274.72 261.406 274.468C261.182 274.207 260.86 274.076 260.44 274.076C260.094 274.076 259.805 274.183 259.572 274.398C259.338 274.603 259.222 274.902 259.222 275.294C259.222 275.518 259.268 275.714 259.362 275.882C259.455 276.05 259.581 276.199 259.74 276.33C259.908 276.451 260.099 276.568 260.314 276.68C260.528 276.783 260.762 276.881 261.014 276.974ZM260.454 281.02C260.883 281.02 261.233 280.903 261.504 280.67C261.784 280.437 261.924 280.11 261.924 279.69C261.924 279.447 261.868 279.242 261.756 279.074C261.644 278.897 261.49 278.743 261.294 278.612C261.107 278.472 260.883 278.346 260.622 278.234C260.36 278.122 260.08 278.005 259.782 277.884C259.502 278.089 259.268 278.332 259.082 278.612C258.904 278.892 258.816 279.205 258.816 279.55C258.816 279.998 258.974 280.357 259.292 280.628C259.609 280.889 259.996 281.02 260.454 281.02Z" fill="#1C1D21"/>
<path d="M258.106 315V312.536H254.088V311.78L257.91 306.068H259.198V311.612H260.416V312.536H259.198V315H258.106ZM255.306 311.612H258.106V309.022C258.106 308.779 258.11 308.495 258.12 308.168C258.138 307.832 258.157 307.543 258.176 307.3H258.12C258.008 307.515 257.891 307.725 257.77 307.93C257.648 308.135 257.522 308.345 257.392 308.56L255.306 311.612Z" fill="#98A9BC"/>
<path d="M251.187 217V215.684H253.175V209.832H251.537V208.824C251.985 208.74 252.368 208.642 252.685 208.53C253.012 208.409 253.315 208.264 253.595 208.096H254.799V215.684H256.549V217H251.187ZM261.515 217V214.704H257.581V213.612L261.109 208.096H263.027V213.458H264.147V214.704H263.027V217H261.515ZM259.177 213.458H261.515V211.442C261.515 211.181 261.52 210.873 261.529 210.518C261.548 210.163 261.566 209.855 261.585 209.594H261.529C261.417 209.827 261.3 210.056 261.179 210.28C261.058 210.504 260.932 210.737 260.801 210.98L259.177 213.458Z" fill="#5E81F4"/>
<path d="M255.591 184C255.628 183.207 255.698 182.483 255.801 181.83C255.903 181.167 256.048 180.537 256.235 179.94C256.431 179.343 256.678 178.764 256.977 178.204C257.275 177.635 257.639 177.051 258.069 176.454H253.855V175.096H259.833V176.076C259.31 176.72 258.885 177.336 258.559 177.924C258.241 178.503 257.989 179.1 257.803 179.716C257.616 180.323 257.481 180.971 257.397 181.662C257.322 182.353 257.266 183.132 257.229 184H255.591Z" fill="#1C1D21"/>
<path d="M253.173 152.168C252.818 152.168 252.491 152.131 252.193 152.056C251.903 151.991 251.637 151.902 251.395 151.79C251.152 151.669 250.933 151.533 250.737 151.384C250.55 151.235 250.382 151.076 250.233 150.908L250.821 150.152C251.091 150.432 251.404 150.679 251.759 150.894C252.123 151.109 252.571 151.216 253.103 151.216C253.644 151.216 254.087 151.071 254.433 150.782C254.778 150.483 254.951 150.082 254.951 149.578C254.951 149.317 254.899 149.079 254.797 148.864C254.703 148.64 254.545 148.449 254.321 148.29C254.097 148.131 253.803 148.01 253.439 147.926C253.075 147.842 252.627 147.8 252.095 147.8V146.918C252.571 146.918 252.967 146.876 253.285 146.792C253.611 146.708 253.873 146.591 254.069 146.442C254.274 146.293 254.419 146.115 254.503 145.91C254.587 145.705 254.629 145.485 254.629 145.252C254.629 144.813 254.489 144.468 254.209 144.216C253.938 143.964 253.565 143.838 253.089 143.838C252.715 143.838 252.37 143.922 252.053 144.09C251.745 144.258 251.455 144.477 251.185 144.748L250.569 144.02C250.914 143.693 251.292 143.427 251.703 143.222C252.123 143.007 252.599 142.9 253.131 142.9C253.523 142.9 253.882 142.951 254.209 143.054C254.535 143.157 254.815 143.306 255.049 143.502C255.291 143.689 255.478 143.922 255.609 144.202C255.739 144.482 255.805 144.804 255.805 145.168C255.805 145.709 255.655 146.153 255.357 146.498C255.058 146.843 254.666 147.109 254.181 147.296V147.352C254.451 147.417 254.703 147.515 254.937 147.646C255.17 147.767 255.375 147.926 255.553 148.122C255.73 148.309 255.865 148.528 255.959 148.78C256.061 149.032 256.113 149.312 256.113 149.62C256.113 150.012 256.033 150.367 255.875 150.684C255.725 151.001 255.515 151.272 255.245 151.496C254.983 151.711 254.675 151.879 254.321 152C253.966 152.112 253.583 152.168 253.173 152.168ZM257.934 152V151.048H259.978V144.468H258.354V143.726C258.764 143.651 259.119 143.563 259.418 143.46C259.726 143.348 260.001 143.217 260.244 143.068H261.126V151.048H262.974V152H257.934Z" fill="#98A9BC"/>
<path d="M250.336 108V98.816H255.628V99.796H251.498V102.904H254.998V103.884H251.498V108H250.336ZM257.148 108V101.196H258.1L258.198 102.428H258.24C258.474 101.999 258.754 101.658 259.08 101.406C259.416 101.154 259.78 101.028 260.172 101.028C260.443 101.028 260.686 101.075 260.9 101.168L260.676 102.176C260.564 102.139 260.462 102.111 260.368 102.092C260.275 102.073 260.158 102.064 260.018 102.064C259.729 102.064 259.426 102.181 259.108 102.414C258.8 102.647 258.53 103.053 258.296 103.632V108H257.148ZM262.282 108V101.196H263.43V108H262.282ZM262.87 99.796C262.646 99.796 262.455 99.726 262.296 99.586C262.147 99.446 262.072 99.2687 262.072 99.054C262.072 98.83 262.147 98.6527 262.296 98.522C262.455 98.382 262.646 98.312 262.87 98.312C263.094 98.312 263.281 98.382 263.43 98.522C263.589 98.6527 263.668 98.83 263.668 99.054C263.668 99.2687 263.589 99.446 263.43 99.586C263.281 99.726 263.094 99.796 262.87 99.796Z" fill="#8181A5"/>
<g clip-path="url(#clip3_9071_526)">
<path d="M294.838 249V248.062C295.454 247.465 296.009 246.914 296.504 246.41C297.008 245.906 297.432 245.439 297.778 245.01C298.132 244.581 298.403 244.179 298.59 243.806C298.776 243.433 298.87 243.078 298.87 242.742C298.87 242.266 298.744 241.893 298.492 241.622C298.24 241.342 297.876 241.202 297.4 241.202C297.054 241.202 296.737 241.3 296.448 241.496C296.168 241.692 295.906 241.925 295.664 242.196L294.768 241.3C295.178 240.861 295.598 240.525 296.028 240.292C296.466 240.049 296.994 239.928 297.61 239.928C298.039 239.928 298.426 239.993 298.772 240.124C299.117 240.255 299.411 240.441 299.654 240.684C299.896 240.917 300.083 241.202 300.214 241.538C300.354 241.874 300.424 242.247 300.424 242.658C300.424 243.05 300.335 243.451 300.158 243.862C299.99 244.263 299.756 244.674 299.458 245.094C299.168 245.505 298.828 245.929 298.436 246.368C298.044 246.807 297.628 247.259 297.19 247.726C297.423 247.707 297.675 247.689 297.946 247.67C298.216 247.642 298.459 247.628 298.674 247.628H300.858V249H294.838ZM302.015 249V248.062C302.631 247.465 303.187 246.914 303.681 246.41C304.185 245.906 304.61 245.439 304.955 245.01C305.31 244.581 305.581 244.179 305.767 243.806C305.954 243.433 306.047 243.078 306.047 242.742C306.047 242.266 305.921 241.893 305.669 241.622C305.417 241.342 305.053 241.202 304.577 241.202C304.232 241.202 303.915 241.3 303.625 241.496C303.345 241.692 303.084 241.925 302.841 242.196L301.945 241.3C302.356 240.861 302.776 240.525 303.205 240.292C303.644 240.049 304.171 239.928 304.787 239.928C305.217 239.928 305.604 239.993 305.949 240.124C306.295 240.255 306.589 240.441 306.831 240.684C307.074 240.917 307.261 241.202 307.391 241.538C307.531 241.874 307.601 242.247 307.601 242.658C307.601 243.05 307.513 243.451 307.335 243.862C307.167 244.263 306.934 244.674 306.635 245.094C306.346 245.505 306.005 245.929 305.613 246.368C305.221 246.807 304.806 247.259 304.367 247.726C304.601 247.707 304.853 247.689 305.123 247.67C305.394 247.642 305.637 247.628 305.851 247.628H308.035V249H302.015Z" fill="#1C1D21"/>
<path d="M294.838 282V281.062C295.454 280.465 296.009 279.914 296.504 279.41C297.008 278.906 297.432 278.439 297.778 278.01C298.132 277.581 298.403 277.179 298.59 276.806C298.776 276.433 298.87 276.078 298.87 275.742C298.87 275.266 298.744 274.893 298.492 274.622C298.24 274.342 297.876 274.202 297.4 274.202C297.054 274.202 296.737 274.3 296.448 274.496C296.168 274.692 295.906 274.925 295.664 275.196L294.768 274.3C295.178 273.861 295.598 273.525 296.028 273.292C296.466 273.049 296.994 272.928 297.61 272.928C298.039 272.928 298.426 272.993 298.772 273.124C299.117 273.255 299.411 273.441 299.654 273.684C299.896 273.917 300.083 274.202 300.214 274.538C300.354 274.874 300.424 275.247 300.424 275.658C300.424 276.05 300.335 276.451 300.158 276.862C299.99 277.263 299.756 277.674 299.458 278.094C299.168 278.505 298.828 278.929 298.436 279.368C298.044 279.807 297.628 280.259 297.19 280.726C297.423 280.707 297.675 280.689 297.946 280.67C298.216 280.642 298.459 280.628 298.674 280.628H300.858V282H294.838ZM304.899 277.436C305.161 277.436 305.431 277.357 305.711 277.198C306.001 277.03 306.262 276.764 306.495 276.4C306.411 275.616 306.215 275.047 305.907 274.692C305.609 274.337 305.245 274.16 304.815 274.16C304.451 274.16 304.139 274.305 303.877 274.594C303.616 274.883 303.485 275.299 303.485 275.84C303.485 276.372 303.607 276.773 303.849 277.044C304.101 277.305 304.451 277.436 304.899 277.436ZM304.521 282.168C303.989 282.168 303.527 282.07 303.135 281.874C302.743 281.678 302.412 281.44 302.141 281.16L303.009 280.18C303.177 280.376 303.387 280.539 303.639 280.67C303.901 280.791 304.167 280.852 304.437 280.852C304.717 280.852 304.979 280.796 305.221 280.684C305.473 280.572 305.693 280.39 305.879 280.138C306.066 279.877 306.215 279.536 306.327 279.116C306.449 278.696 306.519 278.178 306.537 277.562C306.276 277.889 305.968 278.145 305.613 278.332C305.259 278.509 304.918 278.598 304.591 278.598C304.209 278.598 303.859 278.542 303.541 278.43C303.224 278.318 302.949 278.15 302.715 277.926C302.491 277.693 302.314 277.403 302.183 277.058C302.062 276.713 302.001 276.307 302.001 275.84C302.001 275.392 302.076 274.991 302.225 274.636C302.375 274.272 302.575 273.964 302.827 273.712C303.079 273.46 303.373 273.269 303.709 273.138C304.055 272.998 304.419 272.928 304.801 272.928C305.231 272.928 305.641 273.017 306.033 273.194C306.425 273.362 306.766 273.623 307.055 273.978C307.354 274.333 307.587 274.785 307.755 275.336C307.933 275.877 308.021 276.521 308.021 277.268C308.021 278.136 307.923 278.878 307.727 279.494C307.541 280.11 307.284 280.619 306.957 281.02C306.64 281.412 306.267 281.701 305.837 281.888C305.417 282.075 304.979 282.168 304.521 282.168Z" fill="#1C1D21"/>
<path d="M301.28 315.168C300.925 315.168 300.599 315.131 300.3 315.056C300.011 314.991 299.745 314.902 299.502 314.79C299.269 314.678 299.054 314.552 298.858 314.412C298.671 314.263 298.503 314.109 298.354 313.95L298.914 313.194C299.175 313.465 299.483 313.703 299.838 313.908C300.202 314.113 300.645 314.216 301.168 314.216C301.439 314.216 301.691 314.169 301.924 314.076C302.167 313.973 302.377 313.833 302.554 313.656C302.731 313.479 302.871 313.264 302.974 313.012C303.077 312.76 303.128 312.48 303.128 312.172C303.128 311.556 302.955 311.075 302.61 310.73C302.265 310.385 301.803 310.212 301.224 310.212C300.916 310.212 300.65 310.259 300.426 310.352C300.211 310.445 299.969 310.581 299.698 310.758L299.082 310.366L299.376 306.068H303.842V307.062H300.384L300.146 309.708C300.361 309.596 300.575 309.507 300.79 309.442C301.005 309.377 301.247 309.344 301.518 309.344C301.901 309.344 302.26 309.4 302.596 309.512C302.932 309.624 303.226 309.797 303.478 310.03C303.73 310.254 303.926 310.543 304.066 310.898C304.215 311.243 304.29 311.659 304.29 312.144C304.29 312.629 304.206 313.059 304.038 313.432C303.87 313.805 303.646 314.123 303.366 314.384C303.086 314.636 302.764 314.832 302.4 314.972C302.045 315.103 301.672 315.168 301.28 315.168Z" fill="#98A9BC"/>
<path d="M295.342 217V215.684H297.33V209.832H295.692V208.824C296.14 208.74 296.522 208.642 296.84 208.53C297.166 208.409 297.47 208.264 297.75 208.096H298.954V215.684H300.704V217H295.342ZM304.857 217.168C304.139 217.168 303.532 217.047 303.037 216.804C302.552 216.552 302.146 216.263 301.819 215.936L302.561 214.9C302.832 215.152 303.135 215.376 303.471 215.572C303.807 215.759 304.199 215.852 304.647 215.852C305.151 215.852 305.562 215.703 305.879 215.404C306.206 215.105 306.369 214.685 306.369 214.144C306.369 213.612 306.22 213.201 305.921 212.912C305.623 212.623 305.226 212.478 304.731 212.478C304.442 212.478 304.199 212.52 304.003 212.604C303.807 212.679 303.574 212.805 303.303 212.982L302.533 212.492L302.799 208.096H307.559V209.454H304.199L304.017 211.61C304.204 211.517 304.386 211.447 304.563 211.4C304.75 211.344 304.96 211.316 305.193 211.316C305.576 211.316 305.935 211.372 306.271 211.484C306.617 211.596 306.915 211.769 307.167 212.002C307.419 212.226 307.62 212.515 307.769 212.87C307.919 213.215 307.993 213.626 307.993 214.102C307.993 214.587 307.905 215.021 307.727 215.404C307.559 215.787 307.331 216.109 307.041 216.37C306.752 216.631 306.416 216.832 306.033 216.972C305.66 217.103 305.268 217.168 304.857 217.168Z" fill="#5E81F4"/>
<path d="M301.493 184.168C301.054 184.168 300.648 184.107 300.275 183.986C299.911 183.865 299.593 183.697 299.323 183.482C299.061 183.267 298.851 183.011 298.693 182.712C298.543 182.413 298.469 182.082 298.469 181.718C298.469 181.438 298.511 181.186 298.595 180.962C298.688 180.729 298.809 180.519 298.959 180.332C299.108 180.145 299.276 179.977 299.463 179.828C299.659 179.679 299.864 179.548 300.079 179.436V179.38C299.733 179.137 299.439 178.848 299.197 178.512C298.963 178.176 298.847 177.77 298.847 177.294C298.847 176.93 298.912 176.603 299.043 176.314C299.183 176.025 299.369 175.777 299.603 175.572C299.845 175.367 300.13 175.208 300.457 175.096C300.793 174.984 301.152 174.928 301.535 174.928C301.936 174.928 302.295 174.989 302.613 175.11C302.939 175.222 303.215 175.385 303.439 175.6C303.672 175.805 303.849 176.057 303.971 176.356C304.092 176.645 304.153 176.972 304.153 177.336C304.153 177.56 304.115 177.775 304.041 177.98C303.975 178.176 303.887 178.363 303.775 178.54C303.663 178.708 303.532 178.867 303.383 179.016C303.243 179.156 303.103 179.277 302.963 179.38V179.436C303.168 179.548 303.364 179.679 303.551 179.828C303.737 179.968 303.901 180.131 304.041 180.318C304.181 180.505 304.293 180.715 304.377 180.948C304.461 181.181 304.503 181.447 304.503 181.746C304.503 182.091 304.428 182.413 304.279 182.712C304.139 183.001 303.938 183.258 303.677 183.482C303.415 183.697 303.098 183.865 302.725 183.986C302.351 184.107 301.941 184.168 301.493 184.168ZM302.081 178.974C302.323 178.731 302.505 178.484 302.627 178.232C302.757 177.98 302.823 177.714 302.823 177.434C302.823 177.042 302.706 176.72 302.473 176.468C302.249 176.207 301.927 176.076 301.507 176.076C301.161 176.076 300.872 176.183 300.639 176.398C300.405 176.603 300.289 176.902 300.289 177.294C300.289 177.518 300.335 177.714 300.429 177.882C300.522 178.05 300.648 178.199 300.807 178.33C300.975 178.451 301.166 178.568 301.381 178.68C301.595 178.783 301.829 178.881 302.081 178.974ZM301.521 183.02C301.95 183.02 302.3 182.903 302.571 182.67C302.851 182.437 302.991 182.11 302.991 181.69C302.991 181.447 302.935 181.242 302.823 181.074C302.711 180.897 302.557 180.743 302.361 180.612C302.174 180.472 301.95 180.346 301.689 180.234C301.427 180.122 301.147 180.005 300.849 179.884C300.569 180.089 300.335 180.332 300.149 180.612C299.971 180.892 299.883 181.205 299.883 181.55C299.883 181.998 300.041 182.357 300.359 182.628C300.676 182.889 301.063 183.02 301.521 183.02Z" fill="#1C1D21"/>
<path d="M299.432 152V150.684H301.42V144.832H299.782V143.824C300.23 143.74 300.613 143.642 300.93 143.53C301.257 143.409 301.56 143.264 301.84 143.096H303.044V150.684H304.794V152H299.432Z" fill="#1C1D21"/>
<path d="M295.475 108.168C294.831 108.168 294.234 108.047 293.683 107.804C293.133 107.561 292.657 107.23 292.255 106.81L292.955 105.998C293.282 106.343 293.665 106.623 294.103 106.838C294.551 107.043 295.013 107.146 295.489 107.146C296.096 107.146 296.567 107.011 296.903 106.74C297.239 106.46 297.407 106.096 297.407 105.648C297.407 105.415 297.365 105.219 297.281 105.06C297.207 104.892 297.099 104.752 296.959 104.64C296.829 104.519 296.67 104.411 296.483 104.318C296.297 104.225 296.096 104.127 295.881 104.024L294.565 103.45C294.351 103.357 294.131 103.245 293.907 103.114C293.683 102.983 293.483 102.825 293.305 102.638C293.128 102.451 292.983 102.232 292.871 101.98C292.759 101.719 292.703 101.42 292.703 101.084C292.703 100.739 292.773 100.417 292.913 100.118C293.063 99.8193 293.263 99.5627 293.515 99.348C293.777 99.124 294.08 98.9513 294.425 98.83C294.78 98.7087 295.167 98.648 295.587 98.648C296.138 98.648 296.647 98.7553 297.113 98.97C297.58 99.1753 297.977 99.446 298.303 99.782L297.673 100.538C297.393 100.267 297.081 100.057 296.735 99.908C296.399 99.7493 296.017 99.67 295.587 99.67C295.074 99.67 294.659 99.7913 294.341 100.034C294.033 100.267 293.879 100.594 293.879 101.014C293.879 101.238 293.921 101.429 294.005 101.588C294.099 101.737 294.22 101.873 294.369 101.994C294.519 102.106 294.682 102.209 294.859 102.302C295.037 102.386 295.219 102.465 295.405 102.54L296.707 103.1C296.969 103.212 297.216 103.343 297.449 103.492C297.683 103.632 297.883 103.8 298.051 103.996C298.219 104.183 298.35 104.407 298.443 104.668C298.546 104.92 298.597 105.214 298.597 105.55C298.597 105.914 298.523 106.255 298.373 106.572C298.233 106.889 298.028 107.169 297.757 107.412C297.487 107.645 297.16 107.832 296.777 107.972C296.395 108.103 295.961 108.168 295.475 108.168ZM302.142 108.168C301.572 108.168 301.096 108 300.714 107.664C300.34 107.328 300.154 106.852 300.154 106.236C300.154 105.489 300.485 104.92 301.148 104.528C301.81 104.127 302.87 103.847 304.326 103.688C304.326 103.473 304.302 103.263 304.256 103.058C304.218 102.853 304.148 102.671 304.046 102.512C303.943 102.353 303.798 102.227 303.612 102.134C303.434 102.031 303.206 101.98 302.926 101.98C302.534 101.98 302.165 102.055 301.82 102.204C301.474 102.353 301.166 102.521 300.896 102.708L300.448 101.91C300.765 101.705 301.152 101.509 301.61 101.322C302.067 101.126 302.571 101.028 303.122 101.028C303.952 101.028 304.554 101.285 304.928 101.798C305.301 102.302 305.488 102.979 305.488 103.828V108H304.536L304.438 107.188H304.396C304.069 107.459 303.719 107.692 303.346 107.888C302.972 108.075 302.571 108.168 302.142 108.168ZM302.478 107.244C302.804 107.244 303.112 107.169 303.402 107.02C303.691 106.861 303.999 106.633 304.326 106.334V104.444C303.756 104.519 303.276 104.607 302.884 104.71C302.501 104.813 302.188 104.934 301.946 105.074C301.712 105.214 301.54 105.377 301.428 105.564C301.325 105.741 301.274 105.937 301.274 106.152C301.274 106.544 301.39 106.824 301.624 106.992C301.857 107.16 302.142 107.244 302.478 107.244ZM309.859 108.168C309.495 108.168 309.187 108.112 308.935 108C308.692 107.888 308.492 107.734 308.333 107.538C308.184 107.342 308.076 107.104 308.011 106.824C307.946 106.544 307.913 106.236 307.913 105.9V102.134H306.905V101.266L307.969 101.196L308.109 99.292H309.075V101.196H310.909V102.134H309.075V105.914C309.075 106.334 309.15 106.661 309.299 106.894C309.458 107.118 309.733 107.23 310.125 107.23C310.246 107.23 310.377 107.211 310.517 107.174C310.657 107.137 310.783 107.095 310.895 107.048L311.119 107.916C310.932 107.981 310.727 108.037 310.503 108.084C310.288 108.14 310.074 108.168 309.859 108.168Z" fill="#8181A5"/>
</g>
<path d="M344.01 249V248.062C344.626 247.465 345.181 246.914 345.676 246.41C346.18 245.906 346.604 245.439 346.95 245.01C347.304 244.581 347.575 244.179 347.762 243.806C347.948 243.433 348.042 243.078 348.042 242.742C348.042 242.266 347.916 241.893 347.664 241.622C347.412 241.342 347.048 241.202 346.572 241.202C346.226 241.202 345.909 241.3 345.62 241.496C345.34 241.692 345.078 241.925 344.836 242.196L343.94 241.3C344.35 240.861 344.77 240.525 345.2 240.292C345.638 240.049 346.166 239.928 346.782 239.928C347.211 239.928 347.598 239.993 347.944 240.124C348.289 240.255 348.583 240.441 348.826 240.684C349.068 240.917 349.255 241.202 349.386 241.538C349.526 241.874 349.596 242.247 349.596 242.658C349.596 243.05 349.507 243.451 349.33 243.862C349.162 244.263 348.928 244.674 348.63 245.094C348.34 245.505 348 245.929 347.608 246.368C347.216 246.807 346.8 247.259 346.362 247.726C346.595 247.707 346.847 247.689 347.118 247.67C347.388 247.642 347.631 247.628 347.846 247.628H350.03V249H344.01ZM354.015 249.168C353.287 249.168 352.681 249.047 352.195 248.804C351.71 248.561 351.309 248.263 350.991 247.908L351.761 246.872C352.032 247.143 352.34 247.376 352.685 247.572C353.031 247.759 353.427 247.852 353.875 247.852C354.361 247.852 354.753 247.735 355.051 247.502C355.359 247.259 355.513 246.928 355.513 246.508C355.513 246.275 355.471 246.065 355.387 245.878C355.303 245.691 355.159 245.533 354.953 245.402C354.757 245.271 354.491 245.173 354.155 245.108C353.819 245.033 353.399 244.996 352.895 244.996V243.82C353.334 243.82 353.698 243.787 353.987 243.722C354.286 243.647 354.524 243.549 354.701 243.428C354.888 243.297 355.019 243.143 355.093 242.966C355.177 242.789 355.219 242.597 355.219 242.392C355.219 242.019 355.103 241.729 354.869 241.524C354.636 241.309 354.314 241.202 353.903 241.202C353.549 241.202 353.227 241.281 352.937 241.44C352.657 241.589 352.382 241.79 352.111 242.042L351.285 241.048C351.668 240.712 352.074 240.441 352.503 240.236C352.942 240.031 353.427 239.928 353.959 239.928C354.389 239.928 354.781 239.979 355.135 240.082C355.49 240.185 355.793 240.339 356.045 240.544C356.297 240.74 356.493 240.987 356.633 241.286C356.773 241.575 356.843 241.907 356.843 242.28C356.843 242.784 356.703 243.204 356.423 243.54C356.153 243.876 355.775 244.137 355.289 244.324V244.38C355.821 244.52 356.26 244.777 356.605 245.15C356.96 245.523 357.137 246.004 357.137 246.592C357.137 247.003 357.053 247.367 356.885 247.684C356.727 248.001 356.503 248.272 356.213 248.496C355.933 248.711 355.602 248.879 355.219 249C354.846 249.112 354.445 249.168 354.015 249.168Z" fill="#1C1D21"/>
<path d="M347.339 282.168C346.611 282.168 346.005 282.047 345.519 281.804C345.034 281.561 344.633 281.263 344.315 280.908L345.085 279.872C345.356 280.143 345.664 280.376 346.009 280.572C346.355 280.759 346.751 280.852 347.199 280.852C347.685 280.852 348.077 280.735 348.375 280.502C348.683 280.259 348.837 279.928 348.837 279.508C348.837 279.275 348.795 279.065 348.711 278.878C348.627 278.691 348.483 278.533 348.277 278.402C348.081 278.271 347.815 278.173 347.479 278.108C347.143 278.033 346.723 277.996 346.219 277.996V276.82C346.658 276.82 347.022 276.787 347.311 276.722C347.61 276.647 347.848 276.549 348.025 276.428C348.212 276.297 348.343 276.143 348.417 275.966C348.501 275.789 348.543 275.597 348.543 275.392C348.543 275.019 348.427 274.729 348.193 274.524C347.96 274.309 347.638 274.202 347.227 274.202C346.873 274.202 346.551 274.281 346.261 274.44C345.981 274.589 345.706 274.79 345.435 275.042L344.609 274.048C344.992 273.712 345.398 273.441 345.827 273.236C346.266 273.031 346.751 272.928 347.283 272.928C347.713 272.928 348.105 272.979 348.459 273.082C348.814 273.185 349.117 273.339 349.369 273.544C349.621 273.74 349.817 273.987 349.957 274.286C350.097 274.575 350.167 274.907 350.167 275.28C350.167 275.784 350.027 276.204 349.747 276.54C349.477 276.876 349.099 277.137 348.613 277.324V277.38C349.145 277.52 349.584 277.777 349.929 278.15C350.284 278.523 350.461 279.004 350.461 279.592C350.461 280.003 350.377 280.367 350.209 280.684C350.051 281.001 349.827 281.272 349.537 281.496C349.257 281.711 348.926 281.879 348.543 282C348.17 282.112 347.769 282.168 347.339 282.168ZM354.741 282.168C353.808 282.168 353.071 281.771 352.529 280.978C351.988 280.175 351.717 279.018 351.717 277.506C351.717 275.994 351.988 274.855 352.529 274.09C353.071 273.315 353.808 272.928 354.741 272.928C355.675 272.928 356.412 273.315 356.953 274.09C357.495 274.865 357.765 276.003 357.765 277.506C357.765 279.018 357.495 280.175 356.953 280.978C356.412 281.771 355.675 282.168 354.741 282.168ZM354.741 280.908C354.956 280.908 355.152 280.852 355.329 280.74C355.516 280.619 355.675 280.423 355.805 280.152C355.936 279.881 356.039 279.531 356.113 279.102C356.188 278.673 356.225 278.141 356.225 277.506C356.225 276.881 356.188 276.358 356.113 275.938C356.039 275.509 355.936 275.163 355.805 274.902C355.675 274.641 355.516 274.459 355.329 274.356C355.152 274.244 354.956 274.188 354.741 274.188C354.527 274.188 354.326 274.244 354.139 274.356C353.962 274.459 353.808 274.641 353.677 274.902C353.547 275.163 353.444 275.509 353.369 275.938C353.295 276.358 353.257 276.881 353.257 277.506C353.257 278.141 353.295 278.673 353.369 279.102C353.444 279.531 353.547 279.881 353.677 280.152C353.808 280.423 353.962 280.619 354.139 280.74C354.326 280.852 354.527 280.908 354.741 280.908Z" fill="#1C1D21"/>
<path d="M350.928 315.168C350.489 315.168 350.083 315.079 349.71 314.902C349.336 314.725 349.01 314.459 348.73 314.104C348.459 313.74 348.244 313.292 348.086 312.76C347.927 312.219 347.848 311.589 347.848 310.87C347.848 309.974 347.941 309.213 348.128 308.588C348.314 307.953 348.566 307.44 348.884 307.048C349.201 306.647 349.56 306.357 349.962 306.18C350.372 305.993 350.802 305.9 351.25 305.9C351.735 305.9 352.15 305.993 352.496 306.18C352.85 306.357 353.154 306.581 353.406 306.852L352.762 307.566C352.575 307.351 352.351 307.183 352.09 307.062C351.838 306.931 351.572 306.866 351.292 306.866C350.984 306.866 350.69 306.931 350.41 307.062C350.13 307.193 349.882 307.407 349.668 307.706C349.453 308.005 349.28 308.397 349.15 308.882C349.019 309.358 348.949 309.951 348.94 310.66C349.22 310.315 349.546 310.044 349.92 309.848C350.293 309.643 350.662 309.54 351.026 309.54C351.8 309.54 352.416 309.769 352.874 310.226C353.34 310.683 353.574 311.374 353.574 312.298C353.574 312.727 353.504 313.119 353.364 313.474C353.224 313.819 353.032 314.118 352.79 314.37C352.547 314.622 352.267 314.818 351.95 314.958C351.632 315.098 351.292 315.168 350.928 315.168ZM350.928 314.258C351.152 314.258 351.357 314.211 351.544 314.118C351.73 314.025 351.894 313.894 352.034 313.726C352.174 313.549 352.281 313.343 352.356 313.11C352.44 312.867 352.482 312.597 352.482 312.298C352.482 311.71 352.346 311.248 352.076 310.912C351.805 310.576 351.39 310.408 350.83 310.408C350.54 310.408 350.228 310.501 349.892 310.688C349.556 310.865 349.248 311.164 348.968 311.584C349.042 312.461 349.243 313.129 349.57 313.586C349.906 314.034 350.358 314.258 350.928 314.258Z" fill="#98A9BC"/>
<path d="M344.514 217V215.684H346.502V209.832H344.864V208.824C345.312 208.74 345.694 208.642 346.012 208.53C346.338 208.409 346.642 208.264 346.922 208.096H348.126V215.684H349.876V217H344.514ZM354.505 217.168C354.067 217.168 353.651 217.084 353.259 216.916C352.867 216.739 352.522 216.473 352.223 216.118C351.934 215.763 351.701 215.311 351.523 214.76C351.355 214.209 351.271 213.561 351.271 212.814C351.271 211.946 351.369 211.204 351.565 210.588C351.761 209.972 352.018 209.468 352.335 209.076C352.662 208.684 353.035 208.395 353.455 208.208C353.875 208.021 354.314 207.928 354.771 207.928C355.313 207.928 355.775 208.026 356.157 208.222C356.549 208.418 356.881 208.656 357.151 208.936L356.283 209.916C356.125 209.72 355.915 209.561 355.653 209.44C355.401 209.309 355.14 209.244 354.869 209.244C354.589 209.244 354.323 209.3 354.071 209.412C353.829 209.524 353.614 209.711 353.427 209.972C353.241 210.224 353.087 210.56 352.965 210.98C352.853 211.4 352.788 211.918 352.769 212.534C353.031 212.207 353.334 211.951 353.679 211.764C354.034 211.577 354.375 211.484 354.701 211.484C355.084 211.484 355.434 211.54 355.751 211.652C356.078 211.764 356.353 211.937 356.577 212.17C356.811 212.394 356.988 212.679 357.109 213.024C357.24 213.369 357.305 213.775 357.305 214.242C357.305 214.69 357.231 215.096 357.081 215.46C356.932 215.815 356.731 216.118 356.479 216.37C356.227 216.622 355.929 216.818 355.583 216.958C355.247 217.098 354.888 217.168 354.505 217.168ZM354.477 215.936C354.851 215.936 355.163 215.791 355.415 215.502C355.677 215.213 355.807 214.793 355.807 214.242C355.807 213.71 355.686 213.313 355.443 213.052C355.201 212.791 354.855 212.66 354.407 212.66C354.155 212.66 353.889 212.739 353.609 212.898C353.329 213.047 353.063 213.309 352.811 213.682C352.895 214.475 353.082 215.049 353.371 215.404C353.67 215.759 354.039 215.936 354.477 215.936Z" fill="#5E81F4"/>
<path d="M350.482 179.436C350.744 179.436 351.014 179.357 351.294 179.198C351.584 179.03 351.845 178.764 352.078 178.4C351.994 177.616 351.798 177.047 351.49 176.692C351.192 176.337 350.828 176.16 350.398 176.16C350.034 176.16 349.722 176.305 349.46 176.594C349.199 176.883 349.068 177.299 349.068 177.84C349.068 178.372 349.19 178.773 349.432 179.044C349.684 179.305 350.034 179.436 350.482 179.436ZM350.104 184.168C349.572 184.168 349.11 184.07 348.718 183.874C348.326 183.678 347.995 183.44 347.724 183.16L348.592 182.18C348.76 182.376 348.97 182.539 349.222 182.67C349.484 182.791 349.75 182.852 350.02 182.852C350.3 182.852 350.562 182.796 350.804 182.684C351.056 182.572 351.276 182.39 351.462 182.138C351.649 181.877 351.798 181.536 351.91 181.116C352.032 180.696 352.102 180.178 352.12 179.562C351.859 179.889 351.551 180.145 351.196 180.332C350.842 180.509 350.501 180.598 350.174 180.598C349.792 180.598 349.442 180.542 349.124 180.43C348.807 180.318 348.532 180.15 348.298 179.926C348.074 179.693 347.897 179.403 347.766 179.058C347.645 178.713 347.584 178.307 347.584 177.84C347.584 177.392 347.659 176.991 347.808 176.636C347.958 176.272 348.158 175.964 348.41 175.712C348.662 175.46 348.956 175.269 349.292 175.138C349.638 174.998 350.002 174.928 350.384 174.928C350.814 174.928 351.224 175.017 351.616 175.194C352.008 175.362 352.349 175.623 352.638 175.978C352.937 176.333 353.17 176.785 353.338 177.336C353.516 177.877 353.604 178.521 353.604 179.268C353.604 180.136 353.506 180.878 353.31 181.494C353.124 182.11 352.867 182.619 352.54 183.02C352.223 183.412 351.85 183.701 351.42 183.888C351 184.075 350.562 184.168 350.104 184.168Z" fill="#1C1D21"/>
<path d="M347.598 152V151.062C348.214 150.465 348.77 149.914 349.264 149.41C349.768 148.906 350.193 148.439 350.538 148.01C350.893 147.581 351.164 147.179 351.35 146.806C351.537 146.433 351.63 146.078 351.63 145.742C351.63 145.266 351.504 144.893 351.252 144.622C351 144.342 350.636 144.202 350.16 144.202C349.815 144.202 349.498 144.3 349.208 144.496C348.928 144.692 348.667 144.925 348.424 145.196L347.528 144.3C347.939 143.861 348.359 143.525 348.788 143.292C349.227 143.049 349.754 142.928 350.37 142.928C350.8 142.928 351.187 142.993 351.532 143.124C351.878 143.255 352.172 143.441 352.414 143.684C352.657 143.917 352.844 144.202 352.974 144.538C353.114 144.874 353.184 145.247 353.184 145.658C353.184 146.05 353.096 146.451 352.918 146.862C352.75 147.263 352.517 147.674 352.218 148.094C351.929 148.505 351.588 148.929 351.196 149.368C350.804 149.807 350.389 150.259 349.95 150.726C350.184 150.707 350.436 150.689 350.706 150.67C350.977 150.642 351.22 150.628 351.434 150.628H353.618V152H347.598Z" fill="#1C1D21"/>
<path d="M342.808 108.168C342.164 108.168 341.567 108.047 341.016 107.804C340.466 107.561 339.99 107.23 339.588 106.81L340.288 105.998C340.615 106.343 340.998 106.623 341.436 106.838C341.884 107.043 342.346 107.146 342.822 107.146C343.429 107.146 343.9 107.011 344.236 106.74C344.572 106.46 344.74 106.096 344.74 105.648C344.74 105.415 344.698 105.219 344.614 105.06C344.54 104.892 344.432 104.752 344.292 104.64C344.162 104.519 344.003 104.411 343.816 104.318C343.63 104.225 343.429 104.127 343.214 104.024L341.898 103.45C341.684 103.357 341.464 103.245 341.24 103.114C341.016 102.983 340.816 102.825 340.638 102.638C340.461 102.451 340.316 102.232 340.204 101.98C340.092 101.719 340.036 101.42 340.036 101.084C340.036 100.739 340.106 100.417 340.246 100.118C340.396 99.8193 340.596 99.5627 340.848 99.348C341.11 99.124 341.413 98.9513 341.758 98.83C342.113 98.7087 342.5 98.648 342.92 98.648C343.471 98.648 343.98 98.7553 344.446 98.97C344.913 99.1753 345.31 99.446 345.636 99.782L345.006 100.538C344.726 100.267 344.414 100.057 344.068 99.908C343.732 99.7493 343.35 99.67 342.92 99.67C342.407 99.67 341.992 99.7913 341.674 100.034C341.366 100.267 341.212 100.594 341.212 101.014C341.212 101.238 341.254 101.429 341.338 101.588C341.432 101.737 341.553 101.873 341.702 101.994C341.852 102.106 342.015 102.209 342.192 102.302C342.37 102.386 342.552 102.465 342.738 102.54L344.04 103.1C344.302 103.212 344.549 103.343 344.782 103.492C345.016 103.632 345.216 103.8 345.384 103.996C345.552 104.183 345.683 104.407 345.776 104.668C345.879 104.92 345.93 105.214 345.93 105.55C345.93 105.914 345.856 106.255 345.706 106.572C345.566 106.889 345.361 107.169 345.09 107.412C344.82 107.645 344.493 107.832 344.11 107.972C343.728 108.103 343.294 108.168 342.808 108.168ZM349.895 108.168C349.167 108.168 348.635 107.944 348.299 107.496C347.972 107.048 347.809 106.385 347.809 105.508V101.196H348.971V105.354C348.971 105.998 349.069 106.465 349.265 106.754C349.47 107.034 349.797 107.174 350.245 107.174C350.599 107.174 350.912 107.085 351.183 106.908C351.453 106.721 351.752 106.427 352.079 106.026V101.196H353.227V108H352.275L352.177 106.936H352.135C351.817 107.309 351.481 107.608 351.127 107.832C350.781 108.056 350.371 108.168 349.895 108.168ZM355.802 108V101.196H356.754L356.852 102.176H356.894C357.221 101.849 357.561 101.579 357.916 101.364C358.28 101.14 358.7 101.028 359.176 101.028C359.895 101.028 360.417 101.252 360.744 101.7C361.08 102.148 361.248 102.811 361.248 103.688V108H360.1V103.842C360.1 103.198 359.997 102.736 359.792 102.456C359.587 102.167 359.26 102.022 358.812 102.022C358.457 102.022 358.145 102.111 357.874 102.288C357.603 102.465 357.295 102.727 356.95 103.072V108H355.802Z" fill="#8181A5"/>
<g clip-path="url(#clip4_9071_526)">
<path d="M20 22C20 17.5817 23.5817 14 28 14H373.262C377.68 14 381.262 17.5817 381.262 22V74H20V22Z" fill="#F5F5FA"/>
<path d="M169.355 47.888C169.355 48.5387 169.275 49.1253 169.115 49.648C168.955 50.1707 168.715 50.616 168.395 50.984C168.081 51.352 167.686 51.6347 167.211 51.832C166.737 52.0293 166.185 52.128 165.555 52.128C165.267 52.128 164.985 52.1093 164.707 52.072C164.43 52.04 164.139 51.9867 163.835 51.912L163.947 50.632C163.958 50.5147 164.001 50.4213 164.075 50.352C164.155 50.2773 164.27 50.24 164.419 50.24C164.51 50.24 164.627 50.2587 164.771 50.296C164.921 50.3333 165.107 50.352 165.331 50.352C165.635 50.352 165.905 50.3093 166.139 50.224C166.374 50.1333 166.569 49.992 166.723 49.8C166.883 49.608 167.003 49.36 167.083 49.056C167.163 48.7467 167.203 48.3733 167.203 47.936V40.432H169.355V47.888ZM173.38 43.792V49.008C173.38 49.5093 173.494 49.8987 173.724 50.176C173.958 50.448 174.308 50.584 174.772 50.584C175.113 50.584 175.433 50.5093 175.732 50.36C176.03 50.2053 176.313 49.9947 176.58 49.728V43.792H178.556V52H177.348C177.092 52 176.924 51.88 176.844 51.64L176.708 50.984C176.537 51.1547 176.361 51.312 176.18 51.456C175.998 51.5947 175.804 51.7147 175.596 51.816C175.393 51.912 175.172 51.9867 174.932 52.04C174.697 52.0987 174.444 52.128 174.172 52.128C173.724 52.128 173.326 52.0533 172.98 51.904C172.638 51.7493 172.35 51.5333 172.116 51.256C171.881 50.9787 171.702 50.6507 171.58 50.272C171.462 49.888 171.404 49.4667 171.404 49.008V43.792H173.38ZM180.665 52V43.792H181.873C182.129 43.792 182.297 43.912 182.377 44.152L182.513 44.8C182.679 44.6293 182.852 44.4747 183.033 44.336C183.22 44.1973 183.415 44.0773 183.617 43.976C183.825 43.8747 184.047 43.7973 184.281 43.744C184.516 43.6907 184.772 43.664 185.049 43.664C185.497 43.664 185.895 43.7413 186.241 43.896C186.588 44.0453 186.876 44.2587 187.105 44.536C187.34 44.808 187.516 45.136 187.633 45.52C187.756 45.8987 187.817 46.3173 187.817 46.776V52H185.841V46.776C185.841 46.2747 185.724 45.888 185.489 45.616C185.26 45.3387 184.913 45.2 184.449 45.2C184.108 45.2 183.788 45.2773 183.489 45.432C183.191 45.5867 182.908 45.7973 182.641 46.064V52H180.665ZM193.151 43.664C193.668 43.664 194.143 43.7467 194.575 43.912C195.012 44.0773 195.388 44.32 195.703 44.64C196.018 44.9547 196.263 45.344 196.439 45.808C196.615 46.2667 196.703 46.792 196.703 47.384C196.703 47.5333 196.695 47.6587 196.679 47.76C196.668 47.856 196.644 47.9333 196.607 47.992C196.575 48.0453 196.53 48.0853 196.471 48.112C196.412 48.1333 196.338 48.144 196.247 48.144H191.175C191.234 48.9867 191.46 49.6053 191.855 50C192.25 50.3947 192.772 50.592 193.423 50.592C193.743 50.592 194.018 50.5547 194.247 50.48C194.482 50.4053 194.684 50.3227 194.855 50.232C195.031 50.1413 195.183 50.0587 195.311 49.984C195.444 49.9093 195.572 49.872 195.695 49.872C195.775 49.872 195.844 49.888 195.903 49.92C195.962 49.952 196.012 49.9973 196.055 50.056L196.631 50.776C196.412 51.032 196.167 51.248 195.895 51.424C195.623 51.5947 195.338 51.7333 195.039 51.84C194.746 51.9413 194.444 52.0133 194.135 52.056C193.831 52.0987 193.535 52.12 193.247 52.12C192.676 52.12 192.146 52.0267 191.655 51.84C191.164 51.648 190.738 51.368 190.375 51C190.012 50.6267 189.727 50.168 189.519 49.624C189.311 49.0747 189.207 48.44 189.207 47.72C189.207 47.16 189.298 46.6347 189.479 46.144C189.66 45.648 189.919 45.2187 190.255 44.856C190.596 44.488 191.01 44.1973 191.495 43.984C191.986 43.7707 192.538 43.664 193.151 43.664ZM193.191 45.08C192.615 45.08 192.164 45.2427 191.839 45.568C191.514 45.8933 191.306 46.3547 191.215 46.952H194.927C194.927 46.696 194.892 46.456 194.823 46.232C194.754 46.0027 194.647 45.8027 194.503 45.632C194.359 45.4613 194.178 45.328 193.959 45.232C193.74 45.1307 193.484 45.08 193.191 45.08ZM205.16 40.304C205.693 40.304 206.181 40.384 206.624 40.544C207.066 40.6987 207.445 40.92 207.76 41.208C208.074 41.496 208.32 41.8427 208.496 42.248C208.672 42.6533 208.76 43.104 208.76 43.6C208.76 44.0267 208.696 44.4213 208.568 44.784C208.445 45.1467 208.277 45.4933 208.064 45.824C207.856 46.1547 207.61 46.4747 207.328 46.784C207.045 47.0933 206.749 47.408 206.44 47.728L203.832 50.392C204.088 50.3173 204.338 50.2613 204.584 50.224C204.829 50.1813 205.064 50.16 205.288 50.16H208.256C208.469 50.16 208.637 50.2213 208.76 50.344C208.888 50.4613 208.952 50.6187 208.952 50.816V52H201.016V51.344C201.016 51.2107 201.042 51.072 201.096 50.928C201.154 50.784 201.245 50.6507 201.368 50.528L204.88 47.008C205.173 46.7093 205.434 46.424 205.664 46.152C205.898 45.88 206.093 45.6107 206.248 45.344C206.408 45.0773 206.528 44.808 206.608 44.536C206.693 44.2587 206.736 43.968 206.736 43.664C206.736 43.3867 206.696 43.144 206.616 42.936C206.536 42.7227 206.421 42.544 206.272 42.4C206.122 42.256 205.944 42.1493 205.736 42.08C205.533 42.0053 205.304 41.968 205.048 41.968C204.573 41.968 204.181 42.088 203.872 42.328C203.568 42.568 203.354 42.8907 203.232 43.296C203.173 43.4987 203.085 43.6453 202.968 43.736C202.85 43.8213 202.701 43.864 202.52 43.864C202.44 43.864 202.352 43.856 202.256 43.84L201.216 43.656C201.296 43.1013 201.45 42.616 201.68 42.2C201.909 41.7787 202.194 41.4293 202.536 41.152C202.882 40.8693 203.277 40.6587 203.72 40.52C204.168 40.376 204.648 40.304 205.16 40.304ZM218.505 46.216C218.505 47.224 218.396 48.1013 218.177 48.848C217.964 49.5893 217.665 50.2027 217.281 50.688C216.902 51.1733 216.452 51.536 215.929 51.776C215.412 52.0107 214.852 52.128 214.249 52.128C213.646 52.128 213.086 52.0107 212.569 51.776C212.057 51.536 211.612 51.1733 211.233 50.688C210.854 50.2027 210.558 49.5893 210.345 48.848C210.132 48.1013 210.025 47.224 210.025 46.216C210.025 45.2027 210.132 44.3253 210.345 43.584C210.558 42.8427 210.854 42.2293 211.233 41.744C211.612 41.2587 212.057 40.8987 212.569 40.664C213.086 40.424 213.646 40.304 214.249 40.304C214.852 40.304 215.412 40.424 215.929 40.664C216.452 40.8987 216.902 41.2587 217.281 41.744C217.665 42.2293 217.964 42.8427 218.177 43.584C218.396 44.3253 218.505 45.2027 218.505 46.216ZM216.465 46.216C216.465 45.3787 216.404 44.6853 216.281 44.136C216.158 43.5867 215.993 43.1493 215.785 42.824C215.582 42.4987 215.348 42.272 215.081 42.144C214.814 42.0107 214.537 41.944 214.249 41.944C213.966 41.944 213.692 42.0107 213.425 42.144C213.164 42.272 212.932 42.4987 212.729 42.824C212.526 43.1493 212.364 43.5867 212.241 44.136C212.124 44.6853 212.065 45.3787 212.065 46.216C212.065 47.0533 212.124 47.7467 212.241 48.296C212.364 48.8453 212.526 49.2827 212.729 49.608C212.932 49.9333 213.164 50.1627 213.425 50.296C213.692 50.424 213.966 50.488 214.249 50.488C214.537 50.488 214.814 50.424 215.081 50.296C215.348 50.1627 215.582 49.9333 215.785 49.608C215.993 49.2827 216.158 48.8453 216.281 48.296C216.404 47.7467 216.465 47.0533 216.465 46.216ZM221.058 50.52H223.402V43.776C223.402 43.5147 223.41 43.24 223.426 42.952L221.762 44.344C221.693 44.4027 221.621 44.4427 221.546 44.464C221.477 44.4853 221.408 44.496 221.338 44.496C221.232 44.496 221.133 44.4747 221.042 44.432C220.957 44.384 220.893 44.3307 220.85 44.272L220.226 43.416L223.754 40.416H225.378V50.52H227.458V52H221.058V50.52ZM232.828 52.128C232.23 52.128 231.684 52.048 231.188 51.888C230.697 51.728 230.276 51.5013 229.924 51.208C229.572 50.9147 229.297 50.56 229.1 50.144C228.908 49.728 228.812 49.264 228.812 48.752C228.812 48.0693 228.98 47.4933 229.316 47.024C229.652 46.5493 230.174 46.1973 230.884 45.968C230.318 45.7333 229.894 45.4 229.612 44.968C229.334 44.536 229.196 44.016 229.196 43.408C229.196 42.9707 229.284 42.5627 229.46 42.184C229.641 41.8053 229.892 41.4773 230.212 41.2C230.532 40.9173 230.913 40.6987 231.356 40.544C231.804 40.384 232.294 40.304 232.828 40.304C233.361 40.304 233.849 40.384 234.292 40.544C234.74 40.6987 235.124 40.9173 235.444 41.2C235.764 41.4773 236.012 41.8053 236.188 42.184C236.369 42.5627 236.46 42.9707 236.46 43.408C236.46 44.016 236.318 44.536 236.036 44.968C235.753 45.4 235.332 45.7333 234.772 45.968C235.481 46.1973 236.004 46.5493 236.34 47.024C236.676 47.4933 236.844 48.0693 236.844 48.752C236.844 49.264 236.745 49.728 236.548 50.144C236.356 50.56 236.084 50.9147 235.732 51.208C235.38 51.5013 234.956 51.728 234.46 51.888C233.969 52.048 233.425 52.128 232.828 52.128ZM232.828 50.584C233.153 50.584 233.438 50.5387 233.684 50.448C233.929 50.352 234.134 50.2213 234.3 50.056C234.47 49.8907 234.598 49.6933 234.684 49.464C234.769 49.2347 234.812 48.9867 234.812 48.72C234.812 48.0853 234.636 47.6053 234.284 47.28C233.932 46.9547 233.446 46.792 232.828 46.792C232.209 46.792 231.724 46.9547 231.372 47.28C231.02 47.6053 230.844 48.0853 230.844 48.72C230.844 48.9867 230.886 49.2347 230.972 49.464C231.057 49.6933 231.182 49.8907 231.348 50.056C231.518 50.2213 231.726 50.352 231.972 50.448C232.217 50.5387 232.502 50.584 232.828 50.584ZM232.828 45.24C233.148 45.24 233.417 45.1893 233.636 45.088C233.854 44.9867 234.03 44.8533 234.164 44.688C234.297 44.5173 234.39 44.3253 234.444 44.112C234.502 43.8933 234.532 43.6693 234.532 43.44C234.532 43.2213 234.497 43.0133 234.428 42.816C234.358 42.6187 234.254 42.4453 234.116 42.296C233.977 42.1413 233.801 42.0187 233.588 41.928C233.374 41.8373 233.121 41.792 232.828 41.792C232.534 41.792 232.281 41.8373 232.068 41.928C231.854 42.0187 231.676 42.1413 231.532 42.296C231.393 42.4453 231.289 42.6187 231.22 42.816C231.156 43.0133 231.124 43.2213 231.124 43.44C231.124 43.6693 231.15 43.8933 231.204 44.112C231.262 44.3253 231.358 44.5173 231.492 44.688C231.625 44.8533 231.801 44.9867 232.02 45.088C232.238 45.1893 232.508 45.24 232.828 45.24Z" fill="#1C1D21"/>
<path d="M53.8174 38.6582L47.6299 44.8457L47.2432 45.25L47.6299 45.6543L53.8174 51.8418L54.626 51.0332L48.8428 45.25L54.626 39.4668L53.8174 38.6582Z" fill="#8181A5"/>
<path d="M353.466 37.6582L352.657 38.4668L358.44 44.25L352.657 50.0332L353.466 50.8418L359.653 44.6543L360.04 44.25L359.653 43.8457L353.466 37.6582Z" fill="#8181A5"/>
</g>
<defs>
<filter id="filter0_d_9071_526" x="0" y="0" width="401" height="372" filterUnits="userSpaceOnUse" color-interpolation-filters="sRGB">
<feFlood flood-opacity="0" result="BackgroundImageFix"/>
<feColorMatrix in="SourceAlpha" type="matrix" values="0 0 0 0 0 0 0 0 0 0 0 0 0 0 0 0 0 0 127 0" result="hardAlpha"/>
<feOffset dy="6"/>
<feGaussianBlur stdDeviation="10"/>
<feColorMatrix type="matrix" values="0 0 0 0 0.6 0 0 0 0 0.607843 0 0 0 0 0.658824 0 0 0 0.1 0"/>
<feBlend mode="normal" in2="BackgroundImageFix" result="effect1_dropShadow_9071_526"/>
<feBlend mode="normal" in="SourceGraphic" in2="effect1_dropShadow_9071_526" result="shape"/>
</filter>
<clipPath id="clip0_9071_526">
<rect width="24" height="225" fill="white" transform="translate(95.2593 94)"/>
</clipPath>
<clipPath id="clip1_9071_526">
<rect width="34" height="225" fill="white" transform="translate(142.438 94)"/>
</clipPath>
<clipPath id="clip2_9071_526">
<rect width="34" height="225" fill="white" transform="translate(193.613 94)"/>
</clipPath>
<clipPath id="clip3_9071_526">
<rect width="21" height="225" fill="white" transform="translate(290.943 94)"/>
</clipPath>
<clipPath id="clip4_9071_526">
<rect width="362" height="60" fill="white" transform="translate(20 14)"/>
</clipPath>
</defs>
</svg>
