<svg width="45" height="45" viewBox="0 0 45 45" fill="none" xmlns="http://www.w3.org/2000/svg">
<path d="M22.5 42.1875C11.6269 42.1875 2.8125 33.3731 2.8125 22.5C2.8125 11.6269 11.6269 2.8125 22.5 2.8125C33.3731 2.8125 42.1875 11.6269 42.1875 22.5C42.1875 33.3731 33.3731 42.1875 22.5 42.1875ZM22.5 45C34.9264 45 45 34.9264 45 22.5C45 10.0736 34.9264 0 22.5 0C10.0736 0 0 10.0736 0 22.5C0 34.9264 10.0736 45 22.5 45Z" fill="black"/>
<path d="M25.1176 18.5284L18.6741 19.3359L18.4434 20.4071L19.7123 20.6378C20.5363 20.8356 20.7011 21.1322 20.5198 21.9562L18.4434 31.712C17.8996 34.2334 18.74 35.4199 20.7176 35.4199C22.2502 35.4199 24.03 34.7113 24.8375 33.739L25.0846 32.569C24.5243 33.0634 23.7004 33.2611 23.1565 33.2611C22.382 33.2611 22.1019 32.7173 22.2996 31.7615L25.1176 18.5284Z" fill="black"/>
<path d="M25.3125 12.6562C25.3125 14.2096 24.0533 15.4688 22.5 15.4688C20.9467 15.4688 19.6875 14.2096 19.6875 12.6562C19.6875 11.1029 20.9467 9.84375 22.5 9.84375C24.0533 9.84375 25.3125 11.1029 25.3125 12.6562Z" fill="black"/>
</svg>
