<svg width="62" height="62" viewBox="0 0 62 62" fill="none" xmlns="http://www.w3.org/2000/svg">
<path d="M10.3327 54.2468H49.0827C50.453 54.2468 51.7671 53.7025 52.7361 52.7335C53.705 51.7646 54.2493 50.4504 54.2493 49.0802V33.5802H43.916V38.7468L33.5827 30.9968L43.916 23.2468V28.4135H54.2493V12.9135C54.2493 11.5432 53.705 10.229 52.7361 9.26011C51.7671 8.29117 50.453 7.74683 49.0827 7.74683H10.3327C8.9624 7.74683 7.64823 8.29117 6.6793 9.26011C5.71036 10.229 5.16602 11.5432 5.16602 12.9135V49.0802C5.16602 50.4504 5.71036 51.7646 6.6793 52.7335C7.64823 53.7025 8.9624 54.2468 10.3327 54.2468ZM10.3327 38.7468H20.666V43.9135H10.3327V38.7468ZM10.3327 28.4135H28.416V33.5802H10.3327V28.4135ZM10.3327 18.0802H28.416V23.2468H10.3327V18.0802ZM54.2493 28.4135H61.9993V33.5802H54.2493V28.4135Z" fill="#6B7DF2"/>
</svg>
