<svg width="86" height="86" viewBox="0 0 86 86" fill="none" xmlns="http://www.w3.org/2000/svg">
<path d="M72.5625 5.375C68.1097 5.375 64.5 8.9847 64.5 13.4375C64.5 17.8903 68.1097 21.5 72.5625 21.5C77.0153 21.5 80.625 17.8903 80.625 13.4375C80.625 8.9847 77.0153 5.375 72.5625 5.375ZM59.125 13.4375C59.125 6.01617 65.1412 0 72.5625 0C79.9838 0 86 6.01617 86 13.4375C86 20.8588 79.9838 26.875 72.5625 26.875C68.4832 26.875 64.8284 25.0573 62.364 22.1876L26.2568 38.9591C26.6584 40.2345 26.875 41.5919 26.875 43C26.875 44.408 26.6584 45.7655 26.2568 47.0409L62.364 63.8124C64.8284 60.9427 68.4832 59.125 72.5625 59.125C79.9838 59.125 86 65.1412 86 72.5625C86 79.9838 79.9838 86 72.5625 86C65.1412 86 59.125 79.9838 59.125 72.5625C59.125 71.1544 59.3416 69.797 59.7432 68.5216L23.636 51.7501C21.1716 54.6198 17.5168 56.4375 13.4375 56.4375C6.01617 56.4375 0 50.4213 0 43C0 35.5787 6.01617 29.5625 13.4375 29.5625C17.5168 29.5625 21.1716 31.3802 23.636 34.2499L59.7432 17.4784C59.3416 16.203 59.125 14.8456 59.125 13.4375ZM13.4375 34.9375C8.9847 34.9375 5.375 38.5472 5.375 43C5.375 47.4528 8.9847 51.0625 13.4375 51.0625C17.8903 51.0625 21.5 47.4528 21.5 43C21.5 38.5472 17.8903 34.9375 13.4375 34.9375ZM72.5625 64.5C68.1097 64.5 64.5 68.1097 64.5 72.5625C64.5 77.0153 68.1097 80.625 72.5625 80.625C77.0153 80.625 80.625 77.0153 80.625 72.5625C80.625 68.1097 77.0153 64.5 72.5625 64.5Z" fill="black"/>
</svg>
