<svg width="664" height="88" viewBox="0 0 664 88" fill="none" xmlns="http://www.w3.org/2000/svg">
<rect x="0.5" y="0.5" width="663" height="87" rx="4.5" stroke="#9747FF" stroke-dasharray="10 5"/>
<rect x="28" y="28" width="16" height="16" fill="#D9D9D9"/>
<rect x="28" y="28" width="16" height="16" fill="#D9D9D9"/>
<rect x="28" y="28" width="16" height="16" fill="#D9D9D9"/>
<rect x="28" y="28" width="16" height="16" fill="#D9D9D9"/>
<rect x="28" y="28" width="16" height="16" fill="#2D2D2D"/>
<rect x="116" y="28" width="16" height="16" fill="#D9D9D9"/>
<rect x="116" y="28" width="16" height="16" fill="#D9D9D9"/>
<rect x="116" y="28" width="16" height="16" fill="#D9D9D9"/>
<rect x="100" y="28" width="16" height="16" fill="#D9D9D9"/>
<rect x="116" y="28" width="16" height="16" fill="#2D2D2D"/>
<rect x="188" y="28" width="16" height="16" fill="#D9D9D9"/>
<rect x="188" y="44" width="16" height="16" fill="#D9D9D9"/>
<rect x="188" y="28" width="16" height="16" fill="#D9D9D9"/>
<rect x="172" y="28" width="16" height="16" fill="#D9D9D9"/>
<rect x="188" y="44" width="16" height="16" fill="#2D2D2D"/>
<rect x="244" y="44" width="16" height="16" fill="#D9D9D9"/>
<rect x="260" y="44" width="16" height="16" fill="#D9D9D9"/>
<rect x="260" y="28" width="16" height="16" fill="#D9D9D9"/>
<rect x="244" y="28" width="16" height="16" fill="#D9D9D9"/>
<rect x="244" y="44" width="16" height="16" fill="#2D2D2D"/>
<rect x="316" y="44" width="16" height="16" fill="#D9D9D9"/>
<rect x="332" y="44" width="16" height="16" fill="#D9D9D9"/>
<rect x="332" y="28" width="16" height="16" fill="#D9D9D9"/>
<rect x="316" y="28" width="16" height="16" fill="#D9D9D9"/>
<rect x="316" y="28" width="16" height="16" fill="#2D2D2D"/>
<rect x="388" y="44" width="16" height="16" fill="#D9D9D9"/>
<rect x="404" y="44" width="16" height="16" fill="#D9D9D9"/>
<rect x="404" y="28" width="16" height="16" fill="#D9D9D9"/>
<rect x="404" y="28" width="16" height="16" fill="#D9D9D9"/>
<rect x="404" y="28" width="16" height="16" fill="#2D2D2D"/>
<rect x="460" y="44" width="16" height="16" fill="#D9D9D9"/>
<rect x="476" y="44" width="16" height="16" fill="#D9D9D9"/>
<rect x="476" y="44" width="16" height="16" fill="#D9D9D9"/>
<rect x="476" y="44" width="16" height="16" fill="#D9D9D9"/>
<rect x="476" y="44" width="16" height="16" fill="#2D2D2D"/>
<rect x="532" y="44" width="16" height="16" fill="#D9D9D9"/>
<rect x="532" y="44" width="16" height="16" fill="#D9D9D9"/>
<rect x="532" y="44" width="16" height="16" fill="#D9D9D9"/>
<rect x="532" y="44" width="16" height="16" fill="#D9D9D9"/>
<rect x="532" y="44" width="16" height="16" fill="#2D2D2D"/>
<rect x="604" y="28" width="16" height="16" fill="#D9D9D9"/>
<rect x="604" y="28" width="16" height="16" fill="#D9D9D9"/>
<rect x="604" y="28" width="16" height="16" fill="#D9D9D9"/>
<rect x="604" y="28" width="16" height="16" fill="#D9D9D9"/>
<rect x="604" y="28" width="16" height="16" fill="#2D2D2D"/>
</svg>
