<svg width="24" height="24" viewBox="0 0 24 24" fill="none" xmlns="http://www.w3.org/2000/svg">
<g clip-path="url(#clip0_4_451)">
<g clip-path="url(#clip1_4_451)">
<g opacity="0.05">
<rect width="24" height="24" fill="black"/>
</g>
</g>
<path d="M12 7.01514C12.1312 7.01514 12.2539 7.04264 12.3682 7.09766C12.4824 7.14844 12.5946 7.22673 12.7046 7.33252L15.4849 9.99854C15.5737 10.0874 15.6478 10.1847 15.707 10.2905C15.7663 10.3963 15.7959 10.5106 15.7959 10.6333C15.7959 10.883 15.707 11.0882 15.5293 11.249C15.3558 11.4098 15.1611 11.4902 14.9453 11.4902C14.8353 11.4902 14.7253 11.4712 14.6152 11.4331C14.5094 11.395 14.41 11.3315 14.3169 11.2427L12 8.97656L9.68311 11.2427C9.59424 11.3315 9.49479 11.395 9.38477 11.4331C9.27474 11.4712 9.16683 11.4902 9.06104 11.4902C8.84098 11.4902 8.64209 11.4098 8.46436 11.249C8.29085 11.0882 8.2041 10.883 8.2041 10.6333C8.2041 10.5106 8.23372 10.3963 8.29297 10.2905C8.35221 10.1847 8.42627 10.0874 8.51514 9.99854L11.3018 7.33252C11.4076 7.22673 11.5176 7.14844 11.6318 7.09766C11.7461 7.04264 11.8688 7.01514 12 7.01514ZM12 17.8188C11.8688 17.8188 11.7461 17.7913 11.6318 17.7363C11.5176 17.6855 11.4076 17.6073 11.3018 17.5015L8.51514 14.8291C8.42627 14.7402 8.35221 14.6429 8.29297 14.5371C8.23372 14.4313 8.2041 14.3192 8.2041 14.2007C8.2041 13.9468 8.29085 13.7394 8.46436 13.5786C8.64209 13.4178 8.84098 13.3374 9.06104 13.3374C9.16683 13.3374 9.27474 13.3564 9.38477 13.3945C9.49479 13.4326 9.59424 13.4961 9.68311 13.585L12 15.8511L14.3169 13.585C14.41 13.4961 14.5094 13.4326 14.6152 13.3945C14.7253 13.3564 14.8353 13.3374 14.9453 13.3374C15.1611 13.3374 15.3558 13.4178 15.5293 13.5786C15.707 13.7394 15.7959 13.9468 15.7959 14.2007C15.7959 14.3192 15.7663 14.4313 15.707 14.5371C15.6478 14.6429 15.5737 14.7402 15.4849 14.8291L12.7046 17.5015C12.5946 17.6073 12.4824 17.6855 12.3682 17.7363C12.2539 17.7913 12.1312 17.8188 12 17.8188Z" fill="black" fill-opacity="0.85"/>
</g>
<defs>
<clipPath id="clip0_4_451">
<rect width="24" height="24" rx="12" fill="white"/>
</clipPath>
<clipPath id="clip1_4_451">
<rect width="24" height="24" fill="white"/>
</clipPath>
</defs>
</svg>
