<svg width="60" height="53" viewBox="0 0 60 53" fill="none" xmlns="http://www.w3.org/2000/svg">
<path d="M52.5 3.3125C54.5711 3.3125 56.25 4.79556 56.25 6.625V46.375C56.25 48.2044 54.5711 49.6875 52.5 49.6875H7.5C5.42893 49.6875 3.75 48.2044 3.75 46.375V6.625C3.75 4.79556 5.42893 3.3125 7.5 3.3125H52.5ZM7.5 0C3.35786 0 0 2.96611 0 6.625V46.375C0 50.0339 3.35786 53 7.5 53H52.5C56.6421 53 60 50.0339 60 46.375V6.625C60 2.96611 56.6421 0 52.5 0H7.5Z" fill="#156884"/>
<path d="M17.4242 15.3914C18.1564 14.7445 19.3436 14.7445 20.0758 15.3914L30 24.1577L39.9242 15.3914C40.6564 14.7445 41.8436 14.7445 42.5758 15.3914C43.3081 16.0382 43.3081 17.0868 42.5758 17.7336L32.6516 26.5L42.5758 35.2664C43.3081 35.9132 43.3081 36.9618 42.5758 37.6086C41.8436 38.2555 40.6564 38.2555 39.9242 37.6086L30 28.8423L20.0758 37.6086C19.3436 38.2555 18.1564 38.2555 17.4242 37.6086C16.6919 36.9618 16.6919 35.9132 17.4242 35.2664L27.3484 26.5L17.4242 17.7336C16.6919 17.0868 16.6919 16.0382 17.4242 15.3914Z" fill="#156884"/>
</svg>
