<svg width="30" height="30" viewBox="0 0 30 30" fill="none" xmlns="http://www.w3.org/2000/svg">
<path d="M7.5 0.9375C7.5 0.419733 7.08027 0 6.5625 0C6.04473 0 5.625 0.419733 5.625 0.9375V1.875H3.75C1.67893 1.875 0 3.55393 0 5.625V7.5H30V5.625C30 3.55393 28.3211 1.875 26.25 1.875H24.375V0.9375C24.375 0.419733 23.9553 0 23.4375 0C22.9197 0 22.5 0.419733 22.5 0.9375V1.875H7.5V0.9375Z" fill="#000000"/>
<path d="M30 26.25V9.375H0V26.25C0 28.3211 1.67893 30 3.75 30H26.25C28.3211 30 30 28.3211 30 26.25ZM15.9375 15.9375V18.75H18.75C19.2678 18.75 19.6875 19.1697 19.6875 19.6875C19.6875 20.2053 19.2678 20.625 18.75 20.625H15.9375V23.4375C15.9375 23.9553 15.5178 24.375 15 24.375C14.4822 24.375 14.0625 23.9553 14.0625 23.4375V20.625H11.25C10.7322 20.625 10.3125 20.2053 10.3125 19.6875C10.3125 19.1697 10.7322 18.75 11.25 18.75H14.0625V15.9375C14.0625 15.4197 14.4822 15 15 15C15.5178 15 15.9375 15.4197 15.9375 15.9375Z" fill="#000000"/>
</svg>