<svg width="202" height="202" viewBox="0 0 202 202" fill="none" xmlns="http://www.w3.org/2000/svg">
<path d="M101 0C116.353 -6.71121e-07 131.505 3.50034 145.302 10.235C159.1 16.9696 171.181 26.7612 180.626 38.8655C190.071 50.9698 196.633 65.0681 199.812 80.0889C202.99 95.1097 202.703 110.658 198.971 125.55C195.239 140.443 188.16 154.29 178.274 166.036C168.388 177.783 155.953 187.121 141.916 193.341C127.879 199.561 112.608 202.499 97.2654 201.931C81.9224 201.363 66.9108 197.305 53.3717 190.065L101 101L101 0Z" fill="#6B7DF2"/>
<path d="M53.3717 190.065C37.8545 181.767 24.7745 169.559 15.4274 154.65C6.08028 139.741 0.790451 122.649 0.0819106 105.067C-0.62663 87.4845 3.27071 70.0222 11.3878 54.4096C19.505 38.7971 31.5602 25.5761 46.3594 16.0565L101 101L53.3717 190.065Z" fill="#8AB6FF"/>
<path d="M46.3594 16.0565C57.138 9.12303 69.1377 4.30436 81.718 1.85765L101 101L46.3594 16.0565Z" fill="#F5D29D"/>
<path d="M81.718 1.85765C88.071 0.622076 94.528 -7.71777e-08 101 0V101L81.718 1.85765Z" fill="#156884"/>
</svg>
