<svg width="34" height="32" viewBox="0 0 34 32" fill="none" xmlns="http://www.w3.org/2000/svg">
<g clip-path="url(#clip0_2_614)">
<path d="M25.4151 23.92C22.9934 25.6573 20.0446 26.6198 17.0001 26.6666C7.08341 26.6666 1.41675 16 1.41675 16C3.17893 12.9092 5.62302 10.2088 8.58508 8.07998M14.0251 5.65331C15.0002 5.43849 15.9986 5.3311 17.0001 5.33331C26.9167 5.33331 32.5834 16 32.5834 16C31.7235 17.5141 30.6979 18.9396 29.5234 20.2533M20.0034 18.8266C19.6143 19.2196 19.1451 19.5349 18.6238 19.7535C18.1025 19.9721 17.5397 20.0897 16.969 20.0991C16.3984 20.1086 15.8316 20.0098 15.3024 19.8086C14.7732 19.6075 14.2924 19.308 13.8889 18.9282C13.4853 18.5484 13.1671 18.0959 12.9534 17.5978C12.7396 17.0998 12.6347 16.5663 12.6447 16.0292C12.6548 15.4921 12.7797 14.9624 13.012 14.4718C13.2443 13.9811 13.5792 13.5395 13.9967 13.1733M1.41675 1.33331L32.5834 30.6666" stroke="#BBBBBA" stroke-width="4" stroke-linecap="round" stroke-linejoin="round"/>
</g>
<defs>
<clipPath id="clip0_2_614">
<rect width="34" height="32" fill="white"/>
</clipPath>
</defs>
</svg>
