<svg width="31" height="17" viewBox="0 0 31 17" fill="none" xmlns="http://www.w3.org/2000/svg">
<path d="M0 17V14.7687C0 13.7535 0.464696 12.9271 1.39409 12.2896C2.32348 11.6521 3.54859 11.3333 5.06941 11.3333C5.34401 11.3333 5.60804 11.3395 5.86151 11.3517C6.11498 11.364 6.35789 11.3933 6.59024 11.4396C6.29452 11.9354 6.07273 12.4549 5.92488 12.9979C5.77702 13.541 5.70309 14.1076 5.70309 14.6979V17H0ZM7.60412 17V14.6979C7.60412 13.9424 7.78915 13.2515 8.15922 12.6253C8.52929 11.9992 9.05186 11.4504 9.72694 10.9792C10.402 10.5079 11.2102 10.1537 12.1514 9.91667C13.0926 9.67961 14.1116 9.56156 15.2082 9.5625C16.3277 9.5625 17.3577 9.68055 18.298 9.91667C19.2384 10.1528 20.0461 10.5069 20.7212 10.9792C21.3963 11.4514 21.9138 12.0006 22.2737 12.6267C22.6337 13.2529 22.8132 13.9433 22.8124 14.6979V17H7.60412ZM24.7134 17V14.6979C24.7134 14.084 24.6449 13.5056 24.5081 12.9625C24.3712 12.4194 24.165 11.9118 23.8896 11.4396C24.122 11.3924 24.3598 11.3631 24.6031 11.3517C24.8465 11.3404 25.0944 11.3343 25.3471 11.3333C26.8679 11.3333 28.093 11.6464 29.0224 12.2726C29.9518 12.8987 30.4165 13.7308 30.4165 14.7687V17H24.7134ZM5.06941 9.91667C4.37237 9.91667 3.77587 9.63947 3.27991 9.08508C2.78395 8.53069 2.53555 7.86344 2.53471 7.08333C2.53471 6.28056 2.78311 5.60764 3.27991 5.06458C3.77671 4.52153 4.37321 4.25 5.06941 4.25C5.78758 4.25 6.38957 4.52153 6.87539 5.06458C7.36121 5.60764 7.60412 6.28056 7.60412 7.08333C7.60412 7.8625 7.36121 8.52975 6.87539 9.08508C6.38957 9.64042 5.78758 9.91761 5.06941 9.91667ZM25.3471 9.91667C24.65 9.91667 24.0535 9.63947 23.5576 9.08508C23.0616 8.53069 22.8132 7.86344 22.8124 7.08333C22.8124 6.28056 23.0608 5.60764 23.5576 5.06458C24.0544 4.52153 24.6509 4.25 25.3471 4.25C26.0652 4.25 26.6672 4.52153 27.153 5.06458C27.6389 5.60764 27.8818 6.28056 27.8818 7.08333C27.8818 7.8625 27.6389 8.52975 27.153 9.08508C26.6672 9.64042 26.0652 9.91761 25.3471 9.91667ZM15.2082 8.5C14.1521 8.5 13.2544 8.08681 12.5151 7.26042C11.7758 6.43403 11.4062 5.43056 11.4062 4.25C11.4062 3.04583 11.7758 2.03669 12.5151 1.22258C13.2544 0.408472 14.1521 0.000944444 15.2082 0C16.2855 0 17.1887 0.407528 17.9178 1.22258C18.647 2.03764 19.0111 3.04678 19.0103 4.25C19.0103 5.43056 18.6461 6.43403 17.9178 7.26042C17.1895 8.08681 16.2863 8.5 15.2082 8.5Z" fill="#2CA6DE"/>
</svg>
