<svg width="45" height="45" viewBox="0 0 45 45" fill="none" xmlns="http://www.w3.org/2000/svg">
<path d="M7.5 37.5C6.46875 37.5 5.57813 37.1406 4.82813 36.4219C4.10938 35.6719 3.75 34.7813 3.75 33.75V11.25C3.75 10.2188 4.10938 9.34375 4.82813 8.625C5.57813 7.875 6.46875 7.5 7.5 7.5H37.5C38.5313 7.5 39.4063 7.875 40.125 8.625C40.875 9.34375 41.25 10.2188 41.25 11.25V33.75C41.25 34.7813 40.875 35.6719 40.125 36.4219C39.4063 37.1406 38.5313 37.5 37.5 37.5H7.5ZM22.5 24.375L37.5 15V11.25L22.5 20.625L7.5 11.25V15L22.5 24.375Z" fill="#BBBBBA"/>
</svg>
