<svg width="26" height="26" viewBox="0 0 26 26" fill="none" xmlns="http://www.w3.org/2000/svg">
<path d="M22.9813 5.72271L13.2422 2.47635C13.0756 2.42081 12.8954 2.42081 12.7288 2.47635L2.98974 5.72271C2.82814 5.77658 2.68758 5.87994 2.58799 6.01813C2.48839 6.15633 2.4348 6.32236 2.43481 6.49271V14.6086C2.43481 14.8239 2.52032 15.0303 2.67252 15.1825C2.82473 15.3347 3.03116 15.4202 3.24641 15.4202C3.46165 15.4202 3.66808 15.3347 3.82029 15.1825C3.97249 15.0303 4.058 14.8239 4.058 14.6086V7.61879L7.46566 8.754C6.56029 10.2167 6.27239 11.9789 6.66517 13.6537C7.05795 15.3285 8.0993 16.7789 9.56058 17.6866C7.7345 18.4028 6.15596 19.6983 5.00147 21.4696C4.94143 21.5588 4.89972 21.6591 4.87878 21.7646C4.85784 21.8701 4.85807 21.9787 4.87947 22.0841C4.90087 22.1895 4.94301 22.2896 5.00343 22.3786C5.06386 22.4676 5.14137 22.5437 5.23146 22.6024C5.32155 22.6612 5.42242 22.7015 5.5282 22.7209C5.63399 22.7403 5.74258 22.7385 5.84767 22.7156C5.95276 22.6927 6.05225 22.6492 6.14036 22.5875C6.22846 22.5258 6.30342 22.4472 6.36089 22.3563C7.88972 20.0108 10.3042 18.6666 12.9855 18.6666C15.6668 18.6666 18.0813 20.0108 19.6101 22.3563C19.7291 22.5332 19.913 22.6562 20.122 22.6986C20.331 22.741 20.5483 22.6995 20.7269 22.583C20.9055 22.4665 21.031 22.2844 21.0765 22.0761C21.1219 21.8677 21.0835 21.6499 20.9695 21.4696C19.815 19.6983 18.2304 18.4028 16.4104 17.6866C17.8703 16.779 18.9107 15.3294 19.3034 13.6559C19.6961 11.9823 19.4091 10.2213 18.5053 8.75908L22.9813 7.26778C23.1429 7.21394 23.2835 7.1106 23.3831 6.9724C23.4828 6.8342 23.5364 6.66815 23.5364 6.49778C23.5364 6.32741 23.4828 6.16136 23.3831 6.02317C23.2835 5.88497 23.1429 5.78162 22.9813 5.72778V5.72271ZM17.855 12.1738C17.8553 12.9437 17.673 13.7026 17.3231 14.3884C16.9732 15.0741 16.4657 15.6671 15.8422 16.1188C15.2188 16.5704 14.4971 16.8678 13.7365 16.9865C12.9758 17.1052 12.1979 17.0419 11.4665 16.8018C10.735 16.5616 10.0709 16.1515 9.52872 15.605C8.98649 15.0585 8.58157 14.3912 8.34716 13.6579C8.11276 12.9246 8.05556 12.1462 8.18025 11.3865C8.30495 10.6268 8.60798 9.90752 9.0645 9.28763L12.7288 10.505C12.8954 10.5606 13.0756 10.5606 13.2422 10.505L16.9065 9.28763C17.523 10.1236 17.8555 11.1351 17.855 12.1738ZM12.9855 8.88386L5.81306 6.49271L12.9855 4.10156L20.1579 6.49271L12.9855 8.88386Z" fill="#FFFEF4"/>
</svg>
