<svg width="60" height="60" viewBox="0 0 60 60" fill="none" xmlns="http://www.w3.org/2000/svg">
<path d="M60 30C60 46.5685 46.5685 60 30 60C13.4315 60 0 46.5685 0 30C0 13.4315 13.4315 0 30 0C46.5685 0 60 13.4315 60 30ZM30 13.125C30 12.0895 29.1605 11.25 28.125 11.25C27.0895 11.25 26.25 12.0895 26.25 13.125V33.75C26.25 34.4229 26.6105 35.0441 27.1947 35.378L40.3197 42.878C41.2188 43.3917 42.3642 43.0794 42.878 42.1803C43.3917 41.2812 43.0794 40.1358 42.1803 39.622L30 32.6619V13.125Z" fill="black"/>
</svg>
