<svg width="60" height="60" viewBox="0 0 60 60" fill="none" xmlns="http://www.w3.org/2000/svg">
<path d="M31.875 10.0748C34.326 7.49244 38.5575 6.75269 43.5462 7.25587C48.1729 7.72254 52.9313 9.21637 56.25 10.603V47.8161C52.8086 46.5039 48.349 45.2213 43.9225 44.7748C39.8226 44.3613 35.3808 44.6341 31.875 46.6217V10.0748ZM30 6.6861C26.3066 3.51136 20.9506 3.03327 16.0775 3.5248C10.3996 4.0975 4.6672 6.04592 1.09912 7.66777C0.429755 7.97203 0 8.63944 0 9.37471V50.6247C0 51.2622 0.32391 51.8561 0.859902 52.2012C1.39589 52.5463 2.07052 52.5955 2.65088 52.3317C5.9578 50.8285 11.2879 49.0269 16.4538 48.5059C21.7337 47.9733 26.1655 48.8331 28.5359 51.796C28.8917 52.2408 29.4304 52.4997 30 52.4997C30.5696 52.4997 31.1083 52.2408 31.4641 51.796C33.8345 48.8331 38.2663 47.9733 43.5462 48.5059C48.7121 49.0269 54.0422 50.8285 57.3491 52.3317C57.9295 52.5955 58.6041 52.5463 59.1401 52.2012C59.6761 51.8561 60 51.2622 60 50.6247V9.37471C60 8.63944 59.5702 7.97203 58.9009 7.66777C55.3328 6.04592 49.6004 4.0975 43.9225 3.5248C39.0494 3.03327 33.6934 3.51136 30 6.6861Z" fill="black"/>
</svg>
