<svg width="60" height="60" viewBox="0 0 60 60" fill="none" xmlns="http://www.w3.org/2000/svg">
<path d="M56.25 1.875C56.25 1.22517 55.9135 0.621669 55.3607 0.280032C54.808 -0.0616057 54.1177 -0.0926632 53.5365 0.197951L23.5365 15.198C22.9013 15.5156 22.5 16.1648 22.5 16.875V28.6486L1.28207 35.7212C0.516431 35.9764 0 36.6929 0 37.5V58.125C0 59.1605 0.839466 60 1.875 60H35.625C36.6605 60 37.5 59.1605 37.5 58.125V52.5H41.25V58.125C41.25 59.1605 42.0895 60 43.125 60H54.375C55.4105 60 56.25 59.1605 56.25 58.125V1.875ZM7.5 41.25H11.25V45H7.5V41.25ZM15 41.25H18.75V45H15V41.25ZM11.25 48.75V52.5H7.5V48.75H11.25ZM15 48.75H18.75V52.5H15V48.75ZM48.75 11.25V15H45V11.25H48.75ZM30 18.75H33.75V22.5H30V18.75ZM33.75 26.25V30H30V26.25H33.75ZM30 33.75H33.75V37.5H30V33.75ZM37.5 33.75H41.25V37.5H37.5V33.75ZM33.75 41.25V45H30V41.25H33.75ZM37.5 41.25H41.25V45H37.5V41.25ZM48.75 33.75V37.5H45V33.75H48.75ZM45 41.25H48.75V45H45V41.25ZM37.5 26.25H41.25V30H37.5V26.25ZM48.75 26.25V30H45V26.25H48.75ZM41.25 18.75V22.5H37.5V18.75H41.25ZM45 18.75H48.75V22.5H45V18.75Z" fill="black"/>
</svg>
