<svg width="60" height="60" viewBox="0 0 60 60" fill="none" xmlns="http://www.w3.org/2000/svg">
<path d="M13.125 0C14.1605 0 15 0.839466 15 1.875V3.75H45V1.875C45 0.839466 45.8395 0 46.875 0C47.9105 0 48.75 0.839466 48.75 1.875V3.75H52.5C56.6421 3.75 60 7.10786 60 11.25V52.5C60 56.6421 56.6421 60 52.5 60H7.5C3.35787 60 0 56.6421 0 52.5V11.25C0 7.10786 3.35786 3.75 7.5 3.75H11.25V1.875C11.25 0.839466 12.0895 0 13.125 0ZM50.4545 11.25H9.54545C8.41578 11.25 7.5 12.0895 7.5 13.125V16.875C7.5 17.9105 8.41578 18.75 9.54545 18.75H50.4545C51.5842 18.75 52.5 17.9105 52.5 16.875V13.125C52.5 12.0895 51.5842 11.25 50.4545 11.25ZM31.875 26.25C30.8395 26.25 30 27.0895 30 28.125V31.875C30 32.9105 30.8395 33.75 31.875 33.75H35.625C36.6605 33.75 37.5 32.9105 37.5 31.875V28.125C37.5 27.0895 36.6605 26.25 35.625 26.25H31.875ZM43.125 26.25C42.0895 26.25 41.25 27.0895 41.25 28.125V31.875C41.25 32.9105 42.0895 33.75 43.125 33.75H46.875C47.9105 33.75 48.75 32.9105 48.75 31.875V28.125C48.75 27.0895 47.9105 26.25 46.875 26.25H43.125ZM11.25 39.375V43.125C11.25 44.1605 12.0895 45 13.125 45H16.875C17.9105 45 18.75 44.1605 18.75 43.125V39.375C18.75 38.3395 17.9105 37.5 16.875 37.5H13.125C12.0895 37.5 11.25 38.3395 11.25 39.375ZM24.375 37.5C23.3395 37.5 22.5 38.3395 22.5 39.375V43.125C22.5 44.1605 23.3395 45 24.375 45H28.125C29.1605 45 30 44.1605 30 43.125V39.375C30 38.3395 29.1605 37.5 28.125 37.5H24.375Z" fill="black"/>
</svg>
