<svg width="60" height="60" viewBox="0 0 60 60" fill="none" xmlns="http://www.w3.org/2000/svg">
<path d="M24.375 0C23.3395 0 22.5 0.839466 22.5 1.875C22.5 2.91053 23.3395 3.75 24.375 3.75H26.25V7.76604C13.5281 9.58646 3.75 20.5255 3.75 33.75C3.75 48.2475 15.5025 60 30 60C44.4975 60 56.25 48.2475 56.25 33.75C56.25 27.1753 53.8332 21.1656 49.8394 16.5603C49.8556 16.5452 49.8716 16.5297 49.8875 16.5139L51.2133 15.1881L52.5391 16.5139C53.2713 17.2461 54.4585 17.2461 55.1908 16.5139C55.923 15.7817 55.923 14.5945 55.1908 13.8622L49.8875 8.55895C49.1552 7.82672 47.968 7.82672 47.2358 8.55895C46.5036 9.29118 46.5036 10.4784 47.2358 11.2106L48.5616 12.5364L47.2358 13.8622C47.2199 13.8781 47.2044 13.8942 47.1893 13.9104C43.476 10.6906 38.8495 8.49574 33.75 7.76604V3.75H35.625C36.6605 3.75 37.5 2.91053 37.5 1.875C37.5 0.839466 36.6605 0 35.625 0H24.375ZM31.875 20.9999L31.875 33.75C31.875 34.2473 31.6775 34.7242 31.3258 35.0758C30.9742 35.4275 30.4973 35.625 30 35.625H16.875C15.8395 35.625 15 34.7855 15 33.75C15 32.7145 15.8395 31.875 16.875 31.875H28.125L28.125 20.9999C28.125 19.9644 28.9644 19.1249 29.9999 19.1249C31.0355 19.1249 31.875 19.9644 31.875 20.9999Z" fill="black"/>
</svg>
