<svg width="60" height="60" viewBox="0 0 60 60" fill="none" xmlns="http://www.w3.org/2000/svg">
<path d="M26.25 52.5C26.25 52.5 22.5 52.5 22.5 48.75C22.5 45 26.25 33.75 41.25 33.75C56.25 33.75 60 45 60 48.75C60 52.5 56.25 52.5 56.25 52.5H26.25Z" fill="black"/>
<path d="M41.25 30C47.4632 30 52.5 24.9632 52.5 18.75C52.5 12.5368 47.4632 7.5 41.25 7.5C35.0368 7.5 30 12.5368 30 18.75C30 24.9632 35.0368 30 41.25 30Z" fill="black"/>
<path d="M19.5614 52.5C19.0334 51.4347 18.75 50.1718 18.75 48.75C18.75 43.667 21.2965 38.4396 26.0097 34.7999C23.9479 34.1404 21.5441 33.75 18.75 33.75C3.75 33.75 0 45 0 48.75C0 52.5 3.75 52.5 3.75 52.5H19.5614Z" fill="black"/>
<path d="M16.875 30C22.0527 30 26.25 25.8027 26.25 20.625C26.25 15.4473 22.0527 11.25 16.875 11.25C11.6973 11.25 7.5 15.4473 7.5 20.625C7.5 25.8027 11.6973 30 16.875 30Z" fill="black"/>
</svg>
