<svg width="55" height="55" viewBox="0 0 55 55" fill="none" xmlns="http://www.w3.org/2000/svg">
<path d="M6.875 0C3.07804 0 0 3.07804 0 6.875V48.125C0 51.922 3.07804 55 6.875 55H48.125C51.922 55 55 51.922 55 48.125V6.875C55 3.07804 51.922 0 48.125 0H6.875ZM29.2188 15.4688V25.7812H39.5312C40.4805 25.7812 41.25 26.5508 41.25 27.5C41.25 28.4492 40.4805 29.2188 39.5312 29.2188H29.2188V39.5312C29.2188 40.4805 28.4492 41.25 27.5 41.25C26.5508 41.25 25.7812 40.4805 25.7812 39.5312V29.2188H15.4688C14.5195 29.2188 13.75 28.4492 13.75 27.5C13.75 26.5508 14.5195 25.7812 15.4688 25.7812H25.7812V15.4688C25.7812 14.5195 26.5508 13.75 27.5 13.75C28.4492 13.75 29.2188 14.5195 29.2188 15.4688Z" fill="#49454F"/>
</svg>
