<svg width="651" height="161" viewBox="0 0 651 161" fill="none" xmlns="http://www.w3.org/2000/svg">
<rect y="103" width="34.9606" height="58" rx="8" fill="#E9EDF7"/>
<rect x="55.9607" y="19" width="34.9606" height="142" rx="8" fill="#E9EDF7"/>
<rect x="111.921" y="63" width="34.9606" height="98" rx="8" fill="#E9EDF7"/>
<rect x="167.882" y="49" width="34.9606" height="112" rx="8" fill="#E9EDF7"/>
<rect x="223.843" y="71" width="34.9606" height="90" rx="8" fill="#E9EDF7"/>
<rect x="279.803" width="34.9606" height="161" rx="8" fill="#2CA6DE"/>
<rect x="335.764" y="83" width="34.9606" height="78" rx="8" fill="#E9EDF7"/>
<rect x="391.725" y="19" width="34.9606" height="142" rx="8" fill="#E9EDF7"/>
<rect x="447.686" y="122" width="34.9606" height="39" rx="8" fill="#E9EDF7"/>
<rect x="503.646" y="49" width="34.9606" height="112" rx="8" fill="#E9EDF7"/>
<rect x="559.607" y="98" width="34.9606" height="63" rx="8" fill="#E9EDF7"/>
<rect x="615.568" y="63" width="34.9606" height="98" rx="8" fill="#E9EDF7"/>
</svg>
