<svg width="278" height="238" viewBox="0 0 278 238" fill="none" xmlns="http://www.w3.org/2000/svg">
<path fill-rule="evenodd" clip-rule="evenodd" d="M137.809 200.741C192.803 200.741 237.741 155.803 237.741 100.809C237.741 44.9373 192.803 0 137.809 0C81.9373 0 37 44.9373 37 100.809C37 155.803 81.9373 200.741 137.809 200.741Z" fill="#2CA6DE"/>
<mask id="mask0_35_452" style="mask-type:luminance" maskUnits="userSpaceOnUse" x="37" y="0" width="201" height="201">
<path fill-rule="evenodd" clip-rule="evenodd" d="M137.809 200.741C192.803 200.741 237.741 155.803 237.741 100.809C237.741 44.9373 192.803 0 137.809 0C81.9373 0 37 44.9373 37 100.809C37 155.803 81.9373 200.741 137.809 200.741Z" fill="white"/>
</mask>
<g mask="url(#mask0_35_452)">
</g>
<path d="M161.861 62.7519C149.722 82.2279 140.918 98.7032 140.918 98.7032L72.796 189.164C72.1793 188.744 71.5656 188.319 70.9567 187.886C60.1545 180.203 50.5961 170.401 42.9449 158.619C26.3118 133.006 21.8924 102.968 28.2214 75.3009L134.63 99.1329L161.861 62.7519Z" fill="#6B7DF2"/>
<path d="M222.859 46.693C253.059 93.1981 239.525 155.587 192.628 186.042C155.829 209.94 109.425 207.072 76.5559 182.262L137.91 101.95L198.466 20.7628C207.841 27.6796 216.148 36.3589 222.859 46.693Z" fill="#156884"/>
<path d="M138.499 0C193.807 0.000120612 239 45.2197 239 101.441C239 156.781 193.807 202 138.499 202C130.045 202 121.84 200.975 114 199.047L138.499 101L136.927 0.0126953C137.45 0.0048284 137.974 0 138.499 0Z" fill="#F4BE5E"/>
<path d="M41.654 126.553L41.304 126.987C41.5 126.889 41.71 126.814 41.934 126.763C42.1627 126.707 42.4077 126.679 42.669 126.679C43.0517 126.679 43.4227 126.742 43.782 126.868C44.146 126.994 44.4657 127.185 44.741 127.442C45.0163 127.694 45.238 128.009 45.406 128.387C45.574 128.765 45.658 129.206 45.658 129.71C45.658 130.181 45.5717 130.625 45.399 131.04C45.2263 131.451 44.9837 131.81 44.671 132.118C44.3583 132.426 43.9803 132.669 43.537 132.846C43.0983 133.023 42.613 133.112 42.081 133.112C41.5397 133.112 41.0543 133.026 40.625 132.853C40.1957 132.68 39.8293 132.44 39.526 132.132C39.2227 131.819 38.9893 131.446 38.826 131.012C38.6673 130.573 38.588 130.088 38.588 129.556C38.588 129.08 38.6837 128.592 38.875 128.093C39.071 127.589 39.372 127.066 39.778 126.525L42.193 123.284C42.277 123.172 42.3983 123.076 42.557 122.997C42.7203 122.918 42.907 122.878 43.117 122.878H44.657L41.654 126.553ZM42.046 131.698C42.3213 131.698 42.5733 131.651 42.802 131.558C43.0353 131.465 43.2337 131.334 43.397 131.166C43.565 130.998 43.6957 130.802 43.789 130.578C43.8823 130.349 43.929 130.102 43.929 129.836C43.929 129.547 43.8847 129.288 43.796 129.059C43.7073 128.826 43.5813 128.63 43.418 128.471C43.2547 128.308 43.0587 128.184 42.83 128.1C42.6013 128.016 42.3493 127.974 42.074 127.974C41.7987 127.974 41.549 128.021 41.325 128.114C41.101 128.207 40.9097 128.338 40.751 128.506C40.5923 128.669 40.4687 128.865 40.38 129.094C40.2913 129.318 40.247 129.561 40.247 129.822C40.247 130.102 40.2843 130.359 40.359 130.592C40.4383 130.821 40.5527 131.017 40.702 131.18C40.856 131.343 41.045 131.472 41.269 131.565C41.493 131.654 41.752 131.698 42.046 131.698ZM48.9631 126.553C49.1871 126.506 49.4018 126.474 49.6071 126.455C49.8124 126.432 50.0108 126.42 50.2021 126.42C50.7341 126.42 51.2031 126.499 51.6091 126.658C52.0151 126.817 52.3558 127.036 52.6311 127.316C52.9064 127.596 53.1141 127.925 53.2541 128.303C53.3941 128.676 53.4641 129.08 53.4641 129.514C53.4641 130.051 53.3684 130.541 53.1771 130.984C52.9904 131.427 52.7291 131.808 52.3931 132.125C52.0571 132.438 51.6581 132.68 51.1961 132.853C50.7388 133.026 50.2394 133.112 49.6981 133.112C49.3808 133.112 49.0798 133.079 48.7951 133.014C48.5104 132.949 48.2421 132.862 47.9901 132.755C47.7428 132.643 47.5118 132.517 47.2971 132.377C47.0871 132.232 46.8981 132.081 46.7301 131.922L47.2621 131.187C47.3741 131.028 47.5211 130.949 47.7031 130.949C47.8198 130.949 47.9388 130.986 48.0601 131.061C48.1814 131.136 48.3191 131.217 48.4731 131.306C48.6318 131.395 48.8161 131.476 49.0261 131.551C49.2408 131.626 49.4974 131.663 49.7961 131.663C50.1134 131.663 50.3934 131.612 50.6361 131.509C50.8788 131.406 51.0794 131.264 51.2381 131.082C51.4014 130.895 51.5228 130.676 51.6021 130.424C51.6861 130.167 51.7281 129.89 51.7281 129.591C51.7281 129.04 51.5671 128.611 51.2451 128.303C50.9278 127.99 50.4564 127.834 49.8311 127.834C49.3504 127.834 48.8581 127.923 48.3541 128.1L47.2761 127.792L48.1161 122.878H53.1141V123.613C53.1141 123.86 53.0371 124.061 52.8831 124.215C52.7291 124.369 52.4678 124.446 52.0991 124.446H49.3201L48.9631 126.553ZM59.4572 125.328C59.4572 125.711 59.3919 126.056 59.2612 126.364C59.1352 126.672 58.9649 126.936 58.7502 127.155C58.5355 127.37 58.2859 127.535 58.0012 127.652C57.7165 127.769 57.4202 127.827 57.1122 127.827C56.7762 127.827 56.4659 127.769 56.1812 127.652C55.8965 127.535 55.6492 127.37 55.4392 127.155C55.2339 126.936 55.0729 126.672 54.9562 126.364C54.8395 126.056 54.7812 125.711 54.7812 125.328C54.7812 124.936 54.8395 124.581 54.9562 124.264C55.0729 123.947 55.2339 123.678 55.4392 123.459C55.6492 123.24 55.8965 123.072 56.1812 122.955C56.4659 122.834 56.7762 122.773 57.1122 122.773C57.4482 122.773 57.7585 122.834 58.0432 122.955C58.3325 123.072 58.5822 123.24 58.7922 123.459C59.0022 123.678 59.1655 123.947 59.2822 124.264C59.3989 124.581 59.4572 124.936 59.4572 125.328ZM58.1272 125.328C58.1272 125.057 58.0992 124.831 58.0432 124.649C57.9919 124.467 57.9195 124.32 57.8262 124.208C57.7375 124.096 57.6302 124.017 57.5042 123.97C57.3829 123.919 57.2522 123.893 57.1122 123.893C56.9722 123.893 56.8415 123.919 56.7202 123.97C56.5989 124.017 56.4939 124.096 56.4052 124.208C56.3212 124.32 56.2535 124.467 56.2022 124.649C56.1509 124.831 56.1252 125.057 56.1252 125.328C56.1252 125.589 56.1509 125.809 56.2022 125.986C56.2535 126.159 56.3212 126.299 56.4052 126.406C56.4939 126.513 56.5989 126.59 56.7202 126.637C56.8415 126.684 56.9722 126.707 57.1122 126.707C57.2522 126.707 57.3829 126.684 57.5042 126.637C57.6302 126.59 57.7375 126.513 57.8262 126.406C57.9195 126.299 57.9919 126.159 58.0432 125.986C58.0992 125.809 58.1272 125.589 58.1272 125.328ZM62.8242 123.151C62.8849 123.081 62.9549 123.018 63.0342 122.962C63.1182 122.906 63.2349 122.878 63.3842 122.878H64.6442L57.1262 132.741C57.0655 132.816 56.9932 132.879 56.9092 132.93C56.8252 132.977 56.7225 133 56.6012 133H55.3132L62.8242 123.151ZM65.1762 130.62C65.1762 131.003 65.1109 131.348 64.9802 131.656C64.8542 131.964 64.6839 132.228 64.4692 132.447C64.2545 132.662 64.0049 132.83 63.7202 132.951C63.4355 133.068 63.1392 133.126 62.8312 133.126C62.4952 133.126 62.1849 133.068 61.9002 132.951C61.6155 132.83 61.3682 132.662 61.1582 132.447C60.9529 132.228 60.7919 131.964 60.6752 131.656C60.5585 131.348 60.5002 131.003 60.5002 130.62C60.5002 130.228 60.5585 129.873 60.6752 129.556C60.7919 129.239 60.9529 128.97 61.1582 128.751C61.3682 128.532 61.6155 128.364 61.9002 128.247C62.1849 128.126 62.4952 128.065 62.8312 128.065C63.1672 128.065 63.4775 128.126 63.7622 128.247C64.0515 128.364 64.2989 128.532 64.5042 128.751C64.7142 128.97 64.8775 129.239 64.9942 129.556C65.1155 129.873 65.1762 130.228 65.1762 130.62ZM63.8392 130.62C63.8392 130.349 63.8135 130.123 63.7622 129.941C63.7109 129.759 63.6385 129.612 63.5452 129.5C63.4565 129.388 63.3492 129.309 63.2232 129.262C63.1019 129.211 62.9712 129.185 62.8312 129.185C62.6912 129.185 62.5605 129.211 62.4392 129.262C62.3179 129.309 62.2129 129.388 62.1242 129.5C62.0355 129.612 61.9655 129.759 61.9142 129.941C61.8675 130.123 61.8442 130.349 61.8442 130.62C61.8442 130.881 61.8675 131.101 61.9142 131.278C61.9655 131.455 62.0355 131.598 62.1242 131.705C62.2129 131.812 62.3179 131.889 62.4392 131.936C62.5605 131.983 62.6912 132.006 62.8312 132.006C62.9712 132.006 63.1019 131.983 63.2232 131.936C63.3492 131.889 63.4565 131.812 63.5452 131.705C63.6385 131.598 63.7109 131.455 63.7622 131.278C63.8135 131.101 63.8392 130.881 63.8392 130.62Z" fill="white"/>
<path fill-rule="evenodd" clip-rule="evenodd" d="M138 171C176.66 171 208 139.66 208 101C208 62.3401 176.66 31 138 31C99.3401 31 68 62.3401 68 101C68 139.66 99.3401 171 138 171Z" fill="white"/>
</svg>
