<svg width="652" height="17" viewBox="0 0 652 17" fill="none" xmlns="http://www.w3.org/2000/svg">
<path d="M11.03 14.144C10.51 14.144 10.062 14.048 9.68598 13.856C9.30998 13.656 9.01798 13.368 8.80998 12.992C8.60198 12.616 8.49798 12.168 8.49798 11.648H9.70998C9.70998 11.92 9.75398 12.164 9.84198 12.38C9.92998 12.596 10.066 12.768 10.25 12.896C10.442 13.016 10.694 13.076 11.006 13.076C11.31 13.076 11.554 13.016 11.738 12.896C11.922 12.776 12.054 12.616 12.134 12.416C12.214 12.208 12.254 11.972 12.254 11.708V5.6H13.454V11.708C13.454 12.484 13.238 13.084 12.806 13.508C12.374 13.932 11.782 14.144 11.03 14.144ZM16.9172 14.144C16.4292 14.144 16.0212 14.06 15.6932 13.892C15.3732 13.716 15.1332 13.484 14.9732 13.196C14.8132 12.908 14.7332 12.596 14.7332 12.26C14.7332 11.86 14.8332 11.516 15.0332 11.228C15.2412 10.94 15.5372 10.72 15.9212 10.568C16.3052 10.416 16.7652 10.34 17.3012 10.34H18.8612C18.8612 9.972 18.8132 9.668 18.7172 9.428C18.6212 9.188 18.4692 9.008 18.2612 8.888C18.0612 8.768 17.8012 8.708 17.4812 8.708C17.1292 8.708 16.8292 8.792 16.5812 8.96C16.3332 9.128 16.1772 9.376 16.1132 9.704H14.9132C14.9612 9.28 15.1052 8.92 15.3452 8.624C15.5852 8.328 15.8892 8.1 16.2572 7.94C16.6332 7.78 17.0412 7.7 17.4812 7.7C18.0492 7.7 18.5212 7.8 18.8972 8C19.2812 8.2 19.5692 8.484 19.7612 8.852C19.9612 9.212 20.0612 9.644 20.0612 10.148V14H19.0052L18.9092 12.968C18.8292 13.136 18.7252 13.292 18.5972 13.436C18.4772 13.572 18.3332 13.696 18.1652 13.808C18.0052 13.912 17.8212 13.992 17.6132 14.048C17.4052 14.112 17.1732 14.144 16.9172 14.144ZM17.1452 13.172C17.3932 13.172 17.6212 13.12 17.8292 13.016C18.0372 12.904 18.2132 12.76 18.3572 12.584C18.5092 12.4 18.6252 12.196 18.7052 11.972C18.7852 11.74 18.8292 11.496 18.8372 11.24V11.18H17.4212C17.0772 11.18 16.8012 11.224 16.5932 11.312C16.3852 11.4 16.2332 11.52 16.1372 11.672C16.0412 11.816 15.9932 11.984 15.9932 12.176C15.9932 12.376 16.0372 12.552 16.1252 12.704C16.2132 12.848 16.3452 12.964 16.5212 13.052C16.6972 13.132 16.9052 13.172 17.1452 13.172ZM21.4 14V7.844H22.48L22.552 8.852C22.736 8.5 23 8.22 23.344 8.012C23.696 7.804 24.104 7.7 24.568 7.7C25.04 7.7 25.448 7.796 25.792 7.988C26.136 8.172 26.404 8.456 26.596 8.84C26.788 9.216 26.884 9.688 26.884 10.256V14H25.684V10.376C25.684 9.832 25.556 9.424 25.3 9.152C25.052 8.872 24.7 8.732 24.244 8.732C23.94 8.732 23.66 8.804 23.404 8.948C23.156 9.092 22.96 9.304 22.816 9.584C22.672 9.856 22.6 10.192 22.6 10.592V14H21.4Z" fill="#A3AED0"/>
<path d="M64.6217 14V5.6H69.8537V6.584H65.8217V9.308H69.1937V10.268H65.8217V14H64.6217ZM73.2918 14.144C72.7078 14.144 72.1918 14.012 71.7438 13.748C71.3038 13.476 70.9598 13.1 70.7118 12.62C70.4638 12.14 70.3398 11.58 70.3398 10.94C70.3398 10.292 70.4638 9.728 70.7118 9.248C70.9598 8.76 71.3078 8.38 71.7558 8.108C72.2038 7.836 72.7198 7.7 73.3038 7.7C73.9038 7.7 74.4158 7.836 74.8398 8.108C75.2638 8.372 75.5878 8.728 75.8118 9.176C76.0358 9.616 76.1478 10.108 76.1478 10.652C76.1478 10.732 76.1438 10.816 76.1358 10.904C76.1358 10.992 76.1318 11.092 76.1238 11.204H71.2158V10.364H74.9478C74.9318 9.836 74.7678 9.428 74.4558 9.14C74.1438 8.844 73.7558 8.696 73.2918 8.696C72.9718 8.696 72.6758 8.772 72.4038 8.924C72.1398 9.076 71.9238 9.3 71.7558 9.596C71.5958 9.884 71.5158 10.252 71.5158 10.7V11.036C71.5158 11.492 71.5958 11.88 71.7558 12.2C71.9158 12.512 72.1278 12.748 72.3918 12.908C72.6638 13.068 72.9598 13.148 73.2798 13.148C73.6798 13.148 73.9998 13.068 74.2398 12.908C74.4798 12.74 74.6558 12.516 74.7678 12.236H75.9798C75.8758 12.596 75.6998 12.92 75.4518 13.208C75.2038 13.496 74.8958 13.724 74.5278 13.892C74.1678 14.06 73.7558 14.144 73.2918 14.144ZM80.5533 14.144C80.2093 14.144 79.9013 14.096 79.6293 14C79.3653 13.896 79.1333 13.764 78.9333 13.604C78.7413 13.444 78.5853 13.268 78.4653 13.076L78.3453 14H77.2653V5.36H78.4653V8.792C78.6573 8.464 78.9293 8.2 79.2813 8C79.6413 7.8 80.0613 7.7 80.5413 7.7C81.1173 7.7 81.6213 7.84 82.0533 8.12C82.4933 8.4 82.8333 8.78 83.0733 9.26C83.3213 9.74 83.4453 10.292 83.4453 10.916C83.4453 11.532 83.3213 12.084 83.0733 12.572C82.8333 13.06 82.4973 13.444 82.0653 13.724C81.6333 14.004 81.1293 14.144 80.5533 14.144ZM80.3493 13.1C80.7093 13.1 81.0293 13.012 81.3093 12.836C81.5893 12.652 81.8093 12.4 81.9693 12.08C82.1373 11.752 82.2213 11.368 82.2213 10.928C82.2213 10.488 82.1373 10.104 81.9693 9.776C81.8093 9.448 81.5893 9.196 81.3093 9.02C81.0293 8.836 80.7093 8.744 80.3493 8.744C79.9733 8.744 79.6453 8.836 79.3653 9.02C79.0853 9.196 78.8653 9.448 78.7053 9.776C78.5533 10.104 78.4773 10.488 78.4773 10.928C78.4773 11.368 78.5533 11.752 78.7053 12.08C78.8653 12.4 79.0853 12.652 79.3653 12.836C79.6453 13.012 79.9733 13.1 80.3493 13.1Z" fill="#A3AED0"/>
<path d="M120.217 14V5.6H121.633L124.429 11.288L127.213 5.6H128.629V14H127.429V7.712L124.885 12.848H123.961L121.417 7.736V14H120.217ZM132.105 14.144C131.617 14.144 131.209 14.06 130.881 13.892C130.561 13.716 130.321 13.484 130.161 13.196C130.001 12.908 129.921 12.596 129.921 12.26C129.921 11.86 130.021 11.516 130.221 11.228C130.429 10.94 130.725 10.72 131.109 10.568C131.493 10.416 131.953 10.34 132.489 10.34H134.049C134.049 9.972 134.001 9.668 133.905 9.428C133.809 9.188 133.657 9.008 133.449 8.888C133.249 8.768 132.989 8.708 132.669 8.708C132.317 8.708 132.017 8.792 131.769 8.96C131.521 9.128 131.365 9.376 131.301 9.704H130.101C130.149 9.28 130.293 8.92 130.533 8.624C130.773 8.328 131.077 8.1 131.445 7.94C131.821 7.78 132.229 7.7 132.669 7.7C133.237 7.7 133.709 7.8 134.085 8C134.469 8.2 134.757 8.484 134.949 8.852C135.149 9.212 135.249 9.644 135.249 10.148V14H134.193L134.097 12.968C134.017 13.136 133.913 13.292 133.785 13.436C133.665 13.572 133.521 13.696 133.353 13.808C133.193 13.912 133.009 13.992 132.801 14.048C132.593 14.112 132.361 14.144 132.105 14.144ZM132.333 13.172C132.581 13.172 132.809 13.12 133.017 13.016C133.225 12.904 133.401 12.76 133.545 12.584C133.697 12.4 133.813 12.196 133.893 11.972C133.973 11.74 134.017 11.496 134.025 11.24V11.18H132.609C132.265 11.18 131.989 11.224 131.781 11.312C131.573 11.4 131.421 11.52 131.325 11.672C131.229 11.816 131.181 11.984 131.181 12.176C131.181 12.376 131.225 12.552 131.313 12.704C131.401 12.848 131.533 12.964 131.709 13.052C131.885 13.132 132.093 13.172 132.333 13.172ZM136.588 14V7.844H137.668L137.764 8.984C137.908 8.712 138.092 8.48 138.316 8.288C138.54 8.096 138.804 7.952 139.108 7.856C139.42 7.752 139.768 7.7 140.152 7.7V8.972H139.612C139.372 8.972 139.14 9.004 138.916 9.068C138.7 9.124 138.504 9.224 138.328 9.368C138.16 9.504 138.028 9.692 137.932 9.932C137.836 10.172 137.788 10.476 137.788 10.844V14H136.588Z" fill="#A3AED0"/>
<path d="M176.245 14L179.341 5.6H180.649L183.721 14H182.449L179.977 7.04L177.505 14H176.245ZM177.649 11.924L177.973 10.964H181.933L182.257 11.924H177.649ZM184.642 16.64V7.844H185.722L185.842 8.78C185.97 8.588 186.126 8.412 186.31 8.252C186.502 8.084 186.73 7.952 186.994 7.856C187.266 7.752 187.578 7.7 187.93 7.7C188.506 7.7 189.01 7.844 189.442 8.132C189.874 8.412 190.21 8.796 190.45 9.284C190.698 9.764 190.822 10.316 190.822 10.94C190.822 11.556 190.698 12.108 190.45 12.596C190.202 13.076 189.862 13.456 189.43 13.736C188.998 14.008 188.498 14.144 187.93 14.144C187.45 14.144 187.03 14.052 186.67 13.868C186.318 13.676 186.042 13.412 185.842 13.076V16.64H184.642ZM187.726 13.1C188.086 13.1 188.406 13.012 188.686 12.836C188.966 12.652 189.186 12.4 189.346 12.08C189.514 11.752 189.598 11.368 189.598 10.928C189.598 10.488 189.514 10.104 189.346 9.776C189.186 9.448 188.966 9.196 188.686 9.02C188.406 8.836 188.086 8.744 187.726 8.744C187.35 8.744 187.022 8.836 186.742 9.02C186.462 9.196 186.242 9.448 186.082 9.776C185.93 10.104 185.854 10.488 185.854 10.928C185.854 11.368 185.93 11.752 186.082 12.08C186.242 12.4 186.462 12.652 186.742 12.836C187.022 13.012 187.35 13.1 187.726 13.1ZM192.007 14V7.844H193.087L193.183 8.984C193.327 8.712 193.511 8.48 193.735 8.288C193.959 8.096 194.223 7.952 194.527 7.856C194.839 7.752 195.187 7.7 195.571 7.7V8.972H195.031C194.791 8.972 194.559 9.004 194.335 9.068C194.119 9.124 193.923 9.224 193.747 9.368C193.579 9.504 193.447 9.692 193.351 9.932C193.255 10.172 193.207 10.476 193.207 10.844V14H192.007Z" fill="#A3AED0"/>
<path d="M231.221 14V5.6H232.637L235.433 11.288L238.217 5.6H239.633V14H238.433V7.712L235.889 12.848H234.965L232.421 7.736V14H231.221ZM243.109 14.144C242.621 14.144 242.213 14.06 241.885 13.892C241.565 13.716 241.325 13.484 241.165 13.196C241.005 12.908 240.925 12.596 240.925 12.26C240.925 11.86 241.025 11.516 241.225 11.228C241.433 10.94 241.729 10.72 242.113 10.568C242.497 10.416 242.957 10.34 243.493 10.34H245.053C245.053 9.972 245.005 9.668 244.909 9.428C244.813 9.188 244.661 9.008 244.453 8.888C244.253 8.768 243.993 8.708 243.673 8.708C243.321 8.708 243.021 8.792 242.773 8.96C242.525 9.128 242.369 9.376 242.305 9.704H241.105C241.153 9.28 241.297 8.92 241.537 8.624C241.777 8.328 242.081 8.1 242.449 7.94C242.825 7.78 243.233 7.7 243.673 7.7C244.241 7.7 244.713 7.8 245.089 8C245.473 8.2 245.761 8.484 245.953 8.852C246.153 9.212 246.253 9.644 246.253 10.148V14H245.197L245.101 12.968C245.021 13.136 244.917 13.292 244.789 13.436C244.669 13.572 244.525 13.696 244.357 13.808C244.197 13.912 244.013 13.992 243.805 14.048C243.597 14.112 243.365 14.144 243.109 14.144ZM243.337 13.172C243.585 13.172 243.813 13.12 244.021 13.016C244.229 12.904 244.405 12.76 244.549 12.584C244.701 12.4 244.817 12.196 244.897 11.972C244.977 11.74 245.021 11.496 245.029 11.24V11.18H243.613C243.269 11.18 242.993 11.224 242.785 11.312C242.577 11.4 242.425 11.52 242.329 11.672C242.233 11.816 242.185 11.984 242.185 12.176C242.185 12.376 242.229 12.552 242.317 12.704C242.405 12.848 242.537 12.964 242.713 13.052C242.889 13.132 243.097 13.172 243.337 13.172ZM248.124 16.64L249.564 13.328H249.216L246.84 7.844H248.136L250.02 12.332L251.928 7.844H253.176L249.372 16.64H248.124Z" fill="#A3AED0"/>
<path d="M348.958 14.144C348.438 14.144 347.99 14.048 347.614 13.856C347.238 13.656 346.946 13.368 346.738 12.992C346.53 12.616 346.426 12.168 346.426 11.648H347.638C347.638 11.92 347.682 12.164 347.77 12.38C347.858 12.596 347.994 12.768 348.178 12.896C348.37 13.016 348.622 13.076 348.934 13.076C349.238 13.076 349.482 13.016 349.666 12.896C349.85 12.776 349.982 12.616 350.062 12.416C350.142 12.208 350.182 11.972 350.182 11.708V5.6H351.382V11.708C351.382 12.484 351.166 13.084 350.734 13.508C350.302 13.932 349.71 14.144 348.958 14.144ZM355.097 14.144C354.625 14.144 354.217 14.052 353.873 13.868C353.529 13.684 353.261 13.404 353.069 13.028C352.885 12.644 352.793 12.168 352.793 11.6V7.844H353.993V11.468C353.993 12.02 354.117 12.436 354.365 12.716C354.613 12.988 354.965 13.124 355.421 13.124C355.733 13.124 356.009 13.052 356.249 12.908C356.497 12.764 356.693 12.556 356.837 12.284C356.989 12.004 357.065 11.66 357.065 11.252V7.844H358.265V14H357.185L357.113 12.992C356.929 13.352 356.661 13.636 356.309 13.844C355.965 14.044 355.561 14.144 355.097 14.144ZM359.679 14V5.36H360.879V14H359.679Z" fill="#A3AED0"/>
<path d="M399.472 14L402.568 5.6H403.876L406.948 14H405.676L403.204 7.04L400.732 14H399.472ZM400.876 11.924L401.2 10.964H405.16L405.484 11.924H400.876ZM409.995 14.144C409.523 14.144 409.115 14.052 408.771 13.868C408.427 13.684 408.159 13.404 407.967 13.028C407.783 12.644 407.691 12.168 407.691 11.6V7.844H408.891V11.468C408.891 12.02 409.015 12.436 409.263 12.716C409.511 12.988 409.863 13.124 410.319 13.124C410.631 13.124 410.907 13.052 411.147 12.908C411.395 12.764 411.591 12.556 411.735 12.284C411.887 12.004 411.963 11.66 411.963 11.252V7.844H413.163V14H412.083L412.011 12.992C411.827 13.352 411.559 13.636 411.207 13.844C410.863 14.044 410.459 14.144 409.995 14.144ZM417.062 16.784C416.494 16.784 415.998 16.712 415.574 16.568C415.15 16.432 414.818 16.22 414.578 15.932C414.346 15.644 414.23 15.292 414.23 14.876C414.23 14.652 414.278 14.428 414.374 14.204C414.47 13.98 414.626 13.768 414.842 13.568C415.058 13.368 415.35 13.188 415.718 13.028L416.414 13.568C415.998 13.728 415.718 13.912 415.574 14.12C415.43 14.336 415.358 14.548 415.358 14.756C415.358 14.996 415.43 15.196 415.574 15.356C415.726 15.516 415.926 15.636 416.174 15.716C416.43 15.796 416.722 15.836 417.05 15.836C417.378 15.836 417.658 15.792 417.89 15.704C418.13 15.616 418.314 15.492 418.442 15.332C418.57 15.18 418.634 14.996 418.634 14.78C418.634 14.5 418.538 14.272 418.346 14.096C418.154 13.928 417.778 13.828 417.218 13.796C416.754 13.764 416.362 13.72 416.042 13.664C415.722 13.608 415.45 13.54 415.226 13.46C415.01 13.38 414.826 13.292 414.674 13.196C414.53 13.1 414.402 13 414.29 12.896V12.62L415.502 11.396L416.498 11.72L415.166 12.932L415.418 12.38C415.498 12.436 415.578 12.492 415.658 12.548C415.746 12.596 415.858 12.64 415.994 12.68C416.13 12.72 416.314 12.76 416.546 12.8C416.786 12.832 417.098 12.864 417.482 12.896C418.034 12.936 418.478 13.032 418.814 13.184C419.15 13.336 419.394 13.544 419.546 13.808C419.706 14.064 419.786 14.376 419.786 14.744C419.786 15.088 419.69 15.416 419.498 15.728C419.306 16.04 419.01 16.292 418.61 16.484C418.21 16.684 417.694 16.784 417.062 16.784ZM417.05 12.116C416.546 12.116 416.114 12.02 415.754 11.828C415.394 11.628 415.122 11.364 414.938 11.036C414.754 10.7 414.662 10.324 414.662 9.908C414.662 9.492 414.754 9.12 414.938 8.792C415.13 8.464 415.402 8.2 415.754 8C416.114 7.8 416.546 7.7 417.05 7.7C417.57 7.7 418.006 7.8 418.358 8C418.718 8.2 418.99 8.464 419.174 8.792C419.358 9.12 419.45 9.492 419.45 9.908C419.45 10.324 419.358 10.7 419.174 11.036C418.99 11.364 418.718 11.628 418.358 11.828C418.006 12.02 417.57 12.116 417.05 12.116ZM417.05 11.156C417.45 11.156 417.766 11.052 417.998 10.844C418.23 10.628 418.346 10.316 418.346 9.908C418.346 9.5 418.23 9.192 417.998 8.984C417.766 8.776 417.45 8.672 417.05 8.672C416.666 8.672 416.35 8.776 416.102 8.984C415.862 9.192 415.742 9.5 415.742 9.908C415.742 10.316 415.862 10.628 416.102 10.844C416.342 11.052 416.658 11.156 417.05 11.156ZM418.07 8.792L417.782 7.844H420.266V8.672L418.07 8.792Z" fill="#A3AED0"/>
<path d="M458.954 14.144C458.346 14.144 457.81 14.036 457.346 13.82C456.882 13.596 456.522 13.284 456.266 12.884C456.01 12.484 455.878 12.016 455.87 11.48H457.142C457.142 11.784 457.21 12.064 457.346 12.32C457.49 12.568 457.694 12.768 457.958 12.92C458.23 13.064 458.562 13.136 458.954 13.136C459.29 13.136 459.578 13.08 459.818 12.968C460.066 12.856 460.254 12.704 460.382 12.512C460.51 12.312 460.574 12.084 460.574 11.828C460.574 11.54 460.51 11.304 460.382 11.12C460.254 10.928 460.074 10.768 459.842 10.64C459.618 10.512 459.358 10.4 459.062 10.304C458.774 10.208 458.462 10.104 458.126 9.992C457.446 9.768 456.942 9.484 456.614 9.14C456.294 8.796 456.134 8.348 456.134 7.796C456.134 7.324 456.242 6.916 456.458 6.572C456.682 6.22 456.998 5.948 457.406 5.756C457.814 5.556 458.29 5.456 458.834 5.456C459.386 5.456 459.862 5.556 460.262 5.756C460.67 5.956 460.99 6.232 461.222 6.584C461.454 6.936 461.574 7.348 461.582 7.82H460.31C460.31 7.604 460.25 7.392 460.13 7.184C460.018 6.976 459.85 6.808 459.626 6.68C459.41 6.544 459.138 6.476 458.81 6.476C458.53 6.468 458.282 6.512 458.066 6.608C457.85 6.704 457.682 6.844 457.562 7.028C457.442 7.212 457.382 7.432 457.382 7.688C457.382 7.944 457.438 8.152 457.55 8.312C457.662 8.464 457.818 8.596 458.018 8.708C458.226 8.82 458.47 8.924 458.75 9.02C459.03 9.108 459.338 9.208 459.674 9.32C460.082 9.456 460.45 9.624 460.778 9.824C461.106 10.016 461.362 10.268 461.546 10.58C461.738 10.884 461.834 11.276 461.834 11.756C461.834 12.172 461.726 12.56 461.51 12.92C461.294 13.28 460.974 13.576 460.55 13.808C460.126 14.032 459.594 14.144 458.954 14.144ZM465.708 14.144C465.124 14.144 464.608 14.012 464.16 13.748C463.72 13.476 463.376 13.1 463.128 12.62C462.88 12.14 462.756 11.58 462.756 10.94C462.756 10.292 462.88 9.728 463.128 9.248C463.376 8.76 463.724 8.38 464.172 8.108C464.62 7.836 465.136 7.7 465.72 7.7C466.32 7.7 466.832 7.836 467.256 8.108C467.68 8.372 468.004 8.728 468.228 9.176C468.452 9.616 468.564 10.108 468.564 10.652C468.564 10.732 468.56 10.816 468.552 10.904C468.552 10.992 468.548 11.092 468.54 11.204H463.632V10.364H467.364C467.348 9.836 467.184 9.428 466.872 9.14C466.56 8.844 466.172 8.696 465.708 8.696C465.388 8.696 465.092 8.772 464.82 8.924C464.556 9.076 464.34 9.3 464.172 9.596C464.012 9.884 463.932 10.252 463.932 10.7V11.036C463.932 11.492 464.012 11.88 464.172 12.2C464.332 12.512 464.544 12.748 464.808 12.908C465.08 13.068 465.376 13.148 465.696 13.148C466.096 13.148 466.416 13.068 466.656 12.908C466.896 12.74 467.072 12.516 467.184 12.236H468.396C468.292 12.596 468.116 12.92 467.868 13.208C467.62 13.496 467.312 13.724 466.944 13.892C466.584 14.06 466.172 14.144 465.708 14.144ZM469.681 16.64V7.844H470.761L470.881 8.78C471.009 8.588 471.165 8.412 471.349 8.252C471.541 8.084 471.769 7.952 472.033 7.856C472.305 7.752 472.617 7.7 472.969 7.7C473.545 7.7 474.049 7.844 474.481 8.132C474.913 8.412 475.249 8.796 475.489 9.284C475.737 9.764 475.861 10.316 475.861 10.94C475.861 11.556 475.737 12.108 475.489 12.596C475.241 13.076 474.901 13.456 474.469 13.736C474.037 14.008 473.537 14.144 472.969 14.144C472.489 14.144 472.069 14.052 471.709 13.868C471.357 13.676 471.081 13.412 470.881 13.076V16.64H469.681ZM472.765 13.1C473.125 13.1 473.445 13.012 473.725 12.836C474.005 12.652 474.225 12.4 474.385 12.08C474.553 11.752 474.637 11.368 474.637 10.928C474.637 10.488 474.553 10.104 474.385 9.776C474.225 9.448 474.005 9.196 473.725 9.02C473.445 8.836 473.125 8.744 472.765 8.744C472.389 8.744 472.061 8.836 471.781 9.02C471.501 9.196 471.281 9.448 471.121 9.776C470.969 10.104 470.893 10.488 470.893 10.928C470.893 11.368 470.969 11.752 471.121 12.08C471.281 12.4 471.501 12.652 471.781 12.836C472.061 13.012 472.389 13.1 472.765 13.1Z" fill="#A3AED0"/>
<path d="M516.218 14.144C515.426 14.144 514.726 13.964 514.118 13.604C513.518 13.236 513.046 12.728 512.702 12.08C512.366 11.424 512.198 10.664 512.198 9.8C512.198 8.944 512.366 8.192 512.702 7.544C513.046 6.888 513.518 6.376 514.118 6.008C514.726 5.64 515.426 5.456 516.218 5.456C517.026 5.456 517.73 5.64 518.33 6.008C518.938 6.376 519.41 6.888 519.746 7.544C520.082 8.192 520.25 8.944 520.25 9.8C520.25 10.664 520.082 11.424 519.746 12.08C519.41 12.728 518.938 13.236 518.33 13.604C517.73 13.964 517.026 14.144 516.218 14.144ZM516.218 13.076C516.786 13.076 517.278 12.944 517.694 12.68C518.118 12.416 518.446 12.04 518.678 11.552C518.91 11.064 519.026 10.48 519.026 9.8C519.026 9.12 518.91 8.536 518.678 8.048C518.446 7.56 518.118 7.188 517.694 6.932C517.278 6.668 516.786 6.536 516.218 6.536C515.658 6.536 515.166 6.668 514.742 6.932C514.326 7.188 514.002 7.56 513.77 8.048C513.538 8.536 513.422 9.12 513.422 9.8C513.422 10.48 513.538 11.064 513.77 11.552C514.002 12.04 514.326 12.416 514.742 12.68C515.166 12.944 515.658 13.076 516.218 13.076ZM524.194 14.144C523.61 14.144 523.09 14.008 522.634 13.736C522.178 13.464 521.818 13.088 521.554 12.608C521.298 12.128 521.17 11.572 521.17 10.94C521.17 10.292 521.298 9.728 521.554 9.248C521.818 8.76 522.178 8.38 522.634 8.108C523.09 7.836 523.61 7.7 524.194 7.7C524.93 7.7 525.546 7.896 526.042 8.288C526.538 8.672 526.854 9.196 526.99 9.86H525.742C525.662 9.508 525.478 9.232 525.19 9.032C524.902 8.832 524.566 8.732 524.182 8.732C523.846 8.732 523.542 8.816 523.27 8.984C522.998 9.152 522.782 9.4 522.622 9.728C522.47 10.048 522.394 10.448 522.394 10.928C522.394 11.28 522.438 11.596 522.526 11.876C522.622 12.148 522.75 12.376 522.91 12.56C523.07 12.744 523.258 12.884 523.474 12.98C523.69 13.076 523.926 13.124 524.182 13.124C524.438 13.124 524.674 13.08 524.89 12.992C525.106 12.904 525.286 12.776 525.43 12.608C525.582 12.432 525.686 12.228 525.742 11.996H526.99C526.854 12.636 526.534 13.156 526.03 13.556C525.534 13.948 524.922 14.144 524.194 14.144ZM530.568 14C530.184 14 529.852 13.94 529.572 13.82C529.292 13.7 529.076 13.5 528.924 13.22C528.772 12.94 528.696 12.56 528.696 12.08V8.864H527.64V7.844H528.696L528.852 6.284H529.896V7.844H531.624V8.864H529.896V12.092C529.896 12.436 529.968 12.672 530.112 12.8C530.256 12.92 530.504 12.98 530.856 12.98H531.588V14H530.568Z" fill="#A3AED0"/>
<path d="M568.059 14V5.6H569.259L573.543 12.044V5.6H574.743V14H573.543L569.259 7.556V14H568.059ZM578.98 14.144C578.404 14.144 577.888 14.012 577.432 13.748C576.984 13.476 576.632 13.1 576.376 12.62C576.12 12.132 575.992 11.568 575.992 10.928C575.992 10.28 576.12 9.716 576.376 9.236C576.64 8.748 576.996 8.372 577.444 8.108C577.9 7.836 578.416 7.7 578.992 7.7C579.576 7.7 580.092 7.836 580.54 8.108C580.996 8.372 581.352 8.748 581.608 9.236C581.864 9.716 581.992 10.28 581.992 10.928C581.992 11.568 581.86 12.132 581.596 12.62C581.34 13.1 580.984 13.476 580.528 13.748C580.08 14.012 579.564 14.144 578.98 14.144ZM578.98 13.112C579.308 13.112 579.608 13.032 579.88 12.872C580.152 12.704 580.368 12.46 580.528 12.14C580.688 11.812 580.768 11.408 580.768 10.928C580.768 10.44 580.688 10.036 580.528 9.716C580.376 9.388 580.164 9.144 579.892 8.984C579.628 8.816 579.332 8.732 579.004 8.732C578.676 8.732 578.376 8.816 578.104 8.984C577.832 9.144 577.616 9.388 577.456 9.716C577.296 10.036 577.216 10.44 577.216 10.928C577.216 11.408 577.296 11.812 577.456 12.14C577.616 12.46 577.828 12.704 578.092 12.872C578.364 13.032 578.66 13.112 578.98 13.112ZM584.622 14L582.318 7.844H583.578L585.342 12.848L587.106 7.844H588.342L586.038 14H584.622Z" fill="#A3AED0"/>
<path d="M623.93 14V5.6H626.39C627.366 5.6 628.17 5.772 628.802 6.116C629.442 6.46 629.914 6.948 630.218 7.58C630.53 8.204 630.686 8.948 630.686 9.812C630.686 10.676 630.53 11.42 630.218 12.044C629.914 12.668 629.442 13.152 628.802 13.496C628.17 13.832 627.366 14 626.39 14H623.93ZM625.13 12.992H626.342C627.118 12.992 627.73 12.864 628.178 12.608C628.634 12.352 628.958 11.988 629.15 11.516C629.35 11.036 629.45 10.468 629.45 9.812C629.45 9.148 629.35 8.576 629.15 8.096C628.958 7.616 628.634 7.248 628.178 6.992C627.73 6.736 627.118 6.608 626.342 6.608H625.13V12.992ZM634.569 14.144C633.985 14.144 633.469 14.012 633.021 13.748C632.581 13.476 632.237 13.1 631.989 12.62C631.741 12.14 631.617 11.58 631.617 10.94C631.617 10.292 631.741 9.728 631.989 9.248C632.237 8.76 632.585 8.38 633.033 8.108C633.481 7.836 633.997 7.7 634.581 7.7C635.181 7.7 635.693 7.836 636.117 8.108C636.541 8.372 636.865 8.728 637.089 9.176C637.313 9.616 637.425 10.108 637.425 10.652C637.425 10.732 637.421 10.816 637.413 10.904C637.413 10.992 637.409 11.092 637.401 11.204H632.493V10.364H636.225C636.209 9.836 636.045 9.428 635.733 9.14C635.421 8.844 635.033 8.696 634.569 8.696C634.249 8.696 633.953 8.772 633.681 8.924C633.417 9.076 633.201 9.3 633.033 9.596C632.873 9.884 632.793 10.252 632.793 10.7V11.036C632.793 11.492 632.873 11.88 633.033 12.2C633.193 12.512 633.405 12.748 633.669 12.908C633.941 13.068 634.237 13.148 634.557 13.148C634.957 13.148 635.277 13.068 635.517 12.908C635.757 12.74 635.933 12.516 636.045 12.236H637.257C637.153 12.596 636.977 12.92 636.729 13.208C636.481 13.496 636.173 13.724 635.805 13.892C635.445 14.06 635.033 14.144 634.569 14.144ZM641.339 14.144C640.755 14.144 640.235 14.008 639.779 13.736C639.323 13.464 638.963 13.088 638.699 12.608C638.443 12.128 638.315 11.572 638.315 10.94C638.315 10.292 638.443 9.728 638.699 9.248C638.963 8.76 639.323 8.38 639.779 8.108C640.235 7.836 640.755 7.7 641.339 7.7C642.075 7.7 642.691 7.896 643.187 8.288C643.683 8.672 643.999 9.196 644.135 9.86H642.887C642.807 9.508 642.623 9.232 642.335 9.032C642.047 8.832 641.711 8.732 641.327 8.732C640.991 8.732 640.687 8.816 640.415 8.984C640.143 9.152 639.927 9.4 639.767 9.728C639.615 10.048 639.539 10.448 639.539 10.928C639.539 11.28 639.583 11.596 639.671 11.876C639.767 12.148 639.895 12.376 640.055 12.56C640.215 12.744 640.403 12.884 640.619 12.98C640.835 13.076 641.071 13.124 641.327 13.124C641.583 13.124 641.819 13.08 642.035 12.992C642.251 12.904 642.431 12.776 642.575 12.608C642.727 12.432 642.831 12.228 642.887 11.996H644.135C643.999 12.636 643.679 13.156 643.175 13.556C642.679 13.948 642.067 14.144 641.339 14.144Z" fill="#A3AED0"/>
<path d="M290.854 14.144C290.334 14.144 289.886 14.048 289.51 13.856C289.134 13.656 288.842 13.368 288.634 12.992C288.426 12.616 288.322 12.168 288.322 11.648H289.534C289.534 11.92 289.578 12.164 289.666 12.38C289.754 12.596 289.89 12.768 290.074 12.896C290.266 13.016 290.518 13.076 290.83 13.076C291.134 13.076 291.378 13.016 291.562 12.896C291.746 12.776 291.878 12.616 291.958 12.416C292.038 12.208 292.078 11.972 292.078 11.708V5.6H293.278V11.708C293.278 12.484 293.062 13.084 292.63 13.508C292.198 13.932 291.606 14.144 290.854 14.144ZM296.993 14.144C296.521 14.144 296.113 14.052 295.769 13.868C295.425 13.684 295.157 13.404 294.965 13.028C294.781 12.644 294.689 12.168 294.689 11.6V7.844H295.889V11.468C295.889 12.02 296.013 12.436 296.261 12.716C296.509 12.988 296.861 13.124 297.317 13.124C297.629 13.124 297.905 13.052 298.145 12.908C298.393 12.764 298.589 12.556 298.733 12.284C298.885 12.004 298.961 11.66 298.961 11.252V7.844H300.161V14H299.081L299.009 12.992C298.825 13.352 298.557 13.636 298.205 13.844C297.861 14.044 297.457 14.144 296.993 14.144ZM301.576 14V7.844H302.656L302.728 8.852C302.912 8.5 303.176 8.22 303.52 8.012C303.872 7.804 304.28 7.7 304.744 7.7C305.216 7.7 305.624 7.796 305.968 7.988C306.312 8.172 306.58 8.456 306.772 8.84C306.964 9.216 307.06 9.688 307.06 10.256V14H305.86V10.376C305.86 9.832 305.732 9.424 305.476 9.152C305.228 8.872 304.876 8.732 304.42 8.732C304.116 8.732 303.836 8.804 303.58 8.948C303.332 9.092 303.136 9.304 302.992 9.584C302.848 9.856 302.776 10.192 302.776 10.592V14H301.576Z" fill="#A3AED0"/>
</svg>
