<svg width="32" height="33" viewBox="0 0 32 33" fill="none" xmlns="http://www.w3.org/2000/svg">
<path d="M13 0C11.3431 0 10 1.38512 10 3.09375V5.15625C10 6.86488 11.3431 8.25 13 8.25H19C20.6569 8.25 22 6.86488 22 5.15625V3.09375C22 1.38512 20.6569 0 19 0H13ZM19 2.0625C19.5523 2.0625 20 2.52421 20 3.09375V5.15625C20 5.72579 19.5523 6.1875 19 6.1875H13C12.4477 6.1875 12 5.72579 12 5.15625V3.09375C12 2.52421 12.4477 2.0625 13 2.0625H19Z" fill="black"/>
<path d="M8 3.09375H6C3.79086 3.09375 2 4.94057 2 7.21875V28.875C2 31.1532 3.79086 33 6 33H26C28.2091 33 30 31.1532 30 28.875V7.21875C30 4.94058 28.2091 3.09375 26 3.09375H24V5.15625C24 8.00397 21.7614 10.3125 19 10.3125H13C10.2386 10.3125 8 8.00397 8 5.15625V3.09375ZM16 19.1666L18.2929 16.802C18.6834 16.3993 19.3166 16.3993 19.7071 16.802C20.0976 17.2048 20.0976 17.8577 19.7071 18.2605L17.4142 20.625L19.7071 22.9895C20.0976 23.3923 20.0976 24.0452 19.7071 24.448C19.3166 24.8507 18.6834 24.8507 18.2929 24.448L16 22.0834L13.7071 24.448C13.3166 24.8507 12.6834 24.8507 12.2929 24.448C11.9024 24.0452 11.9024 23.3923 12.2929 22.9895L14.5858 20.625L12.2929 18.2605C11.9024 17.8577 11.9024 17.2048 12.2929 16.802C12.6834 16.3993 13.3166 16.3993 13.7071 16.802L16 19.1666Z" fill="black"/>
</svg>
