<svg width="42" height="42" viewBox="0 0 42 42" fill="none" xmlns="http://www.w3.org/2000/svg">
<path fill-rule="evenodd" clip-rule="evenodd" d="M27.9465 1.69692C28.459 1.18436 29.2901 1.18436 29.8026 1.69692L40.3026 12.1969C40.8152 12.7095 40.8152 13.5405 40.3026 14.0531L35.3097 19.046L33.135 27.7447C32.7982 29.092 31.7766 30.1622 30.4465 30.5612L3.29199 38.7076L11.4383 11.553C11.8374 10.2229 12.9076 9.20135 14.2548 8.86454L22.9535 6.68986L27.9465 1.69692ZM23.2219 9.32855L14.8915 11.4112C14.4424 11.5234 14.0857 11.864 13.9526 12.3073L7.20711 34.7924L29.6922 28.0469C30.1356 27.9139 30.4761 27.5572 30.5884 27.1081L32.671 18.7776L23.2219 9.32855Z" fill="black"/>
<path fill-rule="evenodd" clip-rule="evenodd" d="M7.43343 34.7245L20.9997 23.625C22.4494 23.625 23.6247 22.4497 23.6247 21C23.6247 19.5503 22.4494 18.375 20.9997 18.375C19.5499 18.375 18.3747 19.5503 18.3747 21L7.27498 34.5661L7.20711 34.7924L7.43343 34.7245Z" fill="black"/>
</svg>
