<svg width="42" height="42" viewBox="0 0 42 42" fill="none" xmlns="http://www.w3.org/2000/svg">
<path d="M41.9061 1.79999C42.1011 1.3125 41.9868 0.755717 41.6155 0.38446C41.2443 0.0132034 40.6875 -0.101081 40.2 0.0939125L2.01389 15.3684L2.01007 15.3699L0.825067 15.8439C0.36786 16.0268 0.0514879 16.4502 0.00570354 16.9405C-0.0400808 17.4308 0.192427 17.9054 0.607868 18.1698L1.68312 18.8541L1.6881 18.8573L14.7993 27.2007L23.1427 40.3119L23.1467 40.3181L23.8302 41.3921C24.0946 41.8076 24.5692 42.0401 25.0595 41.9943C25.5498 41.9485 25.9732 41.6321 26.1561 41.1749L41.9061 1.79999ZM37.094 6.76207L17.4225 26.4336L16.8573 25.5454C16.7542 25.3833 16.6167 25.2458 16.4546 25.1427L15.5664 24.5774L35.2378 4.906L38.3315 3.66854L37.094 6.76207Z" fill="black"/>
</svg>
