<svg width="32" height="32" viewBox="0 0 32 32" fill="none" xmlns="http://www.w3.org/2000/svg">
<path fill-rule="evenodd" clip-rule="evenodd" d="M20.7071 12.2929C21.0976 12.6834 21.0976 13.3166 20.7071 13.7071L14.7071 19.7071C14.5196 19.8946 14.2652 20 14 20C13.7348 20 13.4804 19.8946 13.2929 19.7071L10.2929 16.7071C9.90237 16.3166 9.90237 15.6834 10.2929 15.2929C10.6834 14.9024 11.3166 14.9024 11.7071 15.2929L14 17.5858L19.2929 12.2929C19.6834 11.9024 20.3166 11.9024 20.7071 12.2929Z" fill="black"/>
<path d="M20.5459 5.02533L18.7038 3.13887L20.1348 1.7416L21.3785 3.01527L23.1585 2.99407C26.4038 2.95541 29.0446 5.59618 29.0059 8.84151L28.9847 10.6215L30.2584 11.8652C32.5805 14.1327 32.5805 17.8673 30.2584 20.1348L28.9847 21.3785L29.0059 23.1585C29.0446 26.4038 26.4038 29.0446 23.1585 29.0059L21.3785 28.9847L20.1348 30.2584C17.8673 32.5805 14.1327 32.5805 11.8652 30.2584L10.6215 28.9847L8.84151 29.0059C5.59618 29.0446 2.95541 26.4038 2.99407 23.1585L3.01527 21.3785L1.7416 20.1348C-0.580532 17.8673 -0.580532 14.1327 1.7416 11.8652L3.01527 10.6215L2.99407 8.84151C2.95541 5.59618 5.59618 2.95541 8.84151 2.99407L10.6215 3.01527L11.8652 1.7416C14.1327 -0.580532 17.8673 -0.580532 20.1348 1.7416L18.7038 3.13887C17.2211 1.62038 14.7789 1.62038 13.2962 3.13886L11.4541 5.02533L8.81768 4.99393C6.6955 4.96865 4.96865 6.6955 4.99393 8.81768L5.02533 11.4541L3.13887 13.2962C1.62038 14.7789 1.62038 17.2211 3.13887 18.7038L5.02533 20.5459L4.99393 23.1823C4.96865 25.3045 6.6955 27.0314 8.81768 27.0061L11.4541 26.9747L13.2962 28.8611C14.7789 30.3796 17.2211 30.3796 18.7038 28.8611L20.5459 26.9747L23.1823 27.0061C25.3045 27.0314 27.0314 25.3045 27.0061 23.1823L26.9747 20.5459L28.8611 18.7038C30.3796 17.2211 30.3796 14.7789 28.8611 13.2962L26.9747 11.4541L27.0061 8.81768C27.0314 6.6955 25.3045 4.96865 23.1823 4.99393L20.5459 5.02533Z" fill="black"/>
</svg>
