<svg width="13" height="13" viewBox="0 0 13 13" fill="none" xmlns="http://www.w3.org/2000/svg">
<path d="M2.25 0V0.5625H0V12.9375H12.375V0.5625H10.125V0H9V0.5625H3.375V0H2.25ZM1.125 1.6875H2.25V2.25H3.375V1.6875H9V2.25H10.125V1.6875H11.25V2.8125H1.125V1.6875ZM1.125 3.9375H11.25V11.8125H1.125V3.9375ZM4.5 5.0625V6.1875H5.625V5.0625H4.5ZM6.75 5.0625V6.1875H7.875V5.0625H6.75ZM9 5.0625V6.1875H10.125V5.0625H9ZM2.25 7.3125V8.4375H3.375V7.3125H2.25ZM4.5 7.3125V8.4375H5.625V7.3125H4.5ZM6.75 7.3125V8.4375H7.875V7.3125H6.75ZM9 7.3125V8.4375H10.125V7.3125H9ZM2.25 9.5625V10.6875H10.125V9.5625H2.25Z" fill="#8181A5"/>
</svg>
