<svg width="32" height="32" viewBox="0 0 32 32" fill="none" xmlns="http://www.w3.org/2000/svg">
<path d="M20 1C20 0.447715 19.5523 0 19 0H13C12.4477 0 12 0.447715 12 1C12 1.55228 11.5523 2 11 2C10.4477 2 10 2.44772 10 3V4C10 4.55228 10.4477 5 11 5H21C21.5523 5 22 4.55228 22 4V3C22 2.44772 21.5523 2 21 2C20.4477 2 20 1.55228 20 1Z" fill="black"/>
<path d="M8.17071 2H7C5.34315 2 4 3.34315 4 5V29C4 30.6569 5.34314 32 7 32H25C26.6569 32 28 30.6569 28 29V5C28 3.34315 26.6569 2 25 2H23.8293C23.9398 2.31278 24 2.64936 24 3V4C24 5.65685 22.6569 7 21 7H11C9.34314 7 8 5.65685 8 4V3C8 2.64936 8.06015 2.31278 8.17071 2ZM20 14C20 12.8954 20.8954 12 22 12C23.1046 12 24 12.8954 24 14V24C24 25.1046 23.1046 26 22 26C20.8954 26 20 25.1046 20 24V14ZM8 22C8 20.8954 8.89543 20 10 20C11.1046 20 12 20.8954 12 22V24C12 25.1046 11.1046 26 10 26C8.89543 26 8 25.1046 8 24V22ZM16 16C17.1046 16 18 16.8954 18 18V24C18 25.1046 17.1046 26 16 26C14.8954 26 14 25.1046 14 24V18C14 16.8954 14.8954 16 16 16Z" fill="black"/>
</svg>
