<svg width="10" height="10" viewBox="0 0 10 10" fill="none" xmlns="http://www.w3.org/2000/svg">
<g clip-path="url(#clip0_201_12191)">
<path d="M2.89726 4.87961C3.6552 4.87961 4.26963 4.26519 4.26963 3.50725C4.26963 2.74932 3.6552 2.13489 2.89726 2.13489C2.13933 2.13489 1.5249 2.74932 1.5249 3.50725C1.5249 4.26519 2.13933 4.87961 2.89726 4.87961Z" fill="black"/>
<path d="M4.46038 5.64195C3.92364 5.36939 3.33123 5.26074 2.89742 5.26074C2.04769 5.26074 0.305176 5.78186 0.305176 6.82371V7.62426H3.16426V7.31795C3.16426 6.9558 3.31675 6.5927 3.5836 6.29001C3.7965 6.04833 4.09461 5.82398 4.46038 5.64195Z" fill="black"/>
<path d="M6.48078 5.4895C5.48829 5.4895 3.50732 6.10249 3.50732 7.31932V8.23423H9.45423V7.31932C9.45423 6.10249 7.47326 5.4895 6.48078 5.4895Z" fill="black"/>
<path d="M6.48055 4.87944C7.40692 4.87944 8.15789 4.12848 8.15789 3.20211C8.15789 2.27575 7.40692 1.52478 6.48055 1.52478C5.55419 1.52478 4.80322 2.27575 4.80322 3.20211C4.80322 4.12848 5.55419 4.87944 6.48055 4.87944Z" fill="black"/>
</g>
<defs>
<clipPath id="clip0_201_12191">
<rect width="9.75902" height="9.75902" fill="white"/>
</clipPath>
</defs>
</svg>
