<svg width="24" height="24" viewBox="0 0 24 24" fill="none" xmlns="http://www.w3.org/2000/svg">
<path d="M14.5035 1.296L12 0L9.49649 1.296L6.70949 1.719L5.44649 4.239L3.44099 6.219L3.89999 9L3.44099 11.781L5.44649 13.761L6.70949 16.281L9.49649 16.704L12 18L14.5035 16.704L17.2905 16.281L18.5535 13.761L20.559 11.781L20.1 9L20.559 6.219L18.5535 4.239L17.2905 1.719L14.5035 1.296ZM16.2975 3.0855L17.3235 5.133L18.9525 6.741L18.5805 9L18.9525 11.259L17.3235 12.867L16.2975 14.9145L14.0325 15.258L12 16.311L9.96749 15.258L7.70249 14.9145L6.67649 12.867L5.04749 11.259L5.42099 9L5.04599 6.741L6.67649 5.133L7.70249 3.0855L9.96749 2.742L12 1.689L14.034 2.742L16.2975 3.0855Z" fill="black"/>
<path d="M6 17.6909V23.9999L12 22.4999L18 23.9999V17.6909L14.973 18.1499L12 19.6889L9.027 18.1499L6 17.6909Z" fill="black"/>
</svg>
