<svg width="25" height="25" viewBox="0 0 25 25" fill="none" xmlns="http://www.w3.org/2000/svg">
<g id="Communication / Bell_Notification">
<path id="Vector" d="M15.6253 17.7085V18.7502C15.6253 20.4761 14.2262 21.8752 12.5003 21.8752C10.7744 21.8752 9.37533 20.4761 9.37533 18.7502V17.7086M19.7717 9.87109C19.7854 10.0507 19.792 10.233 19.792 10.4168V14.2941C19.792 14.4793 19.8655 14.657 19.9965 14.788L20.5285 15.32C20.7238 15.5154 20.8337 15.7802 20.8337 16.0565V16.6668C20.8337 17.2421 20.3673 17.7085 19.792 17.7085H15.6253L9.37533 17.7086M9.37533 17.7086L5.20866 17.7086C4.63337 17.7086 4.16699 17.2419 4.16699 16.6666V16.0565C4.16699 15.7802 4.27682 15.5157 4.47217 15.3203L5.00419 14.7875C5.13511 14.6566 5.20866 14.4796 5.20866 14.2943V10.4168C5.20866 6.38976 8.47324 3.12516 12.5003 3.12516C13.2416 3.12516 13.957 3.23577 14.631 3.44138M19.7717 9.87109C21.0283 9.1536 21.8753 7.8008 21.8753 6.25016C21.8753 3.94898 20.0098 2.0835 17.7087 2.0835C16.4897 2.0835 15.3929 2.60697 14.631 3.44138M19.7717 9.87109C19.1634 10.2184 18.4592 10.4168 17.7087 10.4168C15.4075 10.4168 13.542 8.55135 13.542 6.25016C13.542 5.16797 13.9546 4.18215 14.631 3.44138M19.7717 9.87109C19.7717 9.87109 19.7717 9.8711 19.7717 9.87109ZM14.631 3.44138C14.6315 3.44153 14.632 3.44168 14.6324 3.44183" stroke="white" stroke-width="2" stroke-linecap="round" stroke-linejoin="round"/>
</g>
</svg>
