<svg width="25" height="25" viewBox="0 0 25 25" fill="none" xmlns="http://www.w3.org/2000/svg">
<path d="M12.5 3.125C7.33032 3.125 3.125 7.33032 3.125 12.5C3.125 17.6697 7.33032 21.875 12.5 21.875C17.6697 21.875 21.875 17.6697 21.875 12.5C21.875 7.33032 17.6697 3.125 12.5 3.125ZM12.5 4.6875C16.8243 4.6875 20.3125 8.17566 20.3125 12.5C20.3125 16.8243 16.8243 20.3125 12.5 20.3125C8.17566 20.3125 4.6875 16.8243 4.6875 12.5C4.6875 8.17566 8.17566 4.6875 12.5 4.6875ZM12.5 7.8125C10.7819 7.8125 9.375 9.21936 9.375 10.9375H10.9375C10.9375 10.0647 11.6272 9.375 12.5 9.375C13.3728 9.375 14.0625 10.0647 14.0625 10.9375C14.0625 11.5356 13.678 12.0667 13.1104 12.2559L12.793 12.3535C12.1552 12.5641 11.7188 13.1744 11.7188 13.8428V14.8438H13.2812V13.8428L13.5986 13.7451C14.801 13.3453 15.625 12.204 15.625 10.9375C15.625 9.21936 14.2181 7.8125 12.5 7.8125ZM11.7188 15.625V17.1875H13.2812V15.625H11.7188Z" fill="white"/>
</svg>
